<svg width="70" height="70" viewBox="0 0 70 70" fill="none" xmlns="http://www.w3.org/2000/svg">
<path d="M56.4089 13.9475L54.6589 13.0769C53.3464 12.425 52.2527 11.7731 51.3777 10.6838L48.0943 7.4222C45.4693 5.02689 41.7483 4.15845 38.4649 5.24564C36.2774 5.89752 33.8711 5.89752 31.6836 5.24564C28.6189 3.72314 25.1189 4.37502 22.7105 6.55158L18.773 10.686C17.6793 11.5544 16.5855 12.425 15.4918 13.0769L13.7396 13.9475C10.6771 15.4722 8.92707 18.9525 9.36457 22.435L11.1583 31.6728C9.63348 32.4959 8.38728 33.7531 7.57763 35.2852C6.76798 36.8172 6.43131 38.5551 6.6103 40.2786C6.78928 42.0022 7.47586 43.6338 8.58303 44.9668C9.6902 46.2997 11.1681 47.2741 12.8296 47.7663L13.2714 53.5413L13.2736 53.5719C14.0283 61.88 20.3939 67.8125 28.5489 67.8125H41.6455C49.5577 67.8125 56.1639 61.9019 56.9186 53.5719L56.923 53.5216L57.3124 47.7247C58.9559 47.2078 60.4104 46.2173 61.4934 44.8773C62.5764 43.5373 63.2399 41.9075 63.4006 40.1921C63.5613 38.4766 63.2121 36.7519 62.3968 35.2341C61.5815 33.7163 60.3363 32.4729 58.8174 31.6597L60.5674 22.6516C61.2236 18.9525 59.4736 15.4722 56.4089 13.9475ZM52.9089 22.7172V23.9553C52.9089 25.036 53.3552 26.1144 54.0071 26.9478C54.1514 28.0882 54.1784 29.2578 54.088 30.4566V30.4785L53.9283 32.8191C53.893 33.3415 54.0461 33.8592 54.36 34.2783C54.6739 34.6973 55.1277 34.9899 55.6389 35.1028C56.6585 35.3315 57.5625 35.9173 58.1878 36.7544C58.8131 37.5915 59.1183 38.6247 59.0483 39.6672C58.9783 40.7097 58.5377 41.6928 57.8061 42.4387C57.0745 43.1847 56.1002 43.6444 55.0593 43.7347C54.5377 43.7786 54.0492 44.0079 53.6824 44.3812C53.3155 44.7545 53.0947 45.2469 53.0599 45.7691L52.5611 53.2022C51.9968 59.2966 47.2564 63.4375 41.6455 63.4375H28.5468C22.7368 63.4375 18.1911 59.3141 17.6311 53.1913L17.0624 45.756C17.0218 45.2307 16.7931 44.7376 16.4181 44.3675C16.0432 43.9974 15.5472 43.775 15.0214 43.7413C13.9694 43.674 12.977 43.229 12.2268 42.4884C11.4767 41.7477 11.0192 40.761 10.9386 39.7099C10.8579 38.6588 11.1595 37.6139 11.7879 36.7674C12.4163 35.9209 13.3292 35.3298 14.3586 35.1028C14.8731 34.989 15.3291 34.6933 15.643 34.2701C15.9569 33.847 16.1074 33.3247 16.0671 32.7994L15.8899 30.4785C15.8283 29.4505 15.8576 28.4191 15.9774 27.3963C17.0361 26.5256 17.4605 25.2416 17.4605 23.9575V22.12C18.1263 20.6726 18.9867 19.3228 20.0177 18.1081C22.8746 17.4519 28.0393 16.5594 35.1836 16.5594C42.0939 16.5594 47.1514 17.3972 50.063 18.0425C51.2594 19.4353 52.2222 21.0144 52.9089 22.7172ZM31.2724 45.2725L33.438 38.3381C33.9258 36.8047 36.0914 36.8047 36.5574 38.3381L38.723 45.2725C38.8237 45.6034 38.8453 45.9533 38.7861 46.294C38.7268 46.6347 38.5884 46.9568 38.382 47.2343C38.1756 47.5118 37.9069 47.737 37.5976 47.8917C37.2883 48.0464 36.947 48.1263 36.6011 48.125H33.3943C33.0476 48.1286 32.7051 48.0503 32.3945 47.8962C32.0839 47.7422 31.8142 47.517 31.6073 47.2388C31.4004 46.9607 31.2622 46.6376 31.204 46.2958C31.1458 45.9541 31.1692 45.6035 31.2724 45.2725ZM34.9977 52.2725C33.034 52.2849 31.0961 51.825 29.3474 50.9316C28.7896 50.6472 28.188 51.2772 28.5402 51.7847C29.2473 52.8494 30.2077 53.7219 31.3351 54.324C32.4625 54.9261 33.7218 55.2389 34.9999 55.2344C36.2776 55.2385 37.5364 54.9256 38.6634 54.3235C39.7905 53.7214 40.7505 52.8491 41.4574 51.7847C41.8074 51.2575 41.208 50.6472 40.6502 50.9316C38.9013 51.8242 36.9634 52.2834 34.9999 52.2703M44.7518 33.6853C47.4074 33.6853 49.6518 35.5228 50.2796 37.9881C50.3199 38.1539 50.3218 38.3267 50.2852 38.4934C50.2486 38.66 50.1743 38.8161 50.0682 38.9497C49.962 39.0833 49.8268 39.1908 49.6727 39.2642C49.5187 39.3375 49.3499 39.3747 49.1793 39.3728H47.4293C47.5792 38.8312 47.6017 38.2621 47.495 37.7103C47.3883 37.1585 47.1552 36.6388 46.814 36.1922C46.4729 35.7455 46.0329 35.3839 45.5286 35.1357C45.0243 34.8875 44.4694 34.7594 43.9074 34.7616C43.4291 34.7592 42.9552 34.852 42.5131 35.0344C42.071 35.2168 41.6696 35.4852 41.3322 35.8241C40.9947 36.163 40.728 36.5655 40.5474 37.0084C40.3669 37.4512 40.2762 37.9255 40.2805 38.4038C40.2805 38.7479 40.3243 39.071 40.4118 39.3728H40.0858C39.9483 39.3737 39.8122 39.3443 39.6873 39.2867C39.5625 39.229 39.4518 39.1446 39.3633 39.0393C39.2747 38.9341 39.2104 38.8106 39.175 38.6777C39.1396 38.5448 39.1339 38.4057 39.1583 38.2703C39.4141 36.9759 40.1119 35.8107 41.1324 34.9742C42.1528 34.1378 43.4323 33.6821 44.7518 33.6853ZM19.7202 37.9903C20.0364 36.7348 20.7703 35.6241 21.8015 34.8411C22.8326 34.0581 24.0995 33.6492 25.3939 33.6818C26.6882 33.7144 27.933 34.1865 28.9234 35.0204C29.9139 35.8543 30.5911 37.0005 30.8436 38.2703C30.8685 38.406 30.863 38.5455 30.8276 38.6789C30.7922 38.8122 30.7278 38.9361 30.639 39.0417C30.5502 39.1472 30.4391 39.2318 30.3138 39.2895C30.1884 39.3471 30.0519 39.3763 29.9139 39.375H29.5902C29.6777 39.0731 29.7207 38.7501 29.7193 38.406C29.7193 36.3803 28.1005 34.7638 26.0902 34.7638C25.5283 34.762 24.9737 34.8903 24.4697 35.1386C23.9657 35.3869 23.526 35.7486 23.1851 36.1952C22.8442 36.6419 22.6113 37.1614 22.5047 37.713C22.3981 38.2647 22.4206 38.8335 22.5705 39.375H20.8205C20.6499 39.3769 20.4811 39.3397 20.3271 39.2663C20.173 39.193 20.0377 39.0854 19.9316 38.9519C19.8254 38.8183 19.7512 38.6622 19.7146 38.4956C19.6779 38.3289 19.6799 38.1561 19.7202 37.9903ZM41.8139 38.406C41.8138 37.9968 41.9356 37.597 42.1639 37.2575C42.258 37.4981 42.4921 37.6688 42.7633 37.6688C42.9021 37.6673 43.0368 37.622 43.1481 37.5392C43.2595 37.4564 43.3417 37.3404 43.383 37.208C43.4243 37.0755 43.4226 36.9334 43.3781 36.802C43.3335 36.6706 43.2485 36.5566 43.1352 36.4766C43.5291 36.3218 43.961 36.2914 44.3727 36.3894C44.7844 36.4875 45.1562 36.7093 45.4381 37.025C45.7199 37.3407 45.8983 37.7351 45.9493 38.1553C46.0002 38.5754 45.9213 39.0011 45.723 39.375H42.0546C41.9007 39.0749 41.8184 38.7432 41.8139 38.406ZM26.0902 36.3366C26.4476 36.3356 26.7992 36.4272 27.1108 36.6024C27.4223 36.7775 27.6833 37.0303 27.8682 37.3361C28.0532 37.642 28.1559 37.9905 28.1663 38.3478C28.1767 38.705 28.0945 39.0589 27.9277 39.375H24.2549C24.1026 39.0745 24.0217 38.7429 24.0186 38.406C24.0186 38.0297 24.1193 37.6753 24.2964 37.3713C24.3719 37.4902 24.4842 37.5811 24.6162 37.6302C24.7482 37.6794 24.8927 37.6839 25.0275 37.6433C25.1624 37.6026 25.2802 37.519 25.3631 37.4051C25.4459 37.2912 25.4893 37.1533 25.4864 37.0125C25.4868 36.9174 25.4664 36.8233 25.4267 36.7368C25.3871 36.6503 25.3291 36.5734 25.2568 36.5116C25.5195 36.3963 25.8033 36.3368 26.0902 36.3366ZM19.3199 31.8085C19.689 32.2507 20.2175 32.5295 20.7909 32.5843C21.3643 32.6392 21.9361 32.4657 22.3824 32.1016L22.3977 32.0906L22.413 32.0775C22.7947 31.8154 23.205 31.5975 23.6358 31.4278C24.8454 30.957 26.1595 30.8209 27.4399 31.0341C28.0064 31.1105 28.5803 30.9622 29.0388 30.6208C29.4973 30.2795 29.804 29.7722 29.8932 29.2076C29.9823 28.6429 29.847 28.0658 29.516 27.5998C29.1851 27.1337 28.6849 26.8157 28.1224 26.7138C26.0696 26.379 23.9646 26.6027 22.028 27.3613C21.4323 27.597 20.8584 27.8847 20.313 28.221C20.096 28.3575 19.885 28.5034 19.6808 28.6585L19.6327 28.7L19.613 28.7131L19.6064 28.7197L19.6021 28.7241H19.5999C19.3787 28.908 19.196 29.1338 19.0622 29.3885C18.9284 29.6431 18.8461 29.9217 18.8201 30.2082C18.7941 30.4947 18.8248 30.7835 18.9106 31.0581C18.9964 31.3327 19.1354 31.5877 19.3199 31.8085ZM50.1789 28.7241C50.6236 29.0968 50.902 29.631 50.9529 30.209C51.0038 30.787 50.8229 31.3616 50.4502 31.8063C50.0774 32.251 49.5433 32.5294 48.9653 32.5802C48.3873 32.6311 47.8127 32.4503 47.368 32.0775C46.9863 31.8154 46.576 31.5975 46.1452 31.4278C44.9356 30.957 43.6215 30.8209 42.3411 31.0341C41.7746 31.1105 41.2007 30.9622 40.7422 30.6208C40.2837 30.2795 39.9771 29.7722 39.8879 29.2076C39.7987 28.6429 39.934 28.0658 40.265 27.5998C40.5959 27.1337 41.0962 26.8157 41.6586 26.7138C43.7114 26.379 45.8164 26.6027 47.753 27.3613C48.4836 27.65 49.0611 27.9672 49.468 28.221C49.685 28.3575 49.896 28.5034 50.1002 28.6585L50.1483 28.7L50.168 28.7131L50.1746 28.7197L50.1789 28.7241Z" fill="#073F27"/>
</svg>
