<svg width="163" height="94" viewBox="0 0 163 94" fill="none" xmlns="http://www.w3.org/2000/svg">
<path d="M156.311 14.9387C151.698 16.3187 147.078 17.6987 142.466 19.0787C141.813 19.2737 142.091 20.3012 142.751 20.0987C147.363 18.7187 151.983 17.3387 156.596 15.9587C157.241 15.7712 156.963 14.7437 156.311 14.9387Z" fill="#00477C"/>
<path d="M142.338 18.9587C131.381 15.2387 120.416 11.5187 109.458 7.79872C108.873 7.60372 108.551 8.45873 109.053 8.76623C117.813 14.1062 126.566 19.4537 135.326 24.7937C135.911 25.1537 136.443 24.2312 135.858 23.8787C127.098 18.5387 118.346 13.1912 109.586 7.85123C109.451 8.17373 109.316 8.49624 109.181 8.81874C120.138 12.5387 131.103 16.2587 142.061 19.9787C142.706 20.2037 142.983 19.1762 142.338 18.9587Z" fill="#00477C"/>
<path d="M156.964 13.4687C137.629 9.47121 118.219 5.84122 98.7493 2.57872C98.0818 2.46622 97.7968 3.48621 98.4643 3.59871C117.934 6.86121 137.344 10.4912 156.679 14.4887C157.354 14.6237 157.639 13.6037 156.964 13.4687Z" fill="#00477C"/>
<path d="M135.655 24.2762C130.308 24.6212 124.975 25.1387 119.658 25.8287C118.99 25.9187 118.983 26.9762 119.658 26.8862C124.975 26.1962 130.3 25.6787 135.655 25.3337C136.33 25.2887 136.338 24.2312 135.655 24.2762Z" fill="#00477C"/>
<path d="M97.0533 3.68122C104.643 12.2237 112.676 20.3312 121.158 27.9962C121.661 28.4537 122.418 27.7037 121.908 27.2462C113.426 19.5887 105.393 11.4812 97.8033 2.93122C97.3533 2.42122 96.6033 3.17122 97.0533 3.68122Z" fill="#00477C"/>
<path d="M143.193 20.4812C143.208 25.4087 143.486 30.3137 144.048 35.2112C144.123 35.8787 145.188 35.8862 145.106 35.2112C144.551 30.3137 144.266 25.4087 144.251 20.4812C144.251 19.7987 143.193 19.7987 143.193 20.4812Z" fill="#00477C"/>
<path d="M135.813 24.6062C138.408 28.3187 140.996 32.0387 143.591 35.7512C143.981 36.3062 144.896 35.7812 144.506 35.2187C141.911 31.5062 139.323 27.7862 136.728 24.0737C136.346 23.5187 135.423 24.0437 135.813 24.6062Z" fill="#00477C"/>
<path d="M144.108 35.0912C139.436 31.4762 134.628 28.0562 129.678 24.8387C129.101 24.4637 128.576 25.3862 129.146 25.7537C134.021 28.9262 138.761 32.2862 143.366 35.8412C143.898 36.2537 144.648 35.5112 144.108 35.0912Z" fill="#00477C"/>
<path fill-rule="evenodd" clip-rule="evenodd" d="M66.1654 0.204416C67.3061 0.128836 68.4607 0.303471 69.5546 0.789873L69.5549 0.790002C71.1808 1.51407 72.3367 2.68072 73.1037 4.1057C73.2509 4.37926 73.1485 4.72037 72.875 4.86761C72.6014 5.01485 72.2603 4.91246 72.1131 4.63891C71.4541 3.41456 70.4771 2.43227 69.0975 1.81783C68.1848 1.41199 67.2145 1.26237 66.2398 1.32695C65.9298 1.34749 65.6619 1.11286 65.6413 0.802875C65.6208 0.492894 65.8554 0.224955 66.1654 0.204416ZM60.9355 3.05568C61.153 3.27749 61.1495 3.63363 60.9277 3.85113C60.2037 4.56104 59.5965 5.38287 59.1579 6.27033C58.7023 7.19613 58.3861 8.17114 58.1868 9.17841C58.1265 9.48316 57.8305 9.68133 57.5258 9.62102C57.221 9.56072 57.0229 9.26478 57.0832 8.96003C57.2998 7.86548 57.6456 6.79545 58.1489 5.77295L58.1493 5.77216C58.6476 4.76369 59.332 3.84017 60.1401 3.04786C60.3619 2.83036 60.718 2.83386 60.9355 3.05568ZM73.5587 12.7719C73.8644 12.8274 74.0671 13.1202 74.0116 13.4259C73.7266 14.9942 73.2795 16.5313 72.7294 17.9276L72.7293 17.9277C72.3531 18.882 71.9496 19.8314 71.5178 20.7704C71.388 21.0527 71.054 21.1762 70.7717 21.0464C70.4895 20.9166 70.3659 20.5826 70.4957 20.3004C70.9184 19.3812 71.3137 18.4511 71.6827 17.5152C72.2066 16.1853 72.6332 14.7188 72.9047 13.2247C72.9603 12.9191 73.2531 12.7163 73.5587 12.7719ZM57.5563 14.9253C57.8628 14.8747 58.1523 15.0821 58.2029 15.3886C58.3746 16.4286 58.6152 17.4609 58.902 18.4672L58.902 18.4673C59.3098 19.8993 59.8019 21.2995 60.3707 22.6658C60.4901 22.9526 60.3544 23.2819 60.0676 23.4013C59.7808 23.5207 59.4515 23.385 59.3321 23.0982C58.7469 21.6926 58.2403 20.251 57.8201 18.7755C57.5234 17.7342 57.2726 16.6599 57.0929 15.572C57.0423 15.2654 57.2497 14.9759 57.5563 14.9253ZM68.4099 25.4442C68.673 25.6093 68.7525 25.9565 68.5874 26.2196C67.5272 27.9093 66.3516 29.5217 65.0518 31.0173C66.6439 33.243 68.4411 35.3383 70.3968 37.2895C70.6167 37.5089 70.6172 37.865 70.3977 38.0849C70.1783 38.3049 69.8222 38.3053 69.6022 38.0859C67.4399 35.9286 65.4635 33.5949 63.7352 31.1014C63.5582 30.8461 63.6217 30.4957 63.877 30.3187C63.9913 30.2395 64.1247 30.2084 64.2531 30.2213C65.4909 28.7904 66.6156 27.2455 67.6344 25.6217C67.7995 25.3585 68.1467 25.2791 68.4099 25.4442ZM148.947 33.845C149.159 33.6179 149.515 33.6057 149.742 33.8177L152.292 36.199C152.52 36.411 152.532 36.767 152.32 36.994C152.108 37.2211 151.752 37.2332 151.525 37.0212L148.975 34.64C148.748 34.428 148.735 34.072 148.947 33.845ZM60.4513 34.6569C60.6384 34.9049 60.589 35.2576 60.3411 35.4448C59.5133 36.0694 58.6488 36.65 57.7465 37.181M48.888 40.3563C48.986 40.6511 48.8266 40.9696 48.5318 41.0676C48.0995 41.2114 47.6696 41.353 47.2409 41.4941C46.6262 41.6965 46.0139 41.8981 45.4004 42.1045C43.9693 42.5871 42.5428 43.0947 41.1256 43.6301C40.835 43.7399 40.5104 43.5933 40.4006 43.3027C40.2908 43.0121 40.4374 42.6875 40.728 42.5777C42.1589 42.0371 43.5983 41.525 45.0413 41.0384L45.0417 41.0382C45.6564 40.8315 46.2769 40.6271 46.8958 40.4233C47.3244 40.2822 47.7521 40.1414 48.1767 40.0001C48.4714 39.9021 48.7899 40.0615 48.888 40.3563ZM156.597 40.9887C156.809 40.7617 157.165 40.7495 157.392 40.9615L159.941 43.3415C160.174 43.5574 160.416 43.7851 160.651 44.0238C160.868 44.2454 160.865 44.6015 160.644 44.8193C160.422 45.037 160.066 45.0339 159.848 44.8124C159.633 44.5931 159.406 44.38 159.176 44.1662L159.175 44.165L156.625 41.7838C156.398 41.5717 156.385 41.2158 156.597 40.9887ZM76.4213 43.1991C76.6035 42.9475 76.9552 42.8913 77.2068 43.0736C78.4173 43.9506 79.6589 44.781 80.924 45.5627C82.1973 46.3489 83.494 47.091 84.8116 47.7933C85.0857 47.9394 85.1895 48.2801 85.0434 48.5542C84.8973 48.8284 84.5566 48.9322 84.2824 48.786C82.9449 48.0732 81.6275 47.3192 80.333 46.52L80.3329 46.5199C79.0446 45.7239 77.78 44.8781 76.5468 43.9846C76.2952 43.8023 76.239 43.4507 76.4213 43.1991ZM161.151 45.4368C161.428 45.2977 161.766 45.4101 161.905 45.6878C162.068 46.0128 162.194 46.3627 162.264 46.7402M33.0497 46.4408C33.1849 46.7205 33.0678 47.0569 32.7881 47.1921C30.0609 48.5107 27.4094 49.9642 24.871 51.5758C24.6088 51.7423 24.2612 51.6647 24.0946 51.4024C23.9281 51.1402 24.0058 50.7926 24.268 50.6261C26.8471 48.9886 29.537 47.5145 32.2984 46.1793C32.5781 46.0441 32.9145 46.1612 33.0497 46.4408ZM161.062 49.7103C161.318 49.8868 161.382 50.2372 161.206 50.4928C160.966 50.8403 160.705 51.1694 160.444 51.4759L160.444 51.4762C159.767 52.271 159.043 53.0167 158.28 53.7144C158.051 53.9239 157.695 53.9079 157.485 53.6786C157.276 53.4493 157.292 53.0935 157.521 52.8839C158.251 52.2168 158.942 51.5047 159.588 50.7465C159.831 50.4606 160.067 50.1621 160.28 49.8537C160.456 49.598 160.807 49.5338 161.062 49.7103ZM92.2214 51.8751C92.3372 51.5868 92.6648 51.447 92.9531 51.5628C95.7263 52.6768 98.5592 53.663 101.43 54.5533C101.726 54.6453 101.892 54.9604 101.8 55.2572C101.708 55.5539 101.393 55.7198 101.096 55.6278C98.2017 54.73 95.3395 53.7338 92.5337 52.6067C92.2455 52.4909 92.1056 52.1634 92.2214 51.8751ZM17.6622 56.1415C17.8646 56.3772 17.8377 56.7323 17.6021 56.9347C16.4624 57.9137 15.3606 58.9383 14.3014 60.0115C13.2504 61.0763 12.2452 62.1952 11.2934 63.3612C11.0969 63.6018 10.7426 63.6376 10.5019 63.4412C10.2612 63.2447 10.2254 62.8904 10.4219 62.6497C11.3961 61.4564 12.4249 60.3112 13.5007 59.2212C14.5824 58.1252 15.7068 57.0796 16.869 56.0813C17.1046 55.8789 17.4598 55.9058 17.6622 56.1415ZM153.461 56.5782C153.615 56.8484 153.52 57.1917 153.25 57.345C151.459 58.3602 149.559 59.1954 147.596 59.8605C147.302 59.9602 146.983 59.8025 146.883 59.5083C146.783 59.2141 146.941 58.8947 147.235 58.795C149.136 58.1508 150.971 57.3439 152.695 56.3664C152.965 56.2132 153.308 56.308 153.461 56.5782ZM109.424 57.3708C109.499 57.0694 109.804 56.8861 110.106 56.9614C111.564 57.326 113.027 57.6744 114.49 58.0107L114.49 58.0107C115.476 58.2376 116.465 58.4595 117.455 58.6727C117.759 58.7381 117.952 59.0373 117.887 59.341C117.821 59.6447 117.522 59.8379 117.219 59.7726C116.221 59.558 115.228 59.3349 114.238 59.1071C112.769 58.7694 111.3 58.4194 109.833 58.0529C109.532 57.9776 109.348 57.6722 109.424 57.3708ZM122.765 60.2806C122.815 59.9741 123.105 59.7664 123.411 59.8168C125.408 60.1449 127.409 60.4087 129.411 60.5791C129.72 60.6055 129.95 60.8778 129.923 61.1873C129.897 61.4969 129.625 61.7264 129.315 61.7001C127.279 61.5267 125.249 61.2588 123.229 60.9269C122.922 60.8765 122.715 60.5872 122.765 60.2806ZM142.067 60.7033C142.117 61.0098 141.91 61.2994 141.603 61.35C140.585 61.5182 139.562 61.6468 138.54 61.7367C137.514 61.8271 136.488 61.8821 135.463 61.9057C135.152 61.9129 134.894 61.6669 134.887 61.3563C134.88 61.0457 135.126 60.7882 135.437 60.781C136.439 60.7579 137.441 60.7042 138.442 60.616C139.435 60.5285 140.43 60.4036 141.42 60.24C141.726 60.1894 142.016 60.3968 142.067 60.7033ZM6.06877 70.076C6.34274 70.2224 6.44613 70.5633 6.29968 70.8372C4.87824 73.4965 3.73372 76.2873 2.92601 79.1534C2.84174 79.4524 2.53103 79.6265 2.23202 79.5422C1.93301 79.458 1.75892 79.1473 1.84319 78.8483C2.67435 75.899 3.8504 73.033 5.30752 70.3069C5.45397 70.0329 5.79479 69.9295 6.06877 70.076ZM1.02159 87.4232C1.33217 87.4303 1.57819 87.6878 1.5711 87.9984C1.53714 89.486 1.60334 90.9784 1.77726 92.4687C1.81327 92.7772 1.59231 93.0566 1.28375 93.0926C0.975182 93.1286 0.695849 92.9076 0.65984 92.5991C0.479703 91.0554 0.411275 89.5108 0.446394 87.9727C0.453485 87.6621 0.711008 87.4161 1.02159 87.4232Z" fill="#073F27"/>
<path d="M119.703 11.6762C120.498 13.1912 121.285 14.6987 122.08 16.2137C122.395 16.8212 123.31 16.2812 122.995 15.6812C122.2 14.1662 121.413 12.6587 120.618 11.1437C120.303 10.5362 119.388 11.0762 119.703 11.6762Z" fill="#00477C"/>
<path d="M123.724 12.0365C124.812 14.5265 125.899 17.009 126.987 19.499C127.257 20.1215 128.172 19.5815 127.902 18.9665C126.814 16.4765 125.727 13.994 124.639 11.504C124.369 10.874 123.454 11.414 123.724 12.0365Z" fill="#00477C"/>
<path d="M129.934 15.6589C130.962 17.9014 131.982 20.1514 133.009 22.3939C133.294 23.0164 134.209 22.4764 133.924 21.8614C132.897 19.6189 131.877 17.3689 130.849 15.1264C130.564 14.5039 129.649 15.0439 129.934 15.6589Z" fill="#00477C"/>
<path d="M134.77 17.5414C135.888 20.9089 137.088 24.2464 138.363 27.5539C138.603 28.1839 139.63 27.9139 139.383 27.2689C138.108 23.9614 136.908 20.6239 135.79 17.2564C135.58 16.6114 134.553 16.8889 134.77 17.5414Z" fill="#00477C"/>
<path d="M138.708 20.2864C139.743 23.4364 140.77 26.5864 141.805 29.7364C142.015 30.3814 143.043 30.1039 142.825 29.4514C141.79 26.3014 140.763 23.1514 139.728 20.0014C139.518 19.3639 138.49 19.6414 138.708 20.2864Z" fill="#00477C"/>
<path d="M142.376 20.6389C142.849 22.2589 143.156 23.9014 143.284 25.5889C143.336 26.2639 144.394 26.2714 144.341 25.5889C144.206 23.8114 143.891 22.0714 143.396 20.3614C143.209 19.7089 142.181 19.9864 142.376 20.6389Z" fill="#00477C"/>
</svg>
