<svg width="153" height="95" viewBox="0 0 153 95" fill="none" xmlns="http://www.w3.org/2000/svg">
<path d="M6.75 91.125C6.75 92.989 5.23896 94.5 3.375 94.5C1.51104 94.5 0 92.989 0 91.125C0 89.261 1.51104 87.75 3.375 87.75C5.23896 87.75 6.75 89.261 6.75 91.125Z" fill="#F5DE19"/>
<path d="M36 91.125C36 92.989 34.489 94.5 32.625 94.5C30.761 94.5 29.25 92.989 29.25 91.125C29.25 89.261 30.761 87.75 32.625 87.75C34.489 87.75 36 89.261 36 91.125Z" fill="#F5DE19"/>
<path d="M65.25 91.125C65.25 92.989 63.739 94.5 61.875 94.5C60.011 94.5 58.5 92.989 58.5 91.125C58.5 89.261 60.011 87.75 61.875 87.75C63.739 87.75 65.25 89.261 65.25 91.125Z" fill="#F5DE19"/>
<path d="M94.5 91.125C94.5 92.989 92.989 94.5 91.125 94.5C89.261 94.5 87.75 92.989 87.75 91.125C87.75 89.261 89.261 87.75 91.125 87.75C92.989 87.75 94.5 89.261 94.5 91.125Z" fill="#F5DE19"/>
<path d="M123.75 91.125C123.75 92.989 122.239 94.5 120.375 94.5C118.511 94.5 117 92.989 117 91.125C117 89.261 118.511 87.75 120.375 87.75C122.239 87.75 123.75 89.261 123.75 91.125Z" fill="#F5DE19"/>
<path d="M153 91.125C153 92.989 151.489 94.5 149.625 94.5C147.761 94.5 146.25 92.989 146.25 91.125C146.25 89.261 147.761 87.75 149.625 87.75C151.489 87.75 153 89.261 153 91.125Z" fill="#F5DE19"/>
<path d="M6.75 61.875C6.75 63.739 5.23896 65.25 3.375 65.25C1.51104 65.25 0 63.739 0 61.875C0 60.011 1.51104 58.5 3.375 58.5C5.23896 58.5 6.75 60.011 6.75 61.875Z" fill="#F5DE19"/>
<path d="M36 61.875C36 63.739 34.489 65.25 32.625 65.25C30.761 65.25 29.25 63.739 29.25 61.875C29.25 60.011 30.761 58.5 32.625 58.5C34.489 58.5 36 60.011 36 61.875Z" fill="#F5DE19"/>
<path d="M65.25 61.875C65.25 63.739 63.739 65.25 61.875 65.25C60.011 65.25 58.5 63.739 58.5 61.875C58.5 60.011 60.011 58.5 61.875 58.5C63.739 58.5 65.25 60.011 65.25 61.875Z" fill="#F5DE19"/>
<path d="M94.5 61.875C94.5 63.739 92.989 65.25 91.125 65.25C89.261 65.25 87.75 63.739 87.75 61.875C87.75 60.011 89.261 58.5 91.125 58.5C92.989 58.5 94.5 60.011 94.5 61.875Z" fill="#F5DE19"/>
<path d="M123.75 61.875C123.75 63.739 122.239 65.25 120.375 65.25C118.511 65.25 117 63.739 117 61.875C117 60.011 118.511 58.5 120.375 58.5C122.239 58.5 123.75 60.011 123.75 61.875Z" fill="#F5DE19"/>
<path d="M153 61.875C153 63.739 151.489 65.25 149.625 65.25C147.761 65.25 146.25 63.739 146.25 61.875C146.25 60.011 147.761 58.5 149.625 58.5C151.489 58.5 153 60.011 153 61.875Z" fill="#F5DE19"/>
<path d="M6.75 32.625C6.75 34.489 5.23896 36 3.375 36C1.51104 36 0 34.489 0 32.625C0 30.761 1.51104 29.25 3.375 29.25C5.23896 29.25 6.75 30.761 6.75 32.625Z" fill="#F5DE19"/>
<path d="M36 32.625C36 34.489 34.489 36 32.625 36C30.761 36 29.25 34.489 29.25 32.625C29.25 30.761 30.761 29.25 32.625 29.25C34.489 29.25 36 30.761 36 32.625Z" fill="#F5DE19"/>
<path d="M65.25 32.625C65.25 34.489 63.739 36 61.875 36C60.011 36 58.5 34.489 58.5 32.625C58.5 30.761 60.011 29.25 61.875 29.25C63.739 29.25 65.25 30.761 65.25 32.625Z" fill="#F5DE19"/>
<path d="M94.5 32.625C94.5 34.489 92.989 36 91.125 36C89.261 36 87.75 34.489 87.75 32.625C87.75 30.761 89.261 29.25 91.125 29.25C92.989 29.25 94.5 30.761 94.5 32.625Z" fill="#F5DE19"/>
<path d="M123.75 32.625C123.75 34.489 122.239 36 120.375 36C118.511 36 117 34.489 117 32.625C117 30.761 118.511 29.25 120.375 29.25C122.239 29.25 123.75 30.761 123.75 32.625Z" fill="#F5DE19"/>
<path d="M153 32.625C153 34.489 151.489 36 149.625 36C147.761 36 146.25 34.489 146.25 32.625C146.25 30.761 147.761 29.25 149.625 29.25C151.489 29.25 153 30.761 153 32.625Z" fill="#F5DE19"/>
<path d="M6.75 3.375C6.75 5.23896 5.23896 6.75 3.375 6.75C1.51104 6.75 0 5.23896 0 3.375C0 1.51104 1.51104 0 3.375 0C5.23896 0 6.75 1.51104 6.75 3.375Z" fill="#F5DE19"/>
<path d="M36 3.375C36 5.23896 34.489 6.75 32.625 6.75C30.761 6.75 29.25 5.23896 29.25 3.375C29.25 1.51104 30.761 0 32.625 0C34.489 0 36 1.51104 36 3.375Z" fill="#F5DE19"/>
<path d="M65.25 3.375C65.25 5.23896 63.739 6.75 61.875 6.75C60.011 6.75 58.5 5.23896 58.5 3.375C58.5 1.51104 60.011 0 61.875 0C63.739 0 65.25 1.51104 65.25 3.375Z" fill="#F5DE19"/>
<path d="M94.5 3.375C94.5 5.23896 92.989 6.75 91.125 6.75C89.261 6.75 87.75 5.23896 87.75 3.375C87.75 1.51104 89.261 0 91.125 0C92.989 0 94.5 1.51104 94.5 3.375Z" fill="#F5DE19"/>
<path d="M123.75 3.375C123.75 5.23896 122.239 6.75 120.375 6.75C118.511 6.75 117 5.23896 117 3.375C117 1.51104 118.511 0 120.375 0C122.239 0 123.75 1.51104 123.75 3.375Z" fill="#F5DE19"/>
</svg>
