<svg width="77" height="97" viewBox="0 0 77 97" fill="none" xmlns="http://www.w3.org/2000/svg">
<path d="M76.9905 5.32115L73.875 3.83679L0 39.8151V93.6952C0 94.5618 0.370443 95.1679 0.949855 95.4516L2.9303 96.392C3.53346 96.6756 4.35508 96.6367 5.28119 96.2015L73.6423 63.9069C74.6102 63.3903 75.4156 62.6943 75.9932 61.8754C76.5709 61.0564 76.9044 60.1376 76.9667 59.1935L76.9905 5.32115Z" fill="#E6E6E6"/>
<path opacity="0.15" d="M0 47.0777V93.7069C0 94.5735 0.370443 95.1796 0.949855 95.4633L2.9303 96.4037C3.19547 96.5218 3.49276 96.5832 3.79467 96.5824L1.9567 94.6395V47.9831L0 47.0777Z" fill="black"/>
<path d="M3.82375 96.2637C4.28174 96.2456 4.72643 96.1319 5.11556 95.9334L73.4766 63.6388C74.3873 63.151 75.145 62.4949 75.6887 61.7234C76.2323 60.9519 76.5467 60.0866 76.6064 59.1974V5.86517L2.36572 40.9381V94.6356C2.36572 95.6731 2.91189 96.2637 3.82375 96.2637Z" fill="#FAFAFA"/>
<path d="M76.2214 6.40912V59.1973C76.1584 60.0309 75.8601 60.8411 75.3501 61.5645C74.84 62.288 74.132 62.9048 73.2816 63.3667L4.92054 95.673C4.5906 95.8435 4.21305 95.9425 3.82345 95.9606C2.8736 95.9606 2.75012 95.0435 2.75012 94.6472V41.1168L76.2214 6.40912ZM76.9908 5.32111L1.99023 40.7554V94.6355C1.99023 95.8634 2.74062 96.5784 3.83296 96.5784C4.36008 96.5579 4.87123 96.4238 5.31473 96.1898L73.6758 63.8952C74.6437 63.3786 75.4491 62.6826 76.0268 61.8637C76.6044 61.0447 76.9379 60.1259 77.0003 59.1818V5.32111H76.9908Z" fill="#E0E0E0"/>
<path d="M74.0649 0.199931C73.4618 -0.103159 72.6402 -0.0720717 71.6903 0.370906L3.32449 32.6655C2.35667 33.1813 1.55121 33.8766 0.973559 34.6949C0.395905 35.5132 0.0623498 36.4315 0 37.3751V39.8154L1.98045 40.7557L76.9905 5.32137V2.88111C76.9905 2.01847 76.6201 1.41229 76.0406 1.12863C75.4612 0.844969 74.6064 0.471935 74.0649 0.199931Z" fill="#073F27"/>
<path d="M1.99023 38.3153C2.05408 37.372 2.38827 36.4542 2.96579 35.636C3.54331 34.8179 4.34796 34.1224 5.31473 33.6057L73.6758 1.31112C75.509 0.444593 77.0003 1.14792 77.0003 2.86543V5.30569L1.99023 40.7556V38.3153Z" fill="#073F27"/>
<path opacity="0.3" d="M1.99023 38.3153C2.05408 37.372 2.38827 36.4542 2.96579 35.636C3.54331 34.8179 4.34796 34.1224 5.31473 33.6057L73.6758 1.31112C75.509 0.444593 77.0003 1.14792 77.0003 2.86543V5.30569L1.99023 40.7556V38.3153Z" fill="white"/>
<path d="M76.079 1.144C75.4711 0.837022 74.6542 0.868111 73.7043 1.31109L5.31478 33.6057C4.32426 34.1046 3.50667 34.8029 2.94014 35.6341L0.950195 34.7015C1.51713 33.8686 2.33446 33.1677 3.32483 32.6654L71.6859 0.366844C72.6357 -0.0722483 73.4621 -0.103332 74.0605 0.199758C74.6589 0.502848 75.4853 0.860335 76.0267 1.12457C76.0362 1.13234 76.0505 1.13623 76.079 1.144Z" fill="#073F27"/>
<path opacity="0.45" d="M76.079 1.144C75.4711 0.837022 74.6542 0.868111 73.7043 1.31109L5.31478 33.6057C4.32426 34.1046 3.50667 34.8029 2.94014 35.6341L0.950195 34.7015C1.51713 33.8686 2.33446 33.1677 3.32483 32.6654L71.6859 0.366844C72.6357 -0.0722483 73.4621 -0.103332 74.0605 0.199758C74.6589 0.502848 75.4853 0.860335 76.0267 1.12457C76.0362 1.13234 76.0505 1.13623 76.079 1.144Z" fill="white"/>
<path d="M65.3834 7.10474C65.0427 7.28346 64.7585 7.5255 64.5538 7.81113C64.3491 8.09676 64.2298 8.41791 64.2056 8.74842C64.2056 9.3546 64.7232 9.5994 65.3644 9.3002C65.7028 9.11956 65.9844 8.87628 66.1866 8.59006C66.3887 8.30383 66.5057 7.98269 66.528 7.65263C66.547 7.04645 66.0245 6.80165 65.3834 7.10474Z" fill="#FAFAFA"/>
<path d="M69.4303 5.19299C69.0927 5.37299 68.8117 5.61568 68.6103 5.9013C68.409 6.18692 68.2929 6.50741 68.2715 6.83668C68.2715 7.44286 68.7892 7.68766 69.4303 7.38457C69.7686 7.20477 70.0503 6.96222 70.2524 6.67662C70.4546 6.39102 70.5716 6.07043 70.5939 5.74089C70.6081 5.13471 70.0857 4.8899 69.4303 5.19299Z" fill="#FAFAFA"/>
<path d="M73.5045 3.27726C73.1674 3.45772 72.8868 3.70051 72.6855 3.98604C72.4842 4.27156 72.3678 4.59181 72.3457 4.92094C72.3457 5.52712 72.8634 5.7758 73.5045 5.47271C73.8429 5.29207 74.1246 5.0488 74.3267 4.76258C74.5288 4.47635 74.6458 4.15522 74.6681 3.82515C74.6538 3.22286 74.1457 2.97417 73.5045 3.27726Z" fill="#FAFAFA"/>
<path d="M1.98096 40.7555V47.983L76.991 12.5603V5.32111L1.98096 40.7555Z" fill="#EBEBEB"/>
<path d="M4.99645 41.1325L12.676 37.5226V41.1247L4.9917 44.754L4.99645 41.1325Z" fill="#E0E0E0"/>
<path d="M14.5762 36.6094V38.0315L18.4088 36.2208V34.7986L14.5762 36.6094Z" fill="#E0E0E0"/>
<path d="M14.5762 38.8087V40.2309L18.4088 38.4201V36.9979L14.5762 38.8087Z" fill="#E0E0E0"/>
<path d="M20.3223 33.8932V35.3154L24.1549 33.5046V32.0824L20.3223 33.8932Z" fill="#E0E0E0"/>
<path d="M20.3223 36.0925V37.5147L24.1549 35.7039V34.2817L20.3223 36.0925Z" fill="#E0E0E0"/>
<path d="M26.0732 31.177V32.5992L29.9059 30.7885V29.3663L26.0732 31.177Z" fill="#E0E0E0"/>
<path d="M26.0732 33.3764V34.7986L29.9059 32.9878V31.5656L26.0732 33.3764Z" fill="#E0E0E0"/>
<path d="M43.3184 23.0325V24.4547L47.151 22.6439V21.2217L43.3184 23.0325Z" fill="#E0E0E0"/>
<path d="M43.3184 25.2319V26.654L47.151 24.8433V23.4211L43.3184 25.2319Z" fill="#E0E0E0"/>
<path d="M49.0649 20.3164V21.7386L52.8976 19.9278V18.5056L49.0649 20.3164Z" fill="#E0E0E0"/>
<path d="M49.0649 22.5157V23.9379L52.8976 22.1271V20.705L49.0649 22.5157Z" fill="#E0E0E0"/>
<path d="M54.8115 17.6003L54.8163 19.0224L58.6489 17.2117V15.7895L54.8115 17.6003Z" fill="#E0E0E0"/>
<path d="M54.8115 19.7996L54.8163 21.2218L58.6489 19.411V17.9888L54.8115 19.7996Z" fill="#E0E0E0"/>
<path d="M31.8193 28.4609L41.3986 23.934V27.5555L31.8193 32.0824V28.4609Z" fill="#E0E0E0"/>
<path d="M60.5625 14.884L68.2468 11.2742V14.8763L60.5625 18.5056V14.884Z" fill="#E0E0E0"/>
<path d="M70.147 10.3571V11.7832L73.9796 9.9724V8.54633L70.147 10.3571Z" fill="#E0E0E0"/>
<path d="M70.147 12.5565V13.9826L73.9796 12.1718V10.7457L70.147 12.5565Z" fill="#E0E0E0"/>
<path d="M1.98045 40.7555L0 39.8345V47.0776L1.98045 47.983V40.7555Z" fill="#E0E0E0"/>
<path d="M13.6167 47.5556L22.2129 43.495V46.7357L13.6167 50.8041V47.5556Z" fill="#073F27"/>
<path d="M13.6167 73.5514L22.2129 69.4908V72.7315L13.6167 76.7999V73.5514Z" fill="#073F27"/>
<path d="M13.6167 76.7998L22.2129 72.7431V75.9838L13.6167 80.0484V76.7998Z" fill="#073F27"/>
<path opacity="0.8" d="M13.6167 76.7998L22.2129 72.7431V75.9838L13.6167 80.0484V76.7998Z" fill="white"/>
<path d="M65.2124 49.176L73.8038 45.1154V48.36L65.2124 52.4245V49.176Z" fill="#073F27"/>
<path opacity="0.3" d="M65.2124 49.176L73.8038 45.1154V48.36L65.2124 52.4245V49.176Z" fill="white"/>
<path d="M65.2124 52.4244L73.8038 48.3677V51.6084L65.2124 55.6729V52.4244Z" fill="#073F27"/>
<path opacity="0.4" d="M65.2124 52.4244L73.8038 48.3677V51.6084L65.2124 55.6729V52.4244Z" fill="white"/>
<path d="M65.2124 55.6768L73.8038 51.6162V54.8608L65.2124 58.9253V55.6768Z" fill="#073F27"/>
<path opacity="0.5" d="M65.2124 55.6768L73.8038 51.6162V54.8608L65.2124 58.9253V55.6768Z" fill="white"/>
<path d="M65.2124 58.9254L73.8038 54.8687V58.1094L65.2124 62.1739V58.9254Z" fill="#073F27"/>
<path opacity="0.3" d="M65.2124 58.9254L73.8038 54.8687V58.1094L65.2124 62.1739V58.9254Z" fill="white"/>
<path d="M56.6211 27.2408L65.2125 23.1802V39.4305L56.6211 43.495V27.2408Z" fill="#073F27"/>
<path d="M56.6211 46.7396L65.2125 42.6829V65.4302L56.6211 69.4947V46.7396Z" fill="#073F27"/>
<path d="M22.2129 62.9899L30.8043 58.9293V62.17L22.2129 66.2384V62.9899Z" fill="#073F27"/>
<path opacity="0.3" d="M22.2129 62.9899L30.8043 58.9293V62.17L22.2129 66.2384V62.9899Z" fill="black"/>
<path d="M39.4194 38.6144L48.0109 34.5538V37.7984L39.4194 41.8629V38.6144Z" fill="#073F27"/>
<path opacity="0.6" d="M39.4194 38.6144L48.0109 34.5538V37.7984L39.4194 41.8629V38.6144Z" fill="white"/>
<path d="M4.91601 48.2201L4.81152 48.2667V94.1693L74.0322 61.4783V15.5641L4.91601 48.2201ZM13.4125 89.7046L5.23421 93.567V90.7265L13.4125 86.8641V89.7046ZM13.4125 86.46L5.23421 90.3224V87.478L13.4125 83.6272V86.46ZM13.4125 83.2115L5.23421 87.0739V84.2256L13.4125 80.3632V83.2115ZM13.4125 79.9591L5.23421 83.8215V80.9694L13.4125 77.1108V79.9591ZM13.4125 76.7106L5.23421 80.573V77.7209L13.4125 73.8584V76.7106ZM13.4125 73.4582L5.23421 77.3206V74.4685L13.4125 70.6099V73.4582ZM13.4125 70.2097L5.23421 74.0721V71.22L13.4125 67.3575V70.2097ZM13.4125 66.9612L5.23421 70.8042V67.9676L13.4125 64.109V66.9612ZM13.4125 63.7088L5.23421 67.5712V64.7191L13.4125 60.8566V63.7088ZM13.4125 60.4564L5.23421 64.3188V61.4783L13.4125 57.5926V60.4564ZM13.4125 57.2079L5.23421 61.0898V58.2376L13.4125 54.3752V57.2079ZM13.4125 53.9555L5.23421 57.8179V54.9658L13.4125 51.1072V53.9555ZM13.4125 50.707L5.23421 54.5656V51.7173L13.4125 47.8548V50.707ZM13.4125 47.4507L5.23421 51.3132V48.4688L13.4125 44.6063V47.4507ZM22.0134 85.6401L13.8351 89.5025V86.662L22.0134 82.7996V85.6401ZM22.0134 82.4032L13.8351 86.2657V83.4135L22.0134 79.5511V82.4032ZM22.0134 79.1508L13.8351 83.0133V80.1611L22.0134 76.2987V79.1508ZM22.0134 75.9023L13.8351 79.7648V76.9126L22.0134 73.0502V75.9023ZM22.0134 72.6499L13.8351 76.5124V73.6602L22.0134 69.7978V72.6499ZM22.0134 69.3975L13.8351 73.26V70.4156L22.0134 66.5532V69.3975ZM22.0134 66.1452L13.8351 70.027V67.1788L22.0134 63.3163V66.1452ZM22.0134 62.8967L13.8351 66.7591V63.9108L22.0134 60.0484V62.8967ZM22.0134 59.6443L13.8351 63.5067V60.6546L22.0134 56.7921V59.6443ZM22.0134 56.3958L13.8351 60.2582V57.4061L22.0134 53.5436V56.3958ZM22.0134 53.1434L13.8351 57.0058V54.1537L22.0134 50.2912V53.1434ZM22.0134 49.8949L13.8351 53.7573V50.9052L22.0134 47.0427V49.8949ZM22.0134 46.6425L13.8351 50.5049V47.6528L22.0134 43.7903V46.6425ZM22.0134 43.394L13.8351 47.2564V44.4043L22.0134 40.5418V43.394ZM30.6048 81.5756L22.4123 85.438V82.5975L30.5858 78.7389L30.6048 81.5756ZM30.6048 78.3387L22.4123 82.2012V79.3529L30.5858 75.4904L30.6048 78.3387ZM30.6048 75.0863L22.4123 78.9643V76.1122L30.5858 72.2497L30.6048 75.0863ZM30.6048 71.8378L22.4123 75.7003V72.8481L30.5858 68.9857L30.6048 71.8378ZM30.6048 68.5854L22.4123 72.4479V69.5957L30.6048 65.7527V68.5854ZM30.6048 65.3369L22.4123 69.1994V66.3472L30.5858 62.4848L30.6048 65.3369ZM30.6048 62.0845L22.4123 65.947V63.0948L30.5858 59.2324L30.6048 62.0845ZM30.6048 58.836L22.4123 62.6985V59.8463L30.5858 55.9839L30.6048 58.836ZM30.6048 55.5836L22.4123 59.4461V56.5939L30.5858 52.7315L30.6048 55.5836ZM30.6048 52.3351L22.4123 56.1937V53.3454L30.5858 49.483L30.6048 52.3351ZM30.6048 49.0789L22.4123 52.9297V50.093L30.5858 46.2306L30.6048 49.0789ZM30.6048 45.8304L22.4123 49.6928V46.8445L30.5858 42.9821L30.6048 45.8304ZM30.6048 42.578L22.4123 46.4404V43.6038L30.6048 39.718V42.578ZM30.6048 39.3295L22.4123 43.1919V40.3398L30.5858 36.4773L30.6048 39.3295ZM39.2058 77.5149L31.0323 81.4007V78.5369L39.2058 74.69V77.5149ZM39.2058 74.2781L31.0323 78.1405V75.2884L39.2058 71.4259V74.2781ZM39.2058 71.0257L31.0323 74.8843V72.036L39.2058 68.1735V71.0257ZM39.2058 67.7733L31.0323 71.6358V68.7875L39.2058 64.925V67.7733ZM39.2058 64.5209L31.0323 68.3834V65.5351L39.2058 61.6726V64.5209ZM39.2058 61.2724L31.0323 65.1349V62.2827L39.2058 58.4241V61.2724ZM39.2058 58.02L31.0323 61.8669V59.0303L39.2058 55.1679V58.02ZM39.2058 54.7715L31.0323 58.634V55.7818L39.2058 51.9193V54.7715ZM39.2058 51.5191L31.0323 55.3816V52.5411L39.2058 48.6553V51.5191ZM39.2058 48.2706L31.0323 52.1525V49.3003L39.2058 45.4379V48.2706ZM39.2058 45.0182L31.0323 48.8807V46.0285L39.2058 42.1661V45.0182ZM39.2058 41.7697L31.0323 45.6322V42.78L39.2058 38.9176V41.7697ZM39.2058 38.5173L31.0323 42.3798V39.5276L39.2058 35.6652V38.5173ZM39.2058 35.2688L31.0323 39.1313V36.2791L39.2058 32.4167V35.2688ZM47.8067 73.4543L39.6332 77.3167V74.4763L47.8067 70.6138V73.4543ZM47.8067 70.2136L39.6332 74.076V71.2239L47.8067 67.3614V70.2136ZM47.8067 66.9612L39.6332 70.8275V67.9754L47.8067 64.1129V66.9612ZM47.8067 63.7127L39.6332 67.5751V64.723L47.8067 60.8605V63.7127ZM47.8067 60.4603L39.6332 64.3227V61.4783L47.8067 57.6159V60.4603ZM47.8067 57.2118L39.6332 61.0898V58.2376L47.8067 54.3752V57.2118ZM47.8067 53.9594L39.6332 57.8218V54.9736L47.8067 51.1111V53.9594ZM47.8067 50.707L39.6332 54.5695V51.7212L47.8067 47.8782V50.707ZM47.8067 47.4546L39.6332 51.3171V48.4727L47.8067 44.6063V47.4546ZM47.8067 44.2061L39.6332 48.0686V45.2203L47.8067 41.3578V44.2061ZM47.8067 40.9537L39.6332 44.8162V41.9679L47.8067 38.1054V40.9537ZM47.8067 37.7052L39.6332 41.5677V38.7155L47.8067 34.8531V37.7052ZM47.8067 34.4528L39.6332 38.3153V35.467L47.8067 31.6045V34.4528ZM47.8067 31.2043L39.6332 35.0551V32.2185L47.8067 28.3522V31.2043ZM56.4076 69.3937L48.2294 73.2561V70.4156L56.4076 66.5532V69.3937ZM56.4076 66.149L48.2294 70.027V67.1788L56.4076 63.3163V66.149ZM56.4076 62.9005L48.2294 66.763V63.9108L56.4076 60.0523V62.9005ZM56.4076 59.6482L48.2294 63.5106V60.6585L56.4076 56.8154V59.6482ZM56.4076 56.3996L48.2294 60.2621V57.4099L56.4076 53.5475V56.3996ZM56.4076 53.1473L48.2294 57.0097V54.1576L56.4076 50.2951V53.1473ZM56.4076 49.8988L48.2294 53.7612V50.909L56.4076 47.0466V49.8988ZM56.4076 46.6464L48.2294 50.5088V47.6567L56.4076 43.7942V46.6464ZM56.4076 43.3979L48.2294 47.2603V44.4082L56.4076 40.5457V43.3979ZM56.4076 40.1455L48.2294 43.9924V41.1558L56.4076 37.2933V40.1455ZM56.4076 36.897L48.2294 40.7594V37.9073L56.4076 34.0448V36.897ZM56.4076 33.6446L48.2294 37.5031V34.6665L56.4076 30.7808V33.6446ZM56.4076 30.3883L48.2294 34.2546V31.4064L56.4076 27.5439V30.3883ZM56.4076 27.1398L48.2294 31.0023V28.1579L56.4076 24.2954V27.1398ZM65.0086 65.3291L56.8303 69.1916V66.3511L65.0086 62.4887V65.3291ZM65.0086 62.0884L56.8303 65.9509V63.0987L65.0086 59.2363V62.0884ZM65.0086 58.8399L56.8303 62.7024V59.8502L65.0086 55.9878V58.8399ZM65.0086 55.5875L56.8303 59.45V56.5978L65.0086 52.7354V55.5875ZM65.0086 52.3351L56.8303 56.1976V53.3493L65.0086 49.4869V52.3351ZM65.0086 49.0827L56.8303 52.9297V50.0814L65.0086 46.2189V49.0827ZM65.0086 45.8342L56.8303 49.6967V46.8484L65.0086 42.986V45.8342ZM65.0086 42.5818L56.8303 46.4443V43.6038L65.0086 39.718V42.5818ZM65.0086 39.3333L56.8303 43.2152V40.3631L65.0086 36.5006V39.3333ZM65.0086 36.081L56.8303 39.9434V37.0913L65.0086 33.2288V36.081ZM65.0086 32.8325L56.8303 36.6949V33.8428L65.0086 29.9803V32.8325ZM65.0086 29.5801L56.8303 33.4425V30.5904L65.0086 26.7279V29.5801ZM65.0086 26.3316L56.8303 30.194V27.3419L65.0086 23.4794V26.3316ZM65.0086 23.0792L56.8303 26.9416V24.0934L65.0086 20.2309V23.0792ZM73.6095 61.2646L65.4313 65.1271V62.2866L73.6095 58.4241V61.2646ZM73.6095 58.0239L65.4313 61.8863V59.0342L73.6095 55.1717V58.0239ZM73.6095 54.7754L65.4313 58.6379V55.7857L73.6095 51.9232V54.7754ZM73.6095 51.523L65.4313 55.3855V52.5411L73.6095 48.6553V51.523ZM73.6095 48.2745L65.4313 52.1525V49.3003L73.6095 45.4379V48.2745ZM73.6095 45.0221L65.4313 48.8846V46.0324L73.6095 42.17V45.0221ZM73.6095 41.7736L65.4313 45.6361V42.7839L73.6095 38.9409V41.7736ZM73.6095 38.5212L65.4313 42.3837V39.5315L73.6095 35.6691V38.5212ZM73.6095 35.2727L65.4313 39.1313V36.283L73.6095 32.4206V35.2727ZM73.6095 32.0164L65.4313 35.8789V33.0306L73.6095 29.1682V32.0164ZM73.6095 28.7679L65.4313 32.6304V29.7821L73.6095 25.9197V28.7679ZM73.6095 25.5156L65.4313 29.378V26.5297L73.6095 22.6673V25.5156ZM73.6095 22.267L65.4313 26.1178V23.2657L73.6095 19.4032V22.267ZM73.6095 19.0147L65.4313 22.8771V20.0288L73.6095 16.1664V19.0147Z" fill="#E0E0E0"/>
</svg>
