<svg width="141" height="206" viewBox="0 0 141 206" fill="none" xmlns="http://www.w3.org/2000/svg">
<mask id="path-1-inside-1_184_1351" fill="white">
<path d="M0 19.25C0 8.89466 8.39466 0.5 18.75 0.5H122.25C132.605 0.5 141 8.89466 141 19.25V187.25C141 197.605 132.605 206 122.25 206H18.75C8.39466 206 0 197.605 0 187.25V19.25Z"/>
</mask>
<path d="M0 19.25C0 8.89466 8.39466 0.5 18.75 0.5H122.25C132.605 0.5 141 8.89466 141 19.25V187.25C141 197.605 132.605 206 122.25 206H18.75C8.39466 206 0 197.605 0 187.25V19.25Z" fill="white"/>
<path d="M-0.75 19.25C-0.75 8.48045 7.98045 -0.25 18.75 -0.25H122.25C133.02 -0.25 141.75 8.48045 141.75 19.25H140.25C140.25 9.30887 132.191 1.25 122.25 1.25H18.75C8.80887 1.25 0.75 9.30887 0.75 19.25H-0.75ZM141.75 192.5C141.75 203.27 133.02 212 122.25 212H18.75C7.98045 212 -0.75 203.27 -0.75 192.5L0.75 187.25C0.75 194.292 8.80887 200 18.75 200H122.25C132.191 200 140.25 194.292 140.25 187.25L141.75 192.5ZM18.75 212C7.98045 212 -0.75 203.27 -0.75 192.5V19.25C-0.75 8.48045 7.98045 -0.25 18.75 -0.25V1.25C8.80887 1.25 0.75 9.30887 0.75 19.25V187.25C0.75 194.292 8.80887 200 18.75 200V212ZM122.25 -0.25C133.02 -0.25 141.75 8.48045 141.75 19.25V192.5C141.75 203.27 133.02 212 122.25 212V200C132.191 200 140.25 194.292 140.25 187.25V19.25C140.25 9.30887 132.191 1.25 122.25 1.25V-0.25Z" fill="#F5DE19" mask="url(#path-1-inside-1_184_1351)"/>
<g clip-path="url(#clip0_184_1351)">
<path d="M127.605 123.507H124.68V123.592H127.605V123.507Z" fill="#EBEBEB"/>
<path d="M48.3298 120.035H33.7954V120.119H48.3298V120.035Z" fill="#EBEBEB"/>
<path d="M53.4588 120.035H51.3286V120.119H53.4588V120.035Z" fill="#EBEBEB"/>
<path d="M91.9097 121.455H60.3843V121.539H91.9097V121.455Z" fill="#EBEBEB"/>
<path d="M95.8973 102.169H30.9182C30.4091 102.168 29.9212 101.965 29.5616 101.605C29.202 101.244 29 100.756 29 100.247V8.90472C29.0044 8.3986 29.2084 7.91466 29.5675 7.55803C29.9267 7.20139 30.412 7.00087 30.9182 7H95.8973C96.4069 7 96.8957 7.20245 97.256 7.56281C97.6164 7.92317 97.8188 8.41192 97.8188 8.92154V100.247C97.8188 100.757 97.6164 101.245 97.256 101.606C96.8957 101.966 96.4069 102.169 95.8973 102.169ZM30.9182 7.0673C30.4314 7.0682 29.965 7.26217 29.6211 7.60666C29.2773 7.95114 29.0841 8.41799 29.0841 8.90472V100.247C29.0841 100.734 29.2773 101.201 29.6211 101.545C29.965 101.89 30.4314 102.084 30.9182 102.084H95.8973C96.3843 102.084 96.8512 101.89 97.1955 101.545C97.5399 101.201 97.7338 100.734 97.7347 100.247V8.90472C97.7338 8.41768 97.5399 7.95084 97.1955 7.60645C96.8512 7.26206 96.3843 7.06819 95.8973 7.0673H30.9182Z" fill="#EBEBEB"/>
<path d="M168.69 102.169H103.708C103.198 102.168 102.71 101.965 102.35 101.605C101.99 101.245 101.787 100.756 101.786 100.247V8.90472C101.791 8.39829 101.996 7.91436 102.356 7.55782C102.716 7.20128 103.201 7.00086 103.708 7H168.69C169.196 7.00175 169.68 7.20267 170.039 7.55921C170.397 7.91575 170.601 8.39918 170.605 8.90472V100.247C170.605 100.755 170.403 101.243 170.045 101.603C169.686 101.964 169.199 102.167 168.69 102.169ZM103.708 7.0673C103.221 7.06819 102.754 7.26206 102.409 7.60645C102.065 7.95084 101.871 8.41768 101.87 8.90472V100.247C101.871 100.734 102.065 101.201 102.409 101.545C102.754 101.89 103.221 102.084 103.708 102.084H168.69C169.177 102.084 169.644 101.89 169.988 101.545C170.333 101.201 170.527 100.734 170.528 100.247V8.90472C170.527 8.41768 170.333 7.95084 169.988 7.60645C169.644 7.26206 169.177 7.06819 168.69 7.0673H103.708Z" fill="#EBEBEB"/>
<path d="M62.4367 23.1396H49.9854V27.7668H62.4367V23.1396Z" fill="#F5F5F5"/>
<path d="M76.4832 32.4276H37.0933V117.245H76.4832V32.4276Z" fill="#E0E0E0"/>
<path d="M75.8099 32.4276H36.4199V117.245H75.8099V32.4276Z" fill="#EBEBEB"/>
<path d="M74.1277 34.1102H38.103V117.245H74.1277V34.1102Z" fill="#E0E0E0"/>
<path d="M51.493 40.8945H44.4731V47.9144H51.493V40.8945Z" fill="#F0F0F0"/>
<path d="M59.6239 40.8945H52.604V47.9144H59.6239V40.8945Z" fill="#F0F0F0"/>
<path d="M67.7572 40.8945H60.7373V47.9144H67.7572V40.8945Z" fill="#F0F0F0"/>
<path d="M51.493 49.0586H44.4731V56.0784H51.493V49.0586Z" fill="#F0F0F0"/>
<path d="M59.6239 49.0586H52.604V56.0784H59.6239V49.0586Z" fill="#F0F0F0"/>
<path d="M67.7572 49.0586H60.7373V56.0784H67.7572V49.0586Z" fill="#F0F0F0"/>
<path d="M71.2576 67.638C71.2576 67.9042 71.1787 68.1645 71.0308 68.3858C70.8828 68.6072 70.6726 68.7797 70.4266 68.8816C70.1807 68.9835 69.91 69.0101 69.6489 68.9582C69.3878 68.9063 69.1479 68.7781 68.9597 68.5898C68.7714 68.4016 68.6432 68.1617 68.5913 67.9006C68.5394 67.6395 68.566 67.3688 68.6679 67.1229C68.7698 66.8769 68.9423 66.6667 69.1637 66.5187C69.385 66.3708 69.6453 66.2919 69.9115 66.2919C70.2685 66.2919 70.6109 66.4337 70.8633 66.6862C71.1158 66.9386 71.2576 67.281 71.2576 67.638Z" fill="#F0F0F0"/>
<path d="M51.0459 124.251H48.771L49.4676 121.105L50.1137 118.217L52.9641 117.78L51.9511 121.206L51.0459 124.251Z" fill="#E4897B"/>
<path opacity="0.2" d="M51.9241 121.276L49.4473 121.165L50.1035 118.248L52.9572 117.797L51.9241 121.276Z" fill="black"/>
<path d="M46.3345 124.251H44.0596L44.7562 121.105L45.4023 118.217L48.2526 117.78L47.2397 121.206L46.3345 124.251Z" fill="#E4897B"/>
<path opacity="0.2" d="M47.2126 121.276L44.7358 121.165L45.3921 118.248L48.2458 117.797L47.2126 121.276Z" fill="black"/>
<path d="M42.2153 64.1179C42.2153 64.1179 42.1008 64.3636 41.9158 64.8179C41.061 66.9346 38.7121 73.6314 39.5904 81.3714C40.1086 85.9549 45.1767 94.2064 45.9305 98.699C46.8088 103.935 44.5104 113.169 45.0993 119.927L48.7202 120.243L49.8106 119.57L52.9133 119.109C52.9133 119.109 60.9899 100.742 60.8418 94.3915C60.7274 89.4042 52.9133 71.5248 52.9133 71.5248L53.657 64.9155" fill="#073F27"/>
<path opacity="0.6" d="M52.9133 119.096L50.3793 119.473L49.8106 119.557L48.8818 120.142L48.7202 120.243L45.0993 119.927C44.5104 113.159 46.8088 103.935 45.9305 98.699C45.1767 94.2064 40.1086 85.9549 39.5904 81.3714C38.7121 73.6314 41.061 66.9346 41.9158 64.8179C42.1008 64.3636 42.2153 64.1179 42.2153 64.1179L53.657 64.902L52.9133 71.5113C52.9133 71.5113 60.7274 89.3908 60.8418 94.378C60.9899 100.728 52.9133 119.096 52.9133 119.096Z" fill="white"/>
<path opacity="0.1" d="M50.3794 119.473L49.8107 119.557L48.8819 120.142C49.4742 118.079 54.5759 100.22 54.6667 96.2895C54.7677 92.1132 48.8247 77.2928 48.8247 77.2928L50.3492 74.54L50.1304 78.7297C50.1304 78.7297 55.7537 90.2556 56.1878 96.2895C56.6152 102.074 50.8506 118.17 50.3794 119.473Z" fill="black"/>
<path d="M48.1281 124.154C48.1281 123.901 51.2174 124.1 51.2174 124.1C51.2174 124.1 53.1154 126.028 54.9595 126.455C56.8037 126.883 55.7705 127.993 53.711 127.993H48.6161C47.1556 128 48.0675 126.755 48.1281 124.154Z" fill="#263238"/>
<path d="M51.5641 124.497C51.5532 124.493 51.5437 124.486 51.5371 124.477C51.5354 124.469 51.5354 124.461 51.5371 124.453C51.5351 124.445 51.5351 124.437 51.5371 124.429C51.5353 124.418 51.5353 124.407 51.5371 124.396C51.5371 124.359 51.8097 123.645 52.227 123.47C52.2891 123.441 52.3569 123.426 52.4256 123.426C52.4942 123.426 52.562 123.441 52.6241 123.47C52.7654 123.534 52.8328 123.622 52.8294 123.73C52.8294 123.891 52.5972 124.066 52.3482 124.187C52.5751 124.151 52.8077 124.176 53.0212 124.261C53.0614 124.283 53.0968 124.313 53.1251 124.349C53.1535 124.384 53.1742 124.426 53.1861 124.47C53.2104 124.527 53.2163 124.59 53.2031 124.65C53.1898 124.71 53.158 124.765 53.1121 124.806C53.0326 124.862 52.9362 124.888 52.8395 124.88C52.3953 124.828 51.9636 124.698 51.5641 124.497ZM51.8467 124.446C52.301 124.638 52.8563 124.806 53.0111 124.689C53.0111 124.689 53.0616 124.645 53.0313 124.524C53.0244 124.5 53.0128 124.479 52.9972 124.46C52.9815 124.442 52.9622 124.427 52.9404 124.416C52.8263 124.365 52.7018 124.342 52.577 124.349C52.3308 124.355 52.0859 124.388 51.8467 124.446ZM52.2708 123.622C52.0271 123.784 51.8419 124.02 51.7424 124.295C52.2001 124.12 52.6409 123.881 52.6477 123.743C52.6477 123.699 52.5804 123.659 52.54 123.639C52.4943 123.618 52.4452 123.607 52.3953 123.605C52.3531 123.603 52.3108 123.608 52.2708 123.622Z" fill="#073F27"/>
<path d="M48.7202 119.038L53.8286 118.338L53.4012 120.243L49.1846 120.771L48.7202 119.038Z" fill="#073F27"/>
<path d="M43.4167 124.154C43.4167 123.901 46.506 124.1 46.506 124.1C46.506 124.1 48.4039 126.028 50.2481 126.455C52.0922 126.883 51.0591 127.993 48.9996 127.993H43.9046C42.4441 128 43.3561 126.755 43.4167 124.154Z" fill="#263238"/>
<path d="M46.8526 124.497C46.8417 124.493 46.8323 124.486 46.8257 124.477C46.824 124.469 46.824 124.461 46.8257 124.453C46.8237 124.445 46.8237 124.437 46.8257 124.429C46.8239 124.418 46.8239 124.407 46.8257 124.396C46.8257 124.359 47.0983 123.645 47.5156 123.47C47.5777 123.441 47.6455 123.426 47.7141 123.426C47.7828 123.426 47.8505 123.441 47.9127 123.47C48.054 123.534 48.1213 123.622 48.118 123.73C48.118 123.891 47.8858 124.066 47.6367 124.187C47.8636 124.151 48.0962 124.176 48.3098 124.261C48.35 124.283 48.3854 124.313 48.4137 124.349C48.4421 124.384 48.4628 124.426 48.4747 124.47C48.499 124.527 48.5049 124.59 48.4916 124.65C48.4784 124.71 48.4465 124.765 48.4006 124.806C48.3211 124.862 48.2248 124.888 48.1281 124.88C47.6838 124.828 47.2522 124.698 46.8526 124.497ZM47.1353 124.446C47.5896 124.638 48.1449 124.806 48.2997 124.689C48.2997 124.689 48.3502 124.645 48.3199 124.524C48.313 124.5 48.3014 124.479 48.2858 124.46C48.2701 124.442 48.2508 124.427 48.229 124.416C48.1149 124.365 47.9903 124.342 47.8656 124.349C47.6193 124.355 47.3745 124.388 47.1353 124.446ZM47.5593 123.622C47.3157 123.784 47.1305 124.02 47.031 124.295C47.4887 124.12 47.9295 123.881 47.9362 123.743C47.9362 123.699 47.8689 123.659 47.8286 123.639C47.7829 123.618 47.7338 123.607 47.6838 123.605C47.6417 123.603 47.5994 123.608 47.5593 123.622Z" fill="#073F27"/>
<path d="M44.3521 119.038L49.8104 118.338L49.3528 120.243L44.8501 120.771L44.3521 119.038Z" fill="#073F27"/>
<path d="M64.7324 63.2632L67.4717 61.8969C67.4717 61.8969 67.6534 60.9344 67.9428 60.608C68.2323 60.2816 71.0691 61.1936 71.1129 61.4056C70.9989 62.1502 70.7719 62.8731 70.4398 63.5492C70.2278 63.8151 67.8621 63.2531 67.8621 63.2531L65.4088 64.5184L64.7324 63.2632Z" fill="#E4897B"/>
<path d="M67.492 63.768C67.492 63.768 60.6909 67.2644 58.9747 66.0428C58.0391 65.3698 57.8406 62.6776 57.8574 60.3556C57.8574 58.4475 58.0257 56.812 58.0257 56.812L59.5467 55.2304L61.8587 52.831C63.1812 53.8204 60.1996 61.8464 60.8491 63.068C61.4986 64.2896 66.9065 61.7051 66.9065 61.7051L67.492 63.768Z" fill="#073F27"/>
<mask id="mask0_184_1351" style="mask-type:luminance" maskUnits="userSpaceOnUse" x="57" y="52" width="11" height="15">
<path d="M67.492 63.768C67.492 63.768 60.6909 67.2644 58.9747 66.0428C58.0391 65.3698 57.8406 62.6776 57.8574 60.3556C57.8574 58.4475 58.0257 56.812 58.0257 56.812L59.5467 55.2304L61.8587 52.831C63.1812 53.8204 60.1996 61.8464 60.8491 63.068C61.4986 64.2896 66.9065 61.7051 66.9065 61.7051L67.492 63.768Z" fill="white"/>
</mask>
<g mask="url(#mask0_184_1351)">
<path opacity="0.2" d="M57.7495 60.5811C57.7495 58.7908 57.9077 57.2563 57.9077 57.2563L59.3379 55.7722C59.3278 56.8053 59.1494 59.3562 57.7495 60.5811Z" fill="black"/>
</g>
<path d="M61.0369 37.6235C61.0369 37.6235 64.2541 37.0649 66.3977 39.7099C68.5414 42.355 63.9882 46.5986 63.9882 46.5986C64.0988 47.4099 63.9844 48.2361 63.6574 48.9868C63.3304 49.7375 62.8034 50.384 62.134 50.8556C59.7951 52.5382 53.0041 48.7052 52.1022 45.3164C51.2004 41.9276 56.9818 38.7811 58.6106 39.0537C60.2393 39.3263 61.0369 37.6235 61.0369 37.6235Z" fill="#263238"/>
<path fill-rule="evenodd" clip-rule="evenodd" d="M63.8599 45.9776C63.9928 45.9403 64.1309 46.0177 64.1682 46.1507L63.9277 46.2183C64.1682 46.1507 64.1682 46.1505 64.1682 46.1507L64.1687 46.1523L64.1696 46.1556L64.1727 46.1671C64.1753 46.1768 64.1789 46.1908 64.1834 46.2087C64.1923 46.2444 64.2046 46.296 64.2186 46.3615C64.2465 46.4922 64.2814 46.6785 64.31 46.9041C64.3669 47.3538 64.3998 47.9673 64.2982 48.6105C64.1965 49.254 63.9584 49.9383 63.4644 50.5151C62.9677 51.0951 62.2279 51.5479 61.1574 51.7507C61.0218 51.7764 60.891 51.6873 60.8653 51.5516C60.8396 51.416 60.9287 51.2852 61.0643 51.2595C62.0366 51.0753 62.6702 50.6737 63.0846 50.1899C63.5018 49.7028 63.7125 49.1138 63.8043 48.5324C63.8962 47.9507 63.8672 47.3876 63.814 46.9669C63.7874 46.7574 63.7551 46.5851 63.7296 46.466C63.7169 46.4065 63.7059 46.3604 63.6983 46.3297C63.6944 46.3144 63.6914 46.3029 63.6895 46.2955L63.6873 46.2876L63.6869 46.286" fill="#263238"/>
<path d="M56.6281 61.5166L59.7006 61.9743C59.7006 61.9743 60.5049 61.3214 60.9356 61.2306C61.3664 61.1397 63.1466 63.5862 63.0523 63.7814C62.5098 64.3215 61.8879 64.7754 61.2082 65.1275C60.8717 65.215 59.2294 63.317 59.2294 63.317L56.4531 62.9435L56.6281 61.5166Z" fill="#E4897B"/>
<path d="M42.8783 62.6305L42.3433 64.1684L53.112 67.012L53.7446 65.1982L42.8783 62.6305Z" fill="#263238"/>
<path d="M46.5723 63.1899L46.0425 63.0354L45.2557 65.7329L45.7855 65.8875L46.5723 63.1899Z" fill="#073F27"/>
<path d="M51.1309 64.7074L48.7676 64.1151L48.3184 65.9071L50.6818 66.4995L51.1309 64.7074Z" fill="white"/>
<path d="M53.2246 64.7149L52.6948 64.5603L51.9076 67.2577L52.4374 67.4123L53.2246 64.7149Z" fill="#073F27"/>
<path opacity="0.6" d="M46.5723 63.1899L46.0425 63.0354L45.2557 65.7329L45.7855 65.8875L46.5723 63.1899Z" fill="white"/>
<path opacity="0.6" d="M53.2246 64.7149L52.6948 64.5603L51.9076 67.2577L52.4374 67.4123L53.2246 64.7149Z" fill="white"/>
<path d="M61.9089 52.8646C61.4422 53.4704 61.0081 54.0458 60.6065 54.591C59.0383 56.6909 57.9143 58.1817 57.0663 59.3831C56.1031 60.6794 55.269 62.0669 54.576 63.5257C54.2967 64.1146 54.0208 64.7607 53.7145 65.5179L42.8853 62.6305C44.9279 55.0655 46.6711 51.0945 47.5461 49.1158C47.5536 49.0939 47.5626 49.0725 47.573 49.0518C47.8395 48.4576 48.3091 47.9777 48.8974 47.6983C49.4858 47.4189 50.1544 47.3583 50.7834 47.5274C51.5608 47.7394 52.466 48.0019 53.3141 48.2879C54.8791 48.8713 56.4016 49.5628 57.8706 50.3575C59.2753 51.0948 60.6249 51.9327 61.9089 52.8646Z" fill="#073F27"/>
<path d="M52.3315 48.224C52.3315 48.224 53.506 47.7697 54.1622 47.5005C54.8184 47.2312 58.3149 49.1831 58.3216 49.8326C58.3284 50.482 57.3121 52.2219 57.3121 52.2219C57.3121 52.2219 54.1891 51.67 52.3315 48.224Z" fill="#073F27"/>
<path opacity="0.2" d="M52.3315 48.224C52.3315 48.224 53.506 47.7697 54.1622 47.5005C54.8184 47.2312 58.3149 49.1831 58.3216 49.8326C58.3284 50.482 57.3121 52.2219 57.3121 52.2219C57.3121 52.2219 54.1891 51.67 52.3315 48.224Z" fill="black"/>
<path d="M54.9091 52.4776C53.0885 50.4046 53.2265 48.9845 53.2265 48.9845C55.6125 48.9038 56.4066 45.8178 56.4066 45.8178L58.4729 48.4595C58.1138 48.7534 57.7764 49.0728 57.4633 49.4153C56.1172 50.8993 56.7903 51.5118 56.7903 51.5118C56.5244 52.7065 54.9091 52.4776 54.9091 52.4776Z" fill="#E4897B"/>
<path opacity="0.2" d="M58.4896 48.4595C58.1305 48.7534 57.7931 49.0728 57.4801 49.4153C56.5311 48.086 56.4268 45.8178 56.4268 45.8178L58.4896 48.4595Z" fill="black"/>
<path d="M62.3125 39.6729C64.8465 41.019 64.9373 42.8127 63.7326 45.5183C62.2283 48.9038 60.2698 50.8354 57.4766 48.4528C53.6807 45.2155 58.1093 37.4351 62.3125 39.6729Z" fill="#E4897B"/>
<path d="M62.1711 44.5054C62.173 44.992 62.2329 45.4766 62.3494 45.9491C62.2194 46.0143 62.0738 46.0422 61.9289 46.0297C61.784 46.0173 61.6453 45.9649 61.5283 45.8784L62.1711 44.5054Z" fill="#DE5753"/>
<path d="M60.7343 43.4723C60.6266 43.6843 60.428 43.8088 60.2867 43.7281C60.1454 43.6473 60.1184 43.4285 60.2261 43.2165C60.3338 43.0045 60.529 42.88 60.6703 42.9641C60.8117 43.0483 60.8386 43.2637 60.7343 43.4723Z" fill="#263238"/>
<path d="M60.6064 42.9439L61.155 42.9944C61.155 42.9944 60.7343 43.267 60.6064 42.9439Z" fill="#263238"/>
<path d="M63.3725 44.7477C63.2681 44.9564 63.0662 45.0842 62.9249 45.0001C62.7835 44.916 62.7566 44.7006 62.8643 44.492C62.972 44.2833 63.1705 44.1554 63.3085 44.2362C63.4465 44.317 63.4768 44.5357 63.3725 44.7477Z" fill="#263238"/>
<path d="M63.2549 44.2194L63.8 44.2698C63.8 44.2698 63.3727 44.5391 63.2549 44.2194Z" fill="#263238"/>
<path fill-rule="evenodd" clip-rule="evenodd" d="M60.2294 41.1645C60.5004 41.0798 60.7872 41.0584 61.0677 41.1019C61.3482 41.1454 61.615 41.2526 61.8476 41.4154C62.0116 41.5301 62.0515 41.756 61.9368 41.92C61.822 42.084 61.5961 42.1239 61.4321 42.0091C61.2903 41.9099 61.1277 41.8445 60.9567 41.818C60.7856 41.7915 60.6108 41.8046 60.4456 41.8562C60.2546 41.9159 60.0514 41.8095 59.9917 41.6184C59.932 41.4274 60.0384 41.2242 60.2294 41.1645Z" fill="#263238"/>
<path fill-rule="evenodd" clip-rule="evenodd" d="M63.1857 42.4961C63.2342 42.302 63.4308 42.1839 63.625 42.2323C63.8741 42.2945 64.106 42.4121 64.3034 42.5762C64.5009 42.7404 64.6588 42.9469 64.7654 43.1805C64.8485 43.3626 64.7682 43.5775 64.5862 43.6606C64.4041 43.7437 64.1892 43.6635 64.1061 43.4814C64.0447 43.3469 63.9538 43.228 63.8401 43.1334C63.7264 43.0389 63.5929 42.9712 63.4495 42.9354C63.2553 42.887 63.1372 42.6903 63.1857 42.4961Z" fill="#263238"/>
<path d="M57.2746 42.4661C57.2746 42.4661 59.5663 41.0157 60.2427 39.3162C60.2427 39.3162 66.3506 39.9388 63.8839 45.1616C63.8839 45.1616 66.7847 40.9012 62.484 38.4816C58.1832 36.0621 54.8146 42.4392 56.0497 45.5486C56.0497 45.5352 55.8511 43.378 57.2746 42.4661Z" fill="#263238"/>
<path fill-rule="evenodd" clip-rule="evenodd" d="M62.2669 38.8772C62.4016 38.8467 62.5355 38.9311 62.566 39.0658L62.3222 39.121C62.566 39.0658 62.566 39.066 62.5661 39.0662L62.5662 39.0666L62.5664 39.0676L62.5669 39.0701L62.5683 39.077C62.5694 39.0824 62.5708 39.0896 62.5723 39.0983C62.5753 39.1157 62.5789 39.1396 62.5823 39.1695C62.5891 39.2291 62.5949 39.3127 62.5928 39.4158C62.5885 39.6222 62.5525 39.9071 62.4285 40.2343C62.1782 40.8948 61.5822 41.696 60.2443 42.3728C60.121 42.4352 59.9706 42.3858 59.9083 42.2626C59.846 42.1394 59.8953 41.989 60.0186 41.9267C61.2617 41.2978 61.7611 40.5847 61.9609 40.0572C62.062 39.7905 62.0896 39.563 62.0929 39.4055C62.0945 39.3267 62.09 39.2655 62.0855 39.2258C62.0832 39.206 62.081 39.1916 62.0795 39.1832L62.0781 39.1751L62.0781 39.1751L62.0782 39.1756L62.0783 39.1759C62.048 39.0414 62.1324 38.9077 62.2669 38.8772ZM62.0781 39.1751L62.0779 39.1745L62.0779 39.1744C62.0779 39.1744 62.078 39.1746 62.0781 39.1751Z" fill="#263238"/>
<path d="M57.0997 42.1161L58.1261 44.3371C58.1261 44.3371 57.6415 45.7438 56.6454 45.8448L56.0262 43.3444C56.0262 43.3444 55.2792 46.8813 58.2843 49.0417C61.2894 51.2022 63.4196 46.6861 63.4196 46.6861C63.4196 46.6861 62.6827 45.1818 62.0735 44.9193C61.4644 44.6568 59.7751 44.4011 59.028 44.1352C58.2809 43.8694 57.0997 42.1161 57.0997 42.1161Z" fill="#073F27"/>
<path d="M57.4025 43.2199C57.4672 43.0675 57.501 42.9038 57.5021 42.7383C57.5033 42.5727 57.4717 42.4086 57.4091 42.2554C57.3465 42.1021 57.2543 41.9627 57.1377 41.8453C57.021 41.7278 56.8823 41.6346 56.7295 41.5709C55.9016 41.2344 54.6666 42.6478 56.4131 44.0746C56.679 44.2799 56.9852 44.0915 57.4025 43.2199Z" fill="#E4897B"/>
<path d="M62.3125 39.673C62.3125 39.673 60.7645 42.9944 57.3521 42.1094C53.2264 41.0392 50.7496 44.3977 53.1826 47.2447C53.1826 47.2447 50.6183 44.4886 51.6918 42.1733C52.7653 39.858 56.8002 38.3942 56.8002 38.3942C56.8002 38.3942 57.3151 36.089 60.6972 36.9034C62.6019 37.361 62.3125 39.673 62.3125 39.673Z" fill="#263238"/>
<path d="M54.1687 47.5005C54.1687 47.5005 54.2461 50.472 56.0802 50.6739C57.9142 50.8758 58.3282 49.8326 58.3282 49.8326L58.3517 52.3498C58.3517 52.3498 57.6787 54.7323 54.6735 52.9353C51.6684 51.1383 52.3381 48.224 52.3381 48.224L54.1687 47.5005Z" fill="#073F27"/>
<path opacity="0.2" d="M57.0561 59.3831C56.0928 60.6794 55.2588 62.0669 54.5658 63.5257C52.6409 63.2632 49.0166 62.5666 47.5998 61.0152C45.6345 58.8514 47.5089 50.721 47.5089 50.721L49.0805 51.4209C49.0805 51.4209 48.9762 55.9472 50.9617 57.6197C52.577 58.9826 55.8816 59.309 57.0561 59.3831Z" fill="black"/>
<path d="M48.8251 48.0557C46.8059 49.1595 46.6713 59.0398 48.751 60.8099C50.9822 62.7146 58.3419 63.6132 58.3419 63.6132L58.914 61.4258C58.914 61.4258 51.3759 60.1874 50.6457 58.4913C49.9154 56.7952 49.8818 50.8623 50.114 49.6475C50.3462 48.4326 49.8279 47.5106 48.8251 48.0557Z" fill="#073F27"/>
<path d="M97.1187 91.3224C97.1187 91.3224 95.4731 93.4089 94.6688 93.2271C93.8645 93.0454 91.5997 91.4537 91.5997 91.4537C91.5987 91.254 91.5413 91.0587 91.4341 90.8902C91.327 90.7217 91.1744 90.5869 90.994 90.5013C90.3411 90.1379 87.9282 90.8681 87.8609 91.5109C87.7936 92.1536 87.9451 93.0824 90.6137 92.3286C90.7921 92.2781 93.491 94.9299 94.5779 95.2294C95.6649 95.529 97.9432 93.6512 97.9432 93.6512L97.1187 91.3224Z" fill="#EBB376"/>
<path d="M96.681 81.2436C96.0779 83.4615 95.8762 85.7693 96.0854 88.0582C96.0854 88.0582 95.732 87.5466 104.852 86.9241C104.852 86.9241 105.505 80.2677 101.995 79.911C98.4848 79.5542 96.681 81.2436 96.681 81.2436Z" fill="#263238"/>
<path d="M108.15 89.2192H102.54C101.046 89.2192 99.8345 90.4305 99.8345 91.9248V96.5486C99.8345 98.0429 101.046 99.2543 102.54 99.2543H108.15C109.644 99.2543 110.856 98.0429 110.856 96.5486V91.9248C110.856 90.4305 109.644 89.2192 108.15 89.2192Z" fill="#263238"/>
<path d="M97.3141 90.047C97.3141 90.047 96.005 91.3729 94.5176 92.7392L95.8637 95.2799C95.8637 95.2799 99.1616 94.9771 98.8486 92.8973C98.5357 90.8176 97.3141 90.047 97.3141 90.047Z" fill="#073F27"/>
<path opacity="0.6" d="M97.3141 90.047C97.3141 90.047 96.005 91.3729 94.5176 92.7392L95.8637 95.2799C95.8637 95.2799 99.1616 94.9771 98.8486 92.8973C98.5357 90.8176 97.3141 90.047 97.3141 90.047Z" fill="white"/>
<path d="M102.321 109.303C103.775 119.715 108.493 126.327 108.493 126.327L110.569 125.691C110.569 125.691 105.734 118.288 106.215 108.112L102.321 109.303Z" fill="#EBB376"/>
<path d="M97.7952 108.711C96.9942 119.193 100.195 126.661 100.195 126.661L102.358 126.482C102.358 126.482 99.2153 118.207 101.857 108.377L97.7952 108.711Z" fill="#EBB376"/>
<path d="M99.9556 125.732L102.16 125.594C102.196 125.59 102.233 125.601 102.262 125.623C102.291 125.646 102.31 125.679 102.315 125.715L102.53 127.455C102.534 127.5 102.529 127.546 102.515 127.589C102.501 127.632 102.478 127.672 102.449 127.707C102.419 127.741 102.382 127.769 102.341 127.789C102.3 127.808 102.256 127.82 102.21 127.822C101.44 127.859 101.069 127.822 100.1 127.889C99.2406 127.977 98.3759 128.004 97.5124 127.97C96.6913 127.892 96.7923 127.081 97.1456 127.044C98.0606 126.87 98.915 126.462 99.6258 125.86C99.7193 125.783 99.8348 125.738 99.9556 125.732Z" fill="#263238"/>
<path d="M98.9056 126.035C98.8712 126.004 98.8463 125.963 98.8338 125.919C98.8213 125.874 98.8217 125.827 98.8349 125.782C98.8382 125.753 98.8489 125.725 98.866 125.701C98.883 125.677 98.9059 125.657 98.9325 125.644C99.1681 125.537 99.7469 125.883 99.8142 125.92C99.8269 125.933 99.8342 125.95 99.8344 125.967C99.8328 125.976 99.8289 125.984 99.8229 125.991C99.817 125.997 99.8093 126.002 99.8008 126.004C99.6322 126.058 99.4585 126.093 99.2825 126.109C99.152 126.132 99.0175 126.106 98.9056 126.035ZM98.9729 125.739C98.9591 125.744 98.9471 125.753 98.9382 125.765C98.9293 125.777 98.9239 125.791 98.9224 125.806C98.9156 125.834 98.9161 125.863 98.9237 125.891C98.9314 125.918 98.946 125.944 98.9662 125.964C99.0638 126.052 99.3229 126.045 99.6695 125.964C99.434 125.833 99.0974 125.688 98.9729 125.749V125.739Z" fill="#073F27"/>
<path d="M99.7673 126.008C99.5653 125.907 99.2456 125.513 99.2759 125.298C99.2822 125.259 99.3011 125.223 99.3296 125.196C99.3582 125.168 99.3949 125.151 99.4341 125.146C99.4691 125.141 99.505 125.142 99.5392 125.152C99.5734 125.161 99.6053 125.178 99.6326 125.2C99.8413 125.379 99.8312 125.954 99.8346 125.971C99.8313 125.986 99.823 125.999 99.811 126.008C99.8079 126.009 99.8044 126.01 99.8009 126.01C99.7974 126.01 99.794 126.009 99.7908 126.008C99.7874 126.01 99.7833 126.012 99.779 126.012C99.7748 126.012 99.7707 126.01 99.7673 126.008ZM99.4509 125.244C99.387 125.244 99.3702 125.291 99.3668 125.318C99.418 125.548 99.5507 125.751 99.7403 125.89C99.7516 125.673 99.6926 125.458 99.5721 125.278C99.5592 125.265 99.5439 125.255 99.5271 125.249C99.5103 125.243 99.4924 125.24 99.4745 125.241L99.4509 125.244Z" fill="#073F27"/>
<path d="M108.369 125.732L110.573 125.594C110.609 125.59 110.646 125.601 110.675 125.623C110.704 125.646 110.723 125.679 110.728 125.715L110.943 127.455C110.947 127.5 110.942 127.546 110.928 127.589C110.914 127.632 110.891 127.672 110.862 127.707C110.832 127.741 110.795 127.769 110.754 127.789C110.713 127.808 110.669 127.82 110.623 127.822C109.853 127.859 109.483 127.822 108.513 127.889C107.654 127.977 106.789 128.004 105.925 127.97C105.104 127.892 105.205 127.081 105.559 127.044C106.474 126.87 107.328 126.462 108.039 125.86C108.132 125.783 108.248 125.738 108.369 125.732Z" fill="#263238"/>
<path d="M107.319 126.035C107.284 126.004 107.259 125.963 107.247 125.919C107.234 125.874 107.235 125.827 107.248 125.782C107.251 125.753 107.262 125.725 107.279 125.701C107.296 125.677 107.319 125.657 107.346 125.644C107.581 125.537 108.16 125.883 108.227 125.92C108.24 125.933 108.247 125.95 108.248 125.967C108.246 125.976 108.242 125.984 108.236 125.991C108.23 125.997 108.222 126.002 108.214 126.004C108.045 126.058 107.872 126.093 107.696 126.109C107.565 126.132 107.431 126.106 107.319 126.035ZM107.386 125.739C107.372 125.744 107.36 125.753 107.351 125.765C107.342 125.777 107.337 125.791 107.336 125.806C107.329 125.834 107.329 125.863 107.337 125.891C107.344 125.918 107.359 125.944 107.379 125.964C107.477 126.052 107.736 126.045 108.083 125.964C107.847 125.833 107.511 125.688 107.386 125.749V125.739Z" fill="#073F27"/>
<path d="M108.18 126.008C107.978 125.907 107.659 125.513 107.689 125.298C107.695 125.259 107.714 125.223 107.743 125.196C107.771 125.168 107.808 125.151 107.847 125.146C107.882 125.141 107.918 125.142 107.952 125.152C107.987 125.161 108.018 125.178 108.046 125.2C108.254 125.379 108.244 125.954 108.248 125.971C108.244 125.986 108.236 125.999 108.224 126.008C108.221 126.009 108.217 126.01 108.214 126.01C108.21 126.01 108.207 126.009 108.204 126.008C108.2 126.01 108.196 126.012 108.192 126.012C108.188 126.012 108.184 126.01 108.18 126.008ZM107.864 125.244C107.8 125.244 107.783 125.291 107.78 125.318C107.831 125.548 107.964 125.751 108.153 125.89C108.165 125.673 108.106 125.458 107.985 125.278C107.972 125.265 107.957 125.255 107.94 125.249C107.923 125.243 107.905 125.24 107.888 125.241L107.864 125.244Z" fill="#073F27"/>
<path d="M97.2832 100.271C97.2832 100.271 98.3332 93.2574 97.3135 90.047C97.3135 90.047 98.3668 88.8894 101.907 88.5966C105.447 88.3038 107.147 89.0576 107.147 89.0576C107.793 92.8603 108.098 96.7131 108.059 100.57L97.2832 100.271Z" fill="#073F27"/>
<path opacity="0.7" d="M97.2832 100.271C97.2832 100.271 98.3332 93.2574 97.3135 90.047C97.3135 90.047 98.3668 88.8894 101.907 88.5966C105.447 88.3038 107.147 89.0576 107.147 89.0576C107.793 92.8603 108.098 96.7131 108.059 100.57L97.2832 100.271Z" fill="white"/>
<path d="M105.895 88.5293C105.895 88.5293 103.23 89.9158 104.229 93.7959C105.229 97.676 108.648 98.1976 108.648 98.1976L108.792 97.5245C108.792 97.5245 104.842 96.7337 104.852 93.3517C104.862 89.9696 106.73 88.8995 106.73 88.8995C106.469 88.739 106.189 88.6145 105.895 88.5293Z" fill="#263238"/>
<path d="M99.9349 88.8927C99.0869 89.7206 99.033 95.0948 97.3471 97.8981L97.1216 97.3428C97.1216 97.3428 98.1547 95.5761 98.222 93.7959C98.2893 92.0157 98.4037 90.2254 98.8614 89.1721C99.098 89.0592 99.3433 88.9658 99.595 88.8927C99.7067 88.866 99.8232 88.866 99.9349 88.8927Z" fill="#263238"/>
<path opacity="0.2" d="M99.1244 92.1402C99.1244 92.1402 98.8619 88.8894 102.698 88.7278C106.45 88.5697 104.445 91.982 104.445 91.982L103.435 90.8782L100.861 91.9383L99.9354 91.2888L99.1244 92.1402Z" fill="black"/>
<path d="M98.9258 91.2854C98.9258 91.2854 99.4676 88.1692 102.769 88.0615C106.07 87.9538 104.909 91.282 104.909 91.282L103.587 90.2725L100.807 91.7363L99.7974 90.71L98.9258 91.2854Z" fill="#073F27"/>
<path opacity="0.6" d="M98.9258 91.2854C98.9258 91.2854 99.4676 88.1692 102.769 88.0615C106.07 87.9538 104.909 91.282 104.909 91.282L103.587 90.2725L100.807 91.7363L99.7974 90.71L98.9258 91.2854Z" fill="white"/>
<path d="M104.068 89.1653L101.251 90.6662L100.208 89.6566C100.336 89.5105 100.441 89.346 100.521 89.1687C101.042 88.0043 99.9219 86.9914 99.9219 86.9914L101.09 86.5539L103.657 85.5915C102.688 87.826 104.068 89.1653 104.068 89.1653Z" fill="#EBB376"/>
<path opacity="0.2" d="M103.301 86.5573C103.301 86.5573 102.291 88.9735 100.521 89.172C101.042 88.0077 99.9219 86.9947 99.9219 86.9947L101.09 86.5573H103.301Z" fill="black"/>
<path d="M97.4079 79.6485C97.4079 79.6485 95.1229 82.4551 98.6564 84.2824C102.651 86.3453 97.4079 79.6485 97.4079 79.6485Z" fill="#263238"/>
<path d="M104.798 82.0445C105.071 84.1881 104.347 86.7558 102.658 87.4288C99.5583 88.6572 98.1786 88.2937 97.344 85.9784C96.5835 83.8954 96.671 80.3451 99.1949 79.1841C101.719 78.023 104.418 79.073 104.798 82.0445Z" fill="#EBB376"/>
<path d="M97.3709 81.1224C98.4422 81.2652 99.5322 81.114 100.524 80.6849C100.524 80.6849 101.853 80.6345 101.87 82.1387C101.887 83.643 103.724 84.0939 104.175 85.9986C104.175 85.9986 106.127 85.3559 105.592 81.0921C105.195 77.9827 102.291 77.3332 99.5987 77.9356C97.3036 78.4403 96.0215 80.409 97.3709 81.1224Z" fill="#263238"/>
<path d="M100.091 83.6262C100.134 83.8954 100.027 84.141 99.8482 84.168C99.6699 84.1949 99.4949 83.9963 99.4511 83.7271C99.4074 83.4579 99.5151 83.2156 99.6934 83.1853C99.8718 83.155 100.047 83.3536 100.091 83.6262Z" fill="#263238"/>
<path d="M97.9158 83.8651C97.9562 84.1242 97.8518 84.3598 97.6836 84.3833C97.5153 84.4069 97.3471 84.2218 97.2999 83.9627C97.2528 83.7036 97.3639 83.4714 97.5321 83.4444C97.7004 83.4175 97.8653 83.606 97.9158 83.8651Z" fill="#263238"/>
<path d="M99.0939 82.381C99.0711 82.3672 99.0525 82.3474 99.0401 82.3238C99.0302 82.2926 99.0328 82.2587 99.0472 82.2293C99.0616 82.1999 99.0868 82.1771 99.1175 82.1656C99.3005 82.0946 99.4979 82.0688 99.693 82.0905C99.8882 82.1121 100.075 82.1807 100.238 82.2902C100.264 82.3101 100.28 82.3392 100.285 82.3712C100.289 82.4032 100.281 82.4357 100.262 82.4618C100.241 82.4859 100.212 82.5016 100.18 82.5059C100.149 82.5102 100.117 82.5029 100.09 82.4853C99.9584 82.4006 99.808 82.3493 99.652 82.3358C99.496 82.3223 99.3391 82.3471 99.1949 82.4079C99.1591 82.4115 99.1232 82.402 99.0939 82.381Z" fill="#263238"/>
<path d="M97.0108 82.8353C96.9848 82.8354 96.9592 82.8284 96.9368 82.8151C96.9143 82.7909 96.9019 82.759 96.9019 82.726C96.9019 82.6929 96.9143 82.6611 96.9368 82.6368C97.0641 82.4869 97.2257 82.37 97.408 82.2962C97.5903 82.2224 97.7877 82.1937 97.9834 82.2128C97.9993 82.2148 98.0146 82.22 98.0283 82.2282C98.0421 82.2363 98.0541 82.2471 98.0635 82.2601C98.073 82.273 98.0797 82.2877 98.0833 82.3033C98.0869 82.3189 98.0872 82.335 98.0843 82.3507C98.0793 82.3826 98.0622 82.4113 98.0364 82.4308C98.0107 82.4502 97.9784 82.4589 97.9464 82.4551C97.7903 82.4433 97.6338 82.4696 97.4901 82.5317C97.3465 82.5939 97.2201 82.69 97.1219 82.8118C97.1066 82.8242 97.0885 82.8329 97.0692 82.837C97.0499 82.841 97.0299 82.8405 97.0108 82.8353Z" fill="#263238"/>
<path d="M98.3838 84.1107L98.8482 85.2145C98.575 85.3329 98.2723 85.3658 97.98 85.3088C98.1861 84.9372 98.3229 84.5313 98.3838 84.1107Z" fill="#D58745"/>
<path d="M97.0512 84.9117C97.0512 84.9117 97.3407 85.0463 98.2661 84.6324C98.7069 84.4372 99.6593 85.127 101.086 85.0025L103.146 83.2863L101.503 85.0934C101.67 85.7542 101.936 86.3861 102.291 86.9678C103.018 86.3395 103.668 85.6279 104.229 84.8477C104.229 84.8477 102.765 87.3952 101.248 87.8596C98.4646 88.7177 97.4854 87.5904 97.4854 87.5904C97.0445 87.0923 96.7484 85.7799 97.0512 84.9117Z" fill="#073F27"/>
<path d="M102.671 83.8079C102.671 83.8079 103.008 82.4012 103.741 82.6873C104.475 82.9733 104.751 85.1775 103.741 85.3593C102.732 85.541 102.348 84.592 102.671 83.8079Z" fill="#EBB376"/>
<path d="M105.478 87.4692C105.597 86.9877 105.664 86.4946 105.676 85.9986C105.863 86.4284 105.992 86.881 106.06 87.3447C106.526 87.2297 106.978 87.0614 107.406 86.8433C107.406 86.8433 107.049 78.9653 103.704 78.2418C100.359 77.5183 98.5184 78.3125 98.5184 78.3125C98.5184 78.3125 96.0046 79.2547 96.0921 81.8729C97.2051 81.7019 98.3324 81.6421 99.4573 81.6945L99.851 80.9373L99.9385 81.8729L102.695 82.0984C102.695 82.0984 104.599 83.1079 103.926 87.6409C104.447 87.6246 104.966 87.5672 105.478 87.4692Z" fill="#263238"/>
<path d="M106.063 91.6253C106.063 91.6253 103.216 94.2771 102.53 94.4454C101.843 94.6136 98.919 93.5367 98.919 93.5367C98.919 93.5367 98.5152 93.18 97.7445 93.5367C96.4658 94.1324 95.3889 94.7078 95.8903 95.5794C96.3917 96.451 96.8191 96.8952 97.0614 96.8448C97.3037 96.7943 99.0637 96.1145 99.3565 95.2496C99.3565 95.2496 101.409 96.165 102.722 96.1078C104.034 96.0506 106.726 94.2367 106.726 94.2367L106.063 91.6253Z" fill="#EBB376"/>
<path d="M107.147 89.0576C108.301 89.3941 109.149 91.2686 108.308 93.1935C108.092 93.7348 107.742 94.2121 107.29 94.5802C106.838 94.9482 106.3 95.1949 105.727 95.2968L104.229 93.2776C104.852 92.6914 105.308 91.9506 105.552 91.1306C106.046 89.66 106.578 88.8927 107.147 89.0576Z" fill="#073F27"/>
<path opacity="0.6" d="M107.147 89.0576C108.301 89.3941 109.149 91.2686 108.308 93.1935C108.092 93.7348 107.742 94.2121 107.29 94.5802C106.838 94.9482 106.3 95.1949 105.727 95.2968L104.229 93.2776C104.852 92.6914 105.308 91.9506 105.552 91.1306C106.046 89.66 106.578 88.8927 107.147 89.0576Z" fill="white"/>
<path d="M97.4184 99.2543L97.2871 100.271L108.069 100.405L108.066 99.5538L97.4184 99.2543Z" fill="black"/>
<path d="M97.2833 100.271C96.0987 101.812 94.7661 107.819 95.0286 112.136C95.0286 112.136 96.691 113.217 102.196 113.217C106.729 113.217 109.708 112.284 109.708 112.284C109.092 108.791 108.607 100.806 108.069 100.405L97.2833 100.271Z" fill="#263238"/>
<path d="M99.599 99.5437L99.5619 100.059C99.5601 100.088 99.5642 100.118 99.5739 100.145C99.5836 100.173 99.5988 100.199 99.6185 100.221C99.6383 100.243 99.6622 100.261 99.6889 100.273C99.7156 100.286 99.7445 100.293 99.774 100.294L101.177 100.334C101.177 100.334 101.221 99.8903 101.241 99.6076C101.243 99.578 101.238 99.5484 101.228 99.5205C101.218 99.4926 101.202 99.467 101.182 99.4452C101.162 99.4233 101.138 99.4055 101.111 99.393C101.085 99.3805 101.055 99.3733 101.026 99.372L99.8244 99.3384C99.7675 99.3365 99.7121 99.3569 99.67 99.3953C99.6279 99.4336 99.6024 99.4868 99.599 99.5437Z" fill="white"/>
<path d="M103.701 99.4326V100.57L104.115 100.567V99.436L103.701 99.4326Z" fill="#263238"/>
<path d="M98.5152 99.2879L98.4244 100.405H98.0239L98.1249 99.2543L98.5152 99.2879Z" fill="#263238"/>
<path d="M71.7887 120.408C71.8536 120.276 71.8856 120.13 71.8817 119.983C71.8778 119.836 71.8382 119.692 71.7664 119.563C71.6946 119.435 71.5926 119.326 71.4693 119.246C71.3459 119.165 71.205 119.116 71.0584 119.102C71.185 118.727 71.1938 118.322 71.0838 117.941C70.9737 117.56 70.75 117.222 70.4426 116.972C70.3684 116.904 70.2737 116.863 70.1734 116.854C70.0667 116.865 69.9663 116.91 69.8873 116.982L68.1812 118.207C68.0438 118.291 67.9284 118.406 67.8446 118.544C67.5081 119.217 68.7532 120.085 68.2384 120.64C68.0903 120.802 67.8514 120.835 67.6663 120.95C67.2591 121.206 67.2086 121.761 67.0202 122.202C66.8317 122.643 66.1721 122.982 65.9197 122.575C66.1048 122.155 65.5428 121.791 65.0852 121.737C64.6275 121.683 64.1496 121.657 63.8939 121.229C63.2444 121.795 61.7906 120.22 61.8243 119.573C61.5691 119.621 61.335 119.747 61.1542 119.933C60.9734 120.119 60.8548 120.357 60.8147 120.613C60.7411 121.141 60.7231 121.674 60.7608 122.205C60.744 123.242 60.4243 124.255 60.4243 125.288C60.4411 126.092 60.7608 126.987 61.4877 127.307C61.8546 127.436 62.2439 127.489 62.6319 127.462L71.0214 127.408C71.2225 127.42 71.4238 127.386 71.6103 127.31C71.9906 127.112 72.0714 126.614 72.105 126.19C72.2553 124.366 72.4056 122.543 72.5559 120.721L71.7887 120.408Z" fill="#073F27"/>
<path opacity="0.3" d="M71.7887 120.408C71.8536 120.276 71.8856 120.13 71.8817 119.983C71.8778 119.836 71.8382 119.692 71.7664 119.563C71.6946 119.435 71.5926 119.326 71.4693 119.246C71.3459 119.165 71.205 119.116 71.0584 119.102C71.185 118.727 71.1938 118.322 71.0838 117.941C70.9737 117.56 70.75 117.222 70.4426 116.972C70.3684 116.904 70.2737 116.863 70.1734 116.854C70.0667 116.865 69.9663 116.91 69.8873 116.982L68.1812 118.207C68.0438 118.291 67.9284 118.406 67.8446 118.544C67.5081 119.217 68.7532 120.085 68.2384 120.64C68.0903 120.802 67.8514 120.835 67.6663 120.95C67.2591 121.206 67.2086 121.761 67.0202 122.202C66.8317 122.643 66.1721 122.982 65.9197 122.575C66.1048 122.155 65.5428 121.791 65.0852 121.737C64.6275 121.683 64.1496 121.657 63.8939 121.229C63.2444 121.795 61.7906 120.22 61.8243 119.573C61.5691 119.621 61.335 119.747 61.1542 119.933C60.9734 120.119 60.8548 120.357 60.8147 120.613C60.7411 121.141 60.7231 121.674 60.7608 122.205C60.744 123.242 60.4243 124.255 60.4243 125.288C60.4411 126.092 60.7608 126.987 61.4877 127.307C61.8546 127.436 62.2439 127.489 62.6319 127.462L71.0214 127.408C71.2225 127.42 71.4238 127.386 71.6103 127.31C71.9906 127.112 72.0714 126.614 72.105 126.19C72.2553 124.366 72.4056 122.543 72.5559 120.721L71.7887 120.408Z" fill="white"/>
<path d="M72.2803 111.547H59.2603L59.3679 112.863L59.4453 113.802L59.6439 116.245L59.7549 117.652L59.9064 119.52L59.9703 120.321L59.9905 120.56L60.0679 121.502L60.1722 122.794L60.2362 123.595L60.3035 124.409L60.3809 125.348L60.4381 126.062L60.502 126.863L60.5289 127.199H72.4789L72.5058 126.863L72.5697 126.065L72.6303 125.348L72.7043 124.406L72.7716 123.595L72.8356 122.794L72.9399 121.498L73.0173 120.56L73.0341 120.321L73.1014 119.52L73.2529 117.652L73.3673 116.249L73.5625 113.802L73.6365 112.863L73.7442 111.547H72.2803ZM73.0644 112.409L72.812 112.16H73.0846L73.0644 112.409ZM72.9971 113.21L72.9735 113.526L71.8092 114.687L70.4631 113.341L71.6577 112.146H71.9404L72.9971 113.21ZM72.6774 117.379L71.8226 118.231L70.4765 116.885L71.8226 115.539L72.7447 116.461L72.6774 117.379ZM60.2866 116.484L61.2121 115.562L62.5582 116.908L61.2121 118.254L60.3472 117.379L60.2866 116.484ZM71.3919 115.138L70.0458 116.484L68.6997 115.138L70.0458 113.792L71.3919 115.138ZM69.2886 112.173H70.8198L70.0525 112.937L69.2886 112.173ZM69.6251 116.905L68.279 118.251L66.933 116.905L68.279 115.559L69.6251 116.905ZM65.1864 118.672L66.5325 117.326L67.8786 118.672L66.5325 120.018L65.1864 118.672ZM66.0917 120.442L64.7456 121.788L63.3995 120.442L64.7456 119.096L66.0917 120.442ZM68.2925 119.096L69.6386 120.442L68.2925 121.788L66.9464 120.442L68.2925 119.096ZM66.5258 116.461L65.1797 115.115L66.5258 113.768L67.8719 115.115L66.5258 116.461ZM66.0917 116.891L64.7456 118.237L63.3995 116.891L64.7456 115.545L66.0917 116.891ZM62.9856 116.461L61.6395 115.115L62.9856 113.768L64.3316 115.115L62.9856 116.461ZM62.9856 117.326L64.3316 118.672L62.9856 120.018L61.6395 118.672L62.9856 117.326ZM64.3316 122.198L62.9856 123.544L61.6395 122.198L62.9856 120.852L64.3316 122.198ZM64.7624 122.629L66.1085 123.975L64.7624 125.321L63.4163 123.975L64.7624 122.629ZM65.1965 122.198L66.5426 120.852L67.8887 122.198L66.5426 123.544L65.1965 122.198ZM68.3026 122.629L69.6487 123.975L68.3026 125.321L66.9565 123.975L68.3026 122.629ZM70.0694 124.399L71.4154 125.745L70.5472 126.61H69.6049L68.7401 125.745L70.0694 124.399ZM68.7233 122.198L70.0694 120.852L71.4154 122.198L70.0694 123.544L68.7233 122.198ZM68.7233 118.658L70.0694 117.312L71.4154 118.658L70.0694 120.004L68.7233 118.658ZM69.6049 113.341L68.2589 114.687L66.9128 113.341L68.1074 112.146H68.3901L69.6049 113.341ZM66.5056 112.91L65.7383 112.146H67.2661L66.5056 112.91ZM66.0715 113.341L64.7254 114.687L63.3793 113.341L64.5739 112.146H64.8566L66.0715 113.341ZM63.7158 112.146L62.9519 112.91L62.1914 112.146H63.7158ZM61.3231 112.146L62.5212 113.341L61.1751 114.687L60.0107 113.523L59.9871 113.206L61.0337 112.157L61.3231 112.146ZM60.179 112.146L59.9333 112.392L59.9097 112.146H60.179ZM60.0982 114.455L60.751 115.111L60.2261 115.697L60.0982 114.455ZM60.4616 118.937L60.4112 118.305L60.7477 118.641L60.4583 118.934L60.4616 118.937ZM60.5256 119.742L61.1986 119.069L62.5447 120.415L61.1986 121.761L60.6602 121.222L60.5256 119.742ZM60.7241 122.212V122.155L60.7544 122.185L60.7275 122.212H60.7241ZM60.9563 125.062L60.7881 123.013L61.1852 122.616L62.5313 123.962L61.1852 125.308L60.9563 125.082V125.062ZM61.0808 126.587L61.0539 126.28L61.1852 126.153L61.6193 126.587H61.0808ZM61.6193 125.722L62.9654 124.376L64.3115 125.722L63.4466 126.587H62.5043L61.6193 125.722ZM64.2879 126.587L64.722 126.153L65.1561 126.587H64.2879ZM66.021 126.587L65.1528 125.722L66.4988 124.376L67.8449 125.722L66.9834 126.587H66.021ZM67.8247 126.587L68.2589 126.153L68.693 126.587H67.8247ZM71.9 126.587H71.3616L71.7957 126.153L71.9236 126.28L71.9 126.587ZM72.0245 125.062L71.7957 125.288L70.4496 123.942L71.7957 122.595L72.1894 122.993L72.0245 125.062ZM72.2601 122.151V122.212L72.2332 122.185L72.2668 122.151H72.2601ZM72.3375 121.212L71.7957 121.751L70.4496 120.405L71.7957 119.059L72.4688 119.732L72.3375 121.212ZM72.5192 118.941L72.2265 118.645L72.563 118.308L72.5192 118.941ZM72.886 114.452L72.7851 115.67L72.2265 115.111L72.8995 114.438L72.886 114.452Z" fill="#073F27"/>
<g opacity="0.6">
<path d="M72.2803 111.547H59.2603L59.3679 112.863L59.4453 113.802L59.6439 116.245L59.7549 117.652L59.9064 119.52L59.9703 120.321L59.9905 120.56L60.0679 121.502L60.1722 122.794L60.2362 123.595L60.3035 124.409L60.3809 125.348L60.4381 126.062L60.502 126.863L60.5289 127.199H72.4789L72.5058 126.863L72.5697 126.065L72.6303 125.348L72.7043 124.406L72.7716 123.595L72.8356 122.794L72.9399 121.498L73.0173 120.56L73.0341 120.321L73.1014 119.52L73.2529 117.652L73.3673 116.249L73.5625 113.802L73.6365 112.863L73.7442 111.547H72.2803ZM73.0644 112.409L72.812 112.16H73.0846L73.0644 112.409ZM72.9971 113.21L72.9735 113.526L71.8092 114.687L70.4631 113.341L71.6577 112.146H71.9404L72.9971 113.21ZM72.6774 117.379L71.8226 118.231L70.4765 116.885L71.8226 115.539L72.7447 116.461L72.6774 117.379ZM60.2866 116.484L61.2121 115.562L62.5582 116.908L61.2121 118.254L60.3472 117.379L60.2866 116.484ZM71.3919 115.138L70.0458 116.484L68.6997 115.138L70.0458 113.792L71.3919 115.138ZM69.2886 112.173H70.8198L70.0525 112.937L69.2886 112.173ZM69.6251 116.905L68.279 118.251L66.933 116.905L68.279 115.559L69.6251 116.905ZM65.1864 118.672L66.5325 117.326L67.8786 118.672L66.5325 120.018L65.1864 118.672ZM66.0917 120.442L64.7456 121.788L63.3995 120.442L64.7456 119.096L66.0917 120.442ZM68.2925 119.096L69.6386 120.442L68.2925 121.788L66.9464 120.442L68.2925 119.096ZM66.5258 116.461L65.1797 115.115L66.5258 113.768L67.8719 115.115L66.5258 116.461ZM66.0917 116.891L64.7456 118.237L63.3995 116.891L64.7456 115.545L66.0917 116.891ZM62.9856 116.461L61.6395 115.115L62.9856 113.768L64.3316 115.115L62.9856 116.461ZM62.9856 117.326L64.3316 118.672L62.9856 120.018L61.6395 118.672L62.9856 117.326ZM64.3316 122.198L62.9856 123.544L61.6395 122.198L62.9856 120.852L64.3316 122.198ZM64.7624 122.629L66.1085 123.975L64.7624 125.321L63.4163 123.975L64.7624 122.629ZM65.1965 122.198L66.5426 120.852L67.8887 122.198L66.5426 123.544L65.1965 122.198ZM68.3026 122.629L69.6487 123.975L68.3026 125.321L66.9565 123.975L68.3026 122.629ZM70.0694 124.399L71.4154 125.745L70.5472 126.61H69.6049L68.7401 125.745L70.0694 124.399ZM68.7233 122.198L70.0694 120.852L71.4154 122.198L70.0694 123.544L68.7233 122.198ZM68.7233 118.658L70.0694 117.312L71.4154 118.658L70.0694 120.004L68.7233 118.658ZM69.6049 113.341L68.2589 114.687L66.9128 113.341L68.1074 112.146H68.3901L69.6049 113.341ZM66.5056 112.91L65.7383 112.146H67.2661L66.5056 112.91ZM66.0715 113.341L64.7254 114.687L63.3793 113.341L64.5739 112.146H64.8566L66.0715 113.341ZM63.7158 112.146L62.9519 112.91L62.1914 112.146H63.7158ZM61.3231 112.146L62.5212 113.341L61.1751 114.687L60.0107 113.523L59.9871 113.206L61.0337 112.157L61.3231 112.146ZM60.179 112.146L59.9333 112.392L59.9097 112.146H60.179ZM60.0982 114.455L60.751 115.111L60.2261 115.697L60.0982 114.455ZM60.4616 118.937L60.4112 118.305L60.7477 118.641L60.4583 118.934L60.4616 118.937ZM60.5256 119.742L61.1986 119.069L62.5447 120.415L61.1986 121.761L60.6602 121.222L60.5256 119.742ZM60.7241 122.212V122.155L60.7544 122.185L60.7275 122.212H60.7241ZM60.9563 125.062L60.7881 123.013L61.1852 122.616L62.5313 123.962L61.1852 125.308L60.9563 125.082V125.062ZM61.0808 126.587L61.0539 126.28L61.1852 126.153L61.6193 126.587H61.0808ZM61.6193 125.722L62.9654 124.376L64.3115 125.722L63.4466 126.587H62.5043L61.6193 125.722ZM64.2879 126.587L64.722 126.153L65.1561 126.587H64.2879ZM66.021 126.587L65.1528 125.722L66.4988 124.376L67.8449 125.722L66.9834 126.587H66.021ZM67.8247 126.587L68.2589 126.153L68.693 126.587H67.8247ZM71.9 126.587H71.3616L71.7957 126.153L71.9236 126.28L71.9 126.587ZM72.0245 125.062L71.7957 125.288L70.4496 123.942L71.7957 122.595L72.1894 122.993L72.0245 125.062ZM72.2601 122.151V122.212L72.2332 122.185L72.2668 122.151H72.2601ZM72.3375 121.212L71.7957 121.751L70.4496 120.405L71.7957 119.059L72.4688 119.732L72.3375 121.212ZM72.5192 118.941L72.2265 118.645L72.563 118.308L72.5192 118.941ZM72.886 114.452L72.7851 115.67L72.2265 115.111L72.8995 114.438L72.886 114.452Z" fill="white"/>
</g>
<path d="M58.9809 112.705H74.0301C74.3349 112.705 74.582 112.458 74.582 112.153V111.554C74.582 111.249 74.3349 111.002 74.0301 111.002H58.9809C58.6761 111.002 58.429 111.249 58.429 111.554V112.153C58.429 112.458 58.6761 112.705 58.9809 112.705Z" fill="#073F27"/>
<path d="M72.8657 126.297H60.1452C59.8404 126.297 59.5933 126.544 59.5933 126.849V127.448C59.5933 127.753 59.8404 128 60.1452 128H72.8657C73.1705 128 73.4176 127.753 73.4176 127.448V126.849C73.4176 126.544 73.1705 126.297 72.8657 126.297Z" fill="#073F27"/>
<path d="M99.5351 99.4292V128H97.9265V104.184H89.0793V128H87.4707V104.184H80.0033V128H78.3947V104.184H69.5475V128H67.939V99.4292H99.5351Z" fill="#073F27"/>
<path opacity="0.2" d="M99.5351 99.4292V128H97.9265V104.184H89.0793V128H87.4707V104.184H69.5475V128H67.939V99.4292H99.5351Z" fill="white"/>
<path opacity="0.3" d="M99.535 99.4292V128H97.9265V104.184H89.0793V128H87.4707V99.4292H99.535Z" fill="white"/>
<path d="M90.4353 92.9916H89.2036V93.8665H90.4353V92.9916Z" fill="#073F27"/>
<path opacity="0.4" d="M90.4353 92.9916H89.2036V93.8665H90.4353V92.9916Z" fill="white"/>
<path d="M91.5024 94.0415H91.1659L91.075 93.7622C91.0527 93.6959 91.0102 93.6383 90.9535 93.5972C90.8968 93.5562 90.8287 93.5339 90.7587 93.5334H88.8977C88.8283 93.5346 88.761 93.5572 88.705 93.5982C88.649 93.6392 88.607 93.6965 88.5848 93.7622L88.4906 94.0415H88.154C88.1165 94.0415 88.0806 94.0564 88.0541 94.0829C88.0276 94.1094 88.0127 94.1454 88.0127 94.1829V94.5497H91.664V94.1829C91.6642 94.1625 91.66 94.1423 91.6516 94.1237C91.6433 94.1051 91.631 94.0885 91.6157 94.0751C91.6004 94.0616 91.5823 94.0517 91.5627 94.0459C91.5432 94.0401 91.5226 94.0386 91.5024 94.0415Z" fill="#073F27"/>
<path opacity="0.6" d="M91.5024 94.0415H91.1659L91.075 93.7622C91.0527 93.6959 91.0102 93.6383 90.9535 93.5972C90.8968 93.5562 90.8287 93.5339 90.7587 93.5334H88.8977C88.8283 93.5346 88.761 93.5572 88.705 93.5982C88.649 93.6392 88.607 93.6965 88.5848 93.7622L88.4906 94.0415H88.154C88.1165 94.0415 88.0806 94.0564 88.0541 94.0829C88.0276 94.1094 88.0127 94.1454 88.0127 94.1829V94.5497H91.664V94.1829C91.6642 94.1625 91.66 94.1423 91.6516 94.1237C91.6433 94.1051 91.631 94.0885 91.6157 94.0751C91.6004 94.0616 91.5823 94.0517 91.5627 94.0459C91.5432 94.0401 91.5226 94.0386 91.5024 94.0415Z" fill="white"/>
<path d="M91.5425 94.2367H88.0931C87.7103 94.2367 87.3999 94.5471 87.3999 94.93V98.7394C87.3999 99.1222 87.7103 99.4326 88.0931 99.4326H91.5425C91.9254 99.4326 92.2357 99.1222 92.2357 98.7394V94.93C92.2357 94.5471 91.9254 94.2367 91.5425 94.2367Z" fill="#073F27"/>
<path d="M92.771 92.3421C92.6879 92.2008 92.5694 92.0837 92.4272 92.0023C92.2849 91.9208 92.1239 91.8779 91.96 91.8777H88.5948C88.5111 91.8779 88.4297 91.9057 88.3634 91.9568C88.2971 92.0079 88.2495 92.0794 88.228 92.1604L88.1943 92.295L88.8909 92.9916H90.5735L91.4182 92.3455H92.0913C92.1371 92.3457 92.1823 92.356 92.2236 92.3758C92.2649 92.3956 92.3013 92.4243 92.3302 92.4599L92.5254 92.6921H92.9696L92.771 92.3421Z" fill="#073F27"/>
<path opacity="0.6" d="M92.771 92.3421C92.6879 92.2008 92.5694 92.0837 92.4272 92.0023C92.2849 91.9208 92.1239 91.8779 91.96 91.8777H88.5948C88.5111 91.8779 88.4297 91.9057 88.3634 91.9568C88.2971 92.0079 88.2495 92.0794 88.228 92.1604L88.1943 92.295L88.8909 92.9916H90.5735L91.4182 92.3455H92.0913C92.1371 92.3457 92.1823 92.356 92.2236 92.3758C92.2649 92.3956 92.3013 92.4243 92.3302 92.4599L92.5254 92.6921H92.9696L92.771 92.3421Z" fill="white"/>
<path d="M78.0145 96.8515C78.0145 96.8515 76.7256 95.8958 77.6578 95.2766C78.59 94.6574 78.59 93.8834 78.59 93.8834C78.59 93.8834 79.5995 94.9266 80.1447 94.9703C80.6899 95.0141 82.0528 95.7713 82.0528 96.6126C82.0528 97.4539 78.0145 96.8515 78.0145 96.8515Z" fill="#073F27"/>
<path opacity="0.7" d="M78.0145 96.8515C78.0145 96.8515 76.7256 95.8958 77.6578 95.2766C78.59 94.6574 78.59 93.8834 78.59 93.8834C78.59 93.8834 79.5995 94.9266 80.1447 94.9703C80.6899 95.0141 82.0528 95.7713 82.0528 96.6126C82.0528 97.4539 78.0145 96.8515 78.0145 96.8515Z" fill="white"/>
<path d="M84.4052 96.0203H74.7739V99.4326H84.4052V96.0203Z" fill="#073F27"/>
<path opacity="0.1" d="M84.4052 96.0203H78.3242V99.4326H84.4052V96.0203Z" fill="white"/>
</g>
<rect x="9.375" y="20.375" width="123" height="123" rx="61.5" stroke="#F5DE19" stroke-opacity="0.5" stroke-width="0.75"/>
<path d="M107.465 187.112C107.262 187.112 107.081 187.037 106.921 186.888C106.772 186.739 106.697 186.563 106.697 186.36V180.648H105.433C105.22 180.648 105.038 180.573 104.889 180.424C104.74 180.264 104.665 180.083 104.665 179.88C104.665 179.645 104.745 179.459 104.905 179.32C105.065 179.171 105.252 179.096 105.465 179.096H106.697V177.384C106.697 177.181 106.772 177 106.921 176.84C107.07 176.68 107.252 176.6 107.465 176.6C107.689 176.6 107.87 176.68 108.009 176.84C108.158 176.989 108.233 177.171 108.233 177.384V179.096H109.593C109.806 179.096 109.988 179.171 110.137 179.32C110.286 179.469 110.361 179.656 110.361 179.88C110.361 180.083 110.286 180.264 110.137 180.424C109.988 180.573 109.806 180.648 109.593 180.648H108.233V186.36C108.233 186.563 108.158 186.739 108.009 186.888C107.86 187.037 107.678 187.112 107.465 187.112Z" fill="#073F27"/>
<path d="M98.1537 187.096C97.9511 187.096 97.7697 187.021 97.6097 186.872C97.4604 186.723 97.3857 186.552 97.3857 186.36V179.864C97.3857 179.651 97.4657 179.469 97.6257 179.32C97.7857 179.171 97.9724 179.096 98.1857 179.096C98.3884 179.096 98.5591 179.171 98.6977 179.32C98.8471 179.469 98.9217 179.651 98.9217 179.864V181.08C99.2204 180.44 99.5991 179.955 100.058 179.624C100.516 179.283 101.018 179.112 101.562 179.112C102.159 179.112 102.634 179.251 102.986 179.528C103.338 179.805 103.594 180.264 103.754 180.904C103.914 181.533 103.994 182.408 103.994 183.528L103.978 186.328C103.978 186.531 103.908 186.712 103.77 186.872C103.631 187.021 103.455 187.096 103.242 187.096C103.039 187.096 102.858 187.021 102.698 186.872C102.548 186.712 102.474 186.536 102.474 186.344V183.688C102.474 182.856 102.436 182.216 102.362 181.768C102.287 181.32 102.175 181.016 102.026 180.856C101.876 180.685 101.674 180.6 101.418 180.6C101.098 180.6 100.778 180.739 100.458 181.016C100.138 181.283 99.8391 181.667 99.5617 182.168C99.3164 182.605 99.1457 183.032 99.0497 183.448C98.9537 183.864 98.9057 184.365 98.9057 184.952V186.296C98.9057 186.531 98.8364 186.723 98.6977 186.872C98.5697 187.021 98.3884 187.096 98.1537 187.096Z" fill="#073F27"/>
<path d="M92.9827 187.096C92.2253 187.096 91.5426 186.936 90.9346 186.616C90.3373 186.285 89.868 185.821 89.5266 185.224C89.1853 184.616 89.0146 183.901 89.0146 183.08C89.0146 182.408 89.164 181.768 89.4626 181.16C89.772 180.541 90.1986 180.045 90.7426 179.672C91.2973 179.299 91.9266 179.112 92.6306 179.112C93.2813 179.112 93.836 179.245 94.2946 179.512C94.764 179.768 95.116 180.077 95.3506 180.44C95.5853 180.803 95.7026 181.128 95.7026 181.416C95.7026 181.555 95.66 181.688 95.5746 181.816C95.4893 181.944 95.3667 182.056 95.2066 182.152L90.9186 184.616C91.068 184.947 91.3293 185.203 91.7026 185.384C92.0866 185.565 92.5133 185.656 92.9827 185.656C93.6013 185.656 94.1293 185.427 94.5667 184.968C94.7373 184.797 94.9133 184.712 95.0947 184.712C95.308 184.712 95.484 184.781 95.6227 184.92C95.772 185.059 95.8466 185.229 95.8466 185.432C95.8466 185.603 95.7826 185.763 95.6546 185.912C95.356 186.243 94.956 186.525 94.4547 186.76C93.964 186.984 93.4733 187.096 92.9827 187.096ZM94.1186 181.224C93.9906 181 93.8093 180.835 93.5746 180.728C93.34 180.611 93.0626 180.552 92.7426 180.552C92.1346 180.552 91.6226 180.76 91.2066 181.176C90.8013 181.592 90.5666 182.104 90.5026 182.712C90.4813 182.872 90.4706 183.064 90.4706 183.288L94.1186 181.224Z" fill="#073F27"/>
<path d="M77.56 187.096C77.3573 187.096 77.176 187.021 77.016 186.872C76.8667 186.723 76.792 186.547 76.792 186.344V179.88C76.792 179.677 76.8667 179.501 77.016 179.352C77.176 179.192 77.3573 179.112 77.56 179.112C77.7733 179.112 77.9547 179.192 78.104 179.352C78.2533 179.501 78.328 179.677 78.328 179.88V181C78.9893 179.741 79.8693 179.112 80.968 179.112C81.4053 179.112 81.784 179.24 82.104 179.496C82.4347 179.752 82.6693 180.136 82.808 180.648C83.4907 179.624 84.3227 179.112 85.304 179.112C85.9653 179.112 86.488 179.368 86.872 179.88C87.256 180.381 87.448 181.139 87.448 182.152V186.344C87.448 186.547 87.368 186.723 87.208 186.872C87.0587 187.021 86.8827 187.096 86.68 187.096C86.4667 187.096 86.2853 187.021 86.136 186.872C85.9867 186.723 85.912 186.547 85.912 186.344V182.056C85.912 181.565 85.8427 181.197 85.704 180.952C85.5653 180.707 85.3467 180.584 85.048 180.584C84.7387 180.584 84.4293 180.707 84.12 180.952C83.8107 181.197 83.5547 181.533 83.352 181.96C83.16 182.387 83.064 182.856 83.064 183.368V186.344C83.064 186.557 82.9893 186.739 82.84 186.888C82.6907 187.027 82.5093 187.096 82.296 187.096C82.0933 187.096 81.912 187.021 81.752 186.872C81.6027 186.723 81.528 186.547 81.528 186.344V182.056C81.528 181.544 81.464 181.171 81.336 180.936C81.2187 180.701 81.0213 180.584 80.744 180.584C80.4027 180.584 80.0667 180.723 79.736 181C79.4053 181.267 79.1173 181.592 78.872 181.976C78.68 182.296 78.536 182.616 78.44 182.936C78.3547 183.256 78.312 183.608 78.312 183.992L78.328 186.344C78.328 186.547 78.2533 186.723 78.104 186.872C77.9547 187.021 77.7733 187.096 77.56 187.096Z" fill="#073F27"/>
<path d="M72.299 187.096C71.6803 187.096 71.1417 186.963 70.683 186.696C70.235 186.419 69.8884 186.104 69.643 185.752C69.4084 185.389 69.291 185.096 69.291 184.872C69.291 184.659 69.3657 184.483 69.515 184.344C69.6643 184.195 69.8403 184.12 70.043 184.12C70.2243 184.12 70.3737 184.168 70.491 184.264C70.619 184.36 70.7097 184.488 70.763 184.648C70.8803 184.979 71.0723 185.24 71.339 185.432C71.6057 185.624 71.9363 185.72 72.331 185.72C72.747 185.72 73.0723 185.619 73.307 185.416C73.5417 185.213 73.659 184.984 73.659 184.728C73.659 184.483 73.5577 184.291 73.355 184.152C73.163 184.003 72.7684 183.837 72.171 183.656C71.2964 183.389 70.667 183.075 70.283 182.712C69.899 182.339 69.707 181.853 69.707 181.256C69.707 180.627 69.9577 180.115 70.459 179.72C70.9603 179.315 71.659 179.112 72.555 179.112C73.387 179.112 74.0324 179.293 74.491 179.656C74.9603 180.019 75.195 180.504 75.195 181.112C75.195 181.443 75.1257 181.699 74.987 181.88C74.8483 182.051 74.651 182.136 74.395 182.136C74.171 182.136 73.9897 182.067 73.851 181.928C73.7124 181.789 73.643 181.64 73.643 181.48C73.643 181.427 73.6537 181.363 73.675 181.288C73.707 181.203 73.723 181.139 73.723 181.096C73.723 180.904 73.627 180.749 73.435 180.632C73.2537 180.515 72.971 180.456 72.587 180.456C72.107 180.456 71.7497 180.525 71.515 180.664C71.291 180.803 71.179 180.989 71.179 181.224C71.179 181.469 71.2963 181.672 71.531 181.832C71.7657 181.981 72.187 182.152 72.795 182.344C73.6803 182.621 74.2937 182.925 74.635 183.256C74.987 183.587 75.163 184.051 75.163 184.648C75.163 185.053 75.0403 185.448 74.795 185.832C74.5603 186.205 74.2243 186.509 73.787 186.744C73.3603 186.979 72.8643 187.096 72.299 187.096Z" fill="#073F27"/>
<path d="M65.5021 187.096C64.8835 187.096 64.3448 186.963 63.8861 186.696C63.4381 186.419 63.0915 186.104 62.8461 185.752C62.6115 185.389 62.4941 185.096 62.4941 184.872C62.4941 184.659 62.5688 184.483 62.7181 184.344C62.8675 184.195 63.0435 184.12 63.2461 184.12C63.4275 184.12 63.5768 184.168 63.6941 184.264C63.8221 184.36 63.9128 184.488 63.9661 184.648C64.0835 184.979 64.2755 185.24 64.5421 185.432C64.8088 185.624 65.1395 185.72 65.5341 185.72C65.9501 185.72 66.2755 185.619 66.5101 185.416C66.7448 185.213 66.8621 184.984 66.8621 184.728C66.8621 184.483 66.7608 184.291 66.5581 184.152C66.3661 184.003 65.9715 183.837 65.3741 183.656C64.4995 183.389 63.8701 183.075 63.4861 182.712C63.1021 182.339 62.9101 181.853 62.9101 181.256C62.9101 180.627 63.1608 180.115 63.6621 179.72C64.1635 179.315 64.8621 179.112 65.7581 179.112C66.5901 179.112 67.2355 179.293 67.6941 179.656C68.1635 180.019 68.3981 180.504 68.3981 181.112C68.3981 181.443 68.3288 181.699 68.1901 181.88C68.0515 182.051 67.8541 182.136 67.5981 182.136C67.3741 182.136 67.1928 182.067 67.0541 181.928C66.9155 181.789 66.8461 181.64 66.8461 181.48C66.8461 181.427 66.8568 181.363 66.8781 181.288C66.9101 181.203 66.9261 181.139 66.9261 181.096C66.9261 180.904 66.8301 180.749 66.6381 180.632C66.4568 180.515 66.1741 180.456 65.7901 180.456C65.3101 180.456 64.9528 180.525 64.7181 180.664C64.4941 180.803 64.3821 180.989 64.3821 181.224C64.3821 181.469 64.4995 181.672 64.7341 181.832C64.9688 181.981 65.3901 182.152 65.9981 182.344C66.8835 182.621 67.4968 182.925 67.8381 183.256C68.1901 183.587 68.3661 184.051 68.3661 184.648C68.3661 185.053 68.2435 185.448 67.9981 185.832C67.7635 186.205 67.4275 186.509 66.9901 186.744C66.5635 186.979 66.0675 187.096 65.5021 187.096Z" fill="#073F27"/>
<path d="M58.7951 187.096C58.0378 187.096 57.3551 186.936 56.7471 186.616C56.1498 186.285 55.6805 185.821 55.3391 185.224C54.9978 184.616 54.8271 183.901 54.8271 183.08C54.8271 182.408 54.9765 181.768 55.2751 181.16C55.5845 180.541 56.0111 180.045 56.5551 179.672C57.1098 179.299 57.7391 179.112 58.4431 179.112C59.0938 179.112 59.6485 179.245 60.1071 179.512C60.5765 179.768 60.9285 180.077 61.1631 180.44C61.3978 180.803 61.5152 181.128 61.5152 181.416C61.5152 181.555 61.4725 181.688 61.3871 181.816C61.3018 181.944 61.1791 182.056 61.0191 182.152L56.7311 184.616C56.8805 184.947 57.1418 185.203 57.5151 185.384C57.8991 185.565 58.3258 185.656 58.7951 185.656C59.4138 185.656 59.9418 185.427 60.3791 184.968C60.5498 184.797 60.7258 184.712 60.9071 184.712C61.1205 184.712 61.2965 184.781 61.4351 184.92C61.5845 185.059 61.6592 185.229 61.6592 185.432C61.6592 185.603 61.5951 185.763 61.4671 185.912C61.1685 186.243 60.7685 186.525 60.2671 186.76C59.7765 186.984 59.2858 187.096 58.7951 187.096ZM59.9312 181.224C59.8032 181 59.6218 180.835 59.3871 180.728C59.1525 180.611 58.8751 180.552 58.5551 180.552C57.9471 180.552 57.4351 180.76 57.0191 181.176C56.6138 181.592 56.3791 182.104 56.3151 182.712C56.2938 182.872 56.2831 183.064 56.2831 183.288L59.9312 181.224Z" fill="#073F27"/>
<path d="M50.8459 187.096C50.2272 187.096 49.6886 186.963 49.2299 186.696C48.7819 186.419 48.4352 186.104 48.1899 185.752C47.9552 185.389 47.8379 185.096 47.8379 184.872C47.8379 184.659 47.9126 184.483 48.0619 184.344C48.2112 184.195 48.3872 184.12 48.5899 184.12C48.7712 184.12 48.9206 184.168 49.0379 184.264C49.1659 184.36 49.2566 184.488 49.3099 184.648C49.4272 184.979 49.6192 185.24 49.8859 185.432C50.1526 185.624 50.4832 185.72 50.8779 185.72C51.2939 185.72 51.6192 185.619 51.8539 185.416C52.0886 185.213 52.2059 184.984 52.2059 184.728C52.2059 184.483 52.1046 184.291 51.9019 184.152C51.7099 184.003 51.3152 183.837 50.7179 183.656C49.8432 183.389 49.2139 183.075 48.8299 182.712C48.4459 182.339 48.2539 181.853 48.2539 181.256C48.2539 180.627 48.5046 180.115 49.0059 179.72C49.5072 179.315 50.2059 179.112 51.1019 179.112C51.9339 179.112 52.5792 179.293 53.0379 179.656C53.5072 180.019 53.7419 180.504 53.7419 181.112C53.7419 181.443 53.6726 181.699 53.5339 181.88C53.3952 182.051 53.1979 182.136 52.9419 182.136C52.7179 182.136 52.5366 182.067 52.3979 181.928C52.2592 181.789 52.1899 181.64 52.1899 181.48C52.1899 181.427 52.2006 181.363 52.2219 181.288C52.2539 181.203 52.2699 181.139 52.2699 181.096C52.2699 180.904 52.1739 180.749 51.9819 180.632C51.8006 180.515 51.5179 180.456 51.1339 180.456C50.6539 180.456 50.2966 180.525 50.0619 180.664C49.8379 180.803 49.7259 180.989 49.7259 181.224C49.7259 181.469 49.8432 181.672 50.0779 181.832C50.3126 181.981 50.7339 182.152 51.3419 182.344C52.2272 182.621 52.8406 182.925 53.1819 183.256C53.5339 183.587 53.7099 184.051 53.7099 184.648C53.7099 185.053 53.5872 185.448 53.3419 185.832C53.1072 186.205 52.7712 186.509 52.3339 186.744C51.9072 186.979 51.4112 187.096 50.8459 187.096Z" fill="#073F27"/>
<path d="M44.049 187.096C43.4303 187.096 42.8917 186.963 42.433 186.696C41.985 186.419 41.6383 186.104 41.393 185.752C41.1583 185.389 41.041 185.096 41.041 184.872C41.041 184.659 41.1157 184.483 41.265 184.344C41.4143 184.195 41.5903 184.12 41.793 184.12C41.9743 184.12 42.1237 184.168 42.241 184.264C42.369 184.36 42.4597 184.488 42.513 184.648C42.6303 184.979 42.8223 185.24 43.089 185.432C43.3557 185.624 43.6863 185.72 44.081 185.72C44.497 185.72 44.8223 185.619 45.057 185.416C45.2917 185.213 45.409 184.984 45.409 184.728C45.409 184.483 45.3077 184.291 45.105 184.152C44.913 184.003 44.5183 183.837 43.921 183.656C43.0463 183.389 42.417 183.075 42.033 182.712C41.649 182.339 41.457 181.853 41.457 181.256C41.457 180.627 41.7077 180.115 42.209 179.72C42.7103 179.315 43.409 179.112 44.305 179.112C45.137 179.112 45.7824 179.293 46.241 179.656C46.7103 180.019 46.945 180.504 46.945 181.112C46.945 181.443 46.8757 181.699 46.737 181.88C46.5983 182.051 46.401 182.136 46.145 182.136C45.921 182.136 45.7397 182.067 45.601 181.928C45.4623 181.789 45.393 181.64 45.393 181.48C45.393 181.427 45.4037 181.363 45.425 181.288C45.457 181.203 45.473 181.139 45.473 181.096C45.473 180.904 45.377 180.749 45.185 180.632C45.0037 180.515 44.721 180.456 44.337 180.456C43.857 180.456 43.4997 180.525 43.265 180.664C43.041 180.803 42.929 180.989 42.929 181.224C42.929 181.469 43.0463 181.672 43.281 181.832C43.5157 181.981 43.937 182.152 44.545 182.344C45.4303 182.621 46.0437 182.925 46.385 183.256C46.737 183.587 46.913 184.051 46.913 184.648C46.913 185.053 46.7903 185.448 46.545 185.832C46.3103 186.205 45.9743 186.509 45.537 186.744C45.1103 186.979 44.6143 187.096 44.049 187.096Z" fill="#073F27"/>
<path d="M39.701 187.112C39.317 187.112 39.0664 186.931 38.949 186.568L37.797 183.24L34.533 183.96L33.493 186.584C33.429 186.733 33.333 186.856 33.205 186.952C33.0877 187.048 32.9384 187.096 32.757 187.096C32.5437 187.096 32.357 187.021 32.197 186.872C32.037 186.723 31.957 186.547 31.957 186.344C31.957 186.205 31.9944 186.045 32.069 185.864L32.709 184.264C32.645 184.243 32.597 184.221 32.565 184.2C32.2877 184.061 32.149 183.827 32.149 183.496C32.149 183.304 32.2024 183.139 32.309 183C32.4264 182.861 32.5757 182.771 32.757 182.728L33.349 182.6L35.717 176.584C35.781 176.424 35.8824 176.301 36.021 176.216C36.1597 176.131 36.309 176.088 36.469 176.088C36.6397 176.088 36.789 176.131 36.917 176.216C37.045 176.301 37.141 176.435 37.205 176.616L40.389 185.848C40.3997 185.869 40.421 185.933 40.453 186.04C40.485 186.136 40.501 186.237 40.501 186.344C40.501 186.547 40.4264 186.728 40.277 186.888C40.1277 187.037 39.9357 187.112 39.701 187.112ZM37.269 181.752L36.405 179.176L35.205 182.2L37.269 181.752Z" fill="#073F27"/>
<path d="M83.1599 169.08C82.6159 169.08 82.1252 168.941 81.6879 168.664C81.2612 168.376 80.9199 167.96 80.6639 167.416C80.4186 166.872 80.2959 166.221 80.2959 165.464C80.2959 164.547 80.4399 163.763 80.7279 163.112C81.0159 162.461 81.4159 161.971 81.9279 161.64C82.4399 161.299 83.0319 161.128 83.7039 161.128C84.2372 161.128 84.8079 161.251 85.4159 161.496L85.4959 159.016C85.5066 158.803 85.5866 158.621 85.7359 158.472C85.8959 158.312 86.0826 158.232 86.2959 158.232C86.4986 158.232 86.6746 158.312 86.8239 158.472C86.9839 158.621 87.0586 158.813 87.0479 159.048L86.8239 168.36C86.8132 168.573 86.7332 168.749 86.5839 168.888C86.4346 169.027 86.2532 169.096 86.0399 169.096C85.8372 169.096 85.6612 169.037 85.5119 168.92C85.3732 168.803 85.3039 168.648 85.3039 168.456V168.168C85.0266 168.424 84.7012 168.643 84.3279 168.824C83.9546 168.995 83.5652 169.08 83.1599 169.08ZM83.2879 167.64C83.6506 167.64 83.9866 167.565 84.2959 167.416C84.6159 167.256 84.8666 167.064 85.0479 166.84C85.2292 166.616 85.3252 166.408 85.3359 166.216L85.3999 163.064C85.2079 162.936 84.9626 162.824 84.6639 162.728C84.3652 162.621 84.0772 162.568 83.7999 162.568C83.1492 162.568 82.6586 162.813 82.3279 163.304C81.9972 163.784 81.8319 164.488 81.8319 165.416C81.8319 166.184 81.9599 166.749 82.2159 167.112C82.4826 167.464 82.8399 167.64 83.2879 167.64Z" fill="#073F27"/>
<path d="M77.7944 169.096C77.5917 169.096 77.4104 169.027 77.2504 168.888C77.101 168.739 77.0264 168.568 77.0264 168.376V159.096C77.0264 158.883 77.0957 158.707 77.2344 158.568C77.3837 158.419 77.5704 158.344 77.7944 158.344C77.997 158.344 78.173 158.419 78.3224 158.568C78.4824 158.717 78.5624 158.893 78.5624 159.096V168.376C78.5624 168.568 78.4824 168.739 78.3224 168.888C78.1624 169.027 77.9864 169.096 77.7944 169.096Z" fill="#073F27"/>
<path d="M73.9997 160.44C73.7971 160.44 73.6157 160.36 73.4557 160.2C73.3064 160.04 73.2371 159.859 73.2477 159.656L73.2637 159.064C73.2744 158.861 73.3544 158.685 73.5037 158.536C73.6531 158.387 73.8291 158.312 74.0317 158.312C74.2344 158.312 74.4104 158.392 74.5597 158.552C74.7197 158.712 74.7944 158.888 74.7837 159.08L74.7677 159.688C74.7571 159.901 74.6771 160.083 74.5277 160.232C74.3891 160.371 74.2131 160.44 73.9997 160.44ZM73.9197 169.096C73.7064 169.096 73.5197 169.021 73.3597 168.872C73.2104 168.712 73.1357 168.525 73.1357 168.312L73.2157 161.944C73.2157 161.731 73.2904 161.549 73.4397 161.4C73.5997 161.24 73.7864 161.16 73.9997 161.16C74.2237 161.16 74.4104 161.24 74.5597 161.4C74.7091 161.549 74.7837 161.731 74.7837 161.944L74.7037 168.312C74.7037 168.525 74.6237 168.712 74.4637 168.872C74.3144 169.021 74.1331 169.096 73.9197 169.096Z" fill="#073F27"/>
<path d="M65.4506 169.112C65.248 169.112 65.0666 169.037 64.9066 168.888C64.7573 168.728 64.6826 168.547 64.6826 168.344V159.128C64.6826 158.915 64.7573 158.733 64.9066 158.584C65.0666 158.424 65.2586 158.344 65.4826 158.344C65.6959 158.344 65.872 158.424 66.0106 158.584C66.1493 158.733 66.2186 158.915 66.2186 159.128V162.568C66.5706 162.12 66.9706 161.763 67.4186 161.496C67.8666 161.219 68.3146 161.08 68.7626 161.08C69.6053 161.08 70.1973 161.507 70.5386 162.36C70.88 163.203 71.0506 164.541 71.0506 166.376C71.0506 167.411 71.0346 168.077 71.0026 168.376C70.992 168.579 70.912 168.749 70.7626 168.888C70.624 169.027 70.4533 169.096 70.2506 169.096C70.0266 169.096 69.8453 169.027 69.7066 168.888C69.568 168.739 69.4986 168.557 69.4986 168.344C69.4986 168.131 69.504 167.955 69.5146 167.816L69.5306 166.488C69.5306 164.941 69.4453 163.907 69.2746 163.384C69.1146 162.861 68.912 162.6 68.6666 162.6C68.3573 162.6 68.0426 162.744 67.7226 163.032C67.4026 163.309 67.1253 163.624 66.8906 163.976C66.6666 164.317 66.5066 164.589 66.4106 164.792C66.2826 165.08 66.2186 165.459 66.2186 165.928V168.312C66.2186 168.557 66.144 168.755 65.9946 168.904C65.8453 169.043 65.664 169.112 65.4506 169.112Z" fill="#073F27"/>
<path d="M59.2653 169.096C58.4119 169.096 57.6279 168.904 56.9133 168.52C56.1986 168.136 55.6333 167.581 55.2173 166.856C54.8013 166.12 54.5933 165.261 54.5933 164.28C54.5933 163.245 54.8333 162.259 55.3133 161.32C55.8039 160.371 56.4333 159.613 57.2013 159.048C57.9799 158.472 58.7746 158.184 59.5853 158.184C59.9266 158.184 60.2626 158.237 60.5933 158.344C60.9346 158.451 61.2386 158.584 61.5053 158.744C61.6333 158.616 61.7933 158.552 61.9853 158.552C62.1986 158.552 62.3746 158.627 62.5133 158.776C62.6519 158.915 62.7213 159.085 62.7213 159.288V160.312C62.7213 160.525 62.6413 160.712 62.4813 160.872C62.3319 161.032 62.1453 161.112 61.9213 161.112C61.7079 161.112 61.5266 161.048 61.3773 160.92C61.2386 160.792 61.1693 160.643 61.1693 160.472V160.36C60.7746 159.944 60.2093 159.736 59.4733 159.736C58.9399 159.736 58.4173 159.955 57.9053 160.392C57.3933 160.819 56.9773 161.384 56.6573 162.088C56.3479 162.792 56.1933 163.523 56.1933 164.28C56.1933 164.952 56.3319 165.539 56.6093 166.04C56.8866 166.531 57.2546 166.909 57.7133 167.176C58.1826 167.432 58.6999 167.56 59.2653 167.56C60.2999 167.56 61.1533 167.117 61.8253 166.232C61.9213 166.115 62.0173 166.035 62.1133 165.992C62.2093 165.939 62.3213 165.912 62.4493 165.912C62.6733 165.912 62.8599 165.987 63.0093 166.136C63.1693 166.275 63.2493 166.467 63.2493 166.712C63.2493 166.893 63.2013 167.053 63.1053 167.192C62.6679 167.811 62.1133 168.285 61.4413 168.616C60.7799 168.936 60.0546 169.096 59.2653 169.096Z" fill="#073F27"/>
<defs>
<clipPath id="clip0_184_1351">
<rect x="9" y="20" width="123.75" height="123.75" rx="61.875" fill="white"/>
</clipPath>
</defs>
</svg>
