<svg width="113" height="71" viewBox="0 0 113 71" fill="none" xmlns="http://www.w3.org/2000/svg">
<path d="M112.138 0.59729H1.23682V70H112.138V0.59729Z" fill="white"/>
<path fill-rule="evenodd" clip-rule="evenodd" d="M0.736816 0.09729H112.638V70.5H0.736816V0.09729ZM1.73682 1.09729V69.5H111.638V1.09729H1.73682Z" fill="#263238"/>
<path fill-rule="evenodd" clip-rule="evenodd" d="M1.56396 0.97168H111.807V69.6189H1.56396V0.97168ZM6.56396 5.97168V64.6189H106.807V5.97168H6.56396Z" fill="#073F27"/>
<path fill-rule="evenodd" clip-rule="evenodd" d="M6.25293 6.15607H107.118V64.4413H6.25293V6.15607ZM7.25293 7.15607V63.4413H106.118V7.15607H7.25293Z" fill="#073F27"/>
<path d="M39.9847 13.3584V13.9481H39.2905V13.3213C39.2905 12.7316 39.058 12.3778 38.5256 12.3778C37.9932 12.3778 37.7607 12.7148 37.7607 13.3213V16.7787C37.7607 17.365 38.0033 17.7222 38.5256 17.7222C39.0479 17.7222 39.2905 17.365 39.2905 16.7787V15.9261H39.9847V16.7281C39.9847 17.7188 39.5163 18.3726 38.5054 18.3726C37.4945 18.3726 37.0396 17.7188 37.0396 16.7281V13.3584C37.0396 12.3677 37.5079 11.714 38.5054 11.714C39.5028 11.714 39.9847 12.3643 39.9847 13.3584Z" fill="#263238"/>
<path d="M42.9744 14.6726V15.3263H41.3738V17.6514H43.3384V18.3254H40.6426V11.7747H43.3384V12.4486H41.3738V14.6827L42.9744 14.6726Z" fill="#263238"/>
<path d="M45.4679 11.7747C46.4956 11.7747 46.9236 12.3003 46.9236 13.2708V13.8032C46.9236 14.5243 46.6709 14.9725 46.1115 15.1511C46.7079 15.3297 46.9337 15.8251 46.9337 16.5158V17.5268C46.9123 17.7953 46.9574 18.065 47.0651 18.3119H46.3272C46.2236 18.0615 46.182 17.7899 46.2058 17.52V16.4923C46.2058 15.7509 45.8689 15.5184 45.2522 15.5184H44.7366V18.3119H44.0088V11.7747H45.4679ZM45.2792 14.8579C45.8588 14.8579 46.2058 14.6726 46.2058 13.9616V13.3348C46.2058 12.7485 45.9902 12.4385 45.4477 12.4385H44.7366V14.8579H45.2792Z" fill="#263238"/>
<path d="M48.642 18.3153V12.4385H47.439V11.7645H50.5762V12.4385H49.3732V18.3153H48.642Z" fill="#263238"/>
<path d="M51.8099 11.7747V18.3153H51.082V11.7747H51.8099Z" fill="#263238"/>
<path d="M54.7917 14.8209V15.4948H53.2855V18.3254H52.5576V11.7747H55.1557V12.4486H53.2855V14.831L54.7917 14.8209Z" fill="#263238"/>
<path d="M56.4632 11.7747V18.3153H55.7319V11.7747H56.4632Z" fill="#263238"/>
<path d="M60.0959 13.3584V13.9481H59.395V13.3213C59.395 12.7316 59.1625 12.3778 58.6301 12.3778C58.0977 12.3778 57.8618 12.7148 57.8618 13.3213V16.7787C57.8618 17.365 58.1044 17.7222 58.6301 17.7222C59.1558 17.7222 59.395 17.365 59.395 16.7787V15.9261H60.0858V16.7281C60.0858 17.7188 59.6208 18.3726 58.6099 18.3726C57.599 18.3726 57.144 17.7188 57.144 16.7281V13.3584C57.144 12.3677 57.6091 11.714 58.6099 11.714C59.6107 11.714 60.0959 12.3643 60.0959 13.3584Z" fill="#263238"/>
<path d="M61.4975 16.9977L61.2447 18.3153H60.5708L61.821 11.7747H62.8757L64.1292 18.3153H63.4047L63.152 16.9977H61.4975ZM61.5918 16.371H63.0475L62.3096 12.5969L61.5918 16.371Z" fill="#263238"/>
<path d="M65.6561 18.3153V12.4385H64.4497V11.7645H67.5903V12.4385H66.3839V18.3153H65.6561Z" fill="#263238"/>
<path d="M68.8299 11.7747V18.3153H68.1021V11.7747H68.8299Z" fill="#263238"/>
<path d="M69.5039 13.3584C69.5039 12.3475 69.9993 11.714 70.9967 11.714C71.9941 11.714 72.503 12.3576 72.503 13.3584V16.7281C72.503 17.7188 72.0076 18.3726 70.9967 18.3726C69.9858 18.3726 69.5039 17.739 69.5039 16.7281V13.3584ZM70.2217 16.7787C70.2217 17.3751 70.4744 17.7222 70.9967 17.7222C71.519 17.7222 71.7717 17.3852 71.7717 16.7787V13.318C71.7717 12.7283 71.5291 12.3745 70.9967 12.3745C70.4643 12.3745 70.2217 12.7114 70.2217 13.318V16.7787Z" fill="#263238"/>
<path d="M73.8473 18.3153H73.2104V11.7747H74.1337L75.6468 16.4923V11.7747H76.2937V18.3153H75.5356L73.8507 13.0282L73.8473 18.3153Z" fill="#263238"/>
<path fill-rule="evenodd" clip-rule="evenodd" d="M82.3491 22.4612H32.1841V21.4612H82.3491V22.4612Z" fill="#263238"/>
<path fill-rule="evenodd" clip-rule="evenodd" d="M103.336 28.8604H99.8647V27.8604H103.336V28.8604Z" fill="#263238"/>
<path fill-rule="evenodd" clip-rule="evenodd" d="M98.0322 28.8604H70.168V27.8604H98.0322V28.8604Z" fill="#263238"/>
<path fill-rule="evenodd" clip-rule="evenodd" d="M68.5774 28.8604H54.0371V27.8604H68.5774V28.8604Z" fill="#263238"/>
<path fill-rule="evenodd" clip-rule="evenodd" d="M52.5682 28.8604H32.4038V27.8604H52.5682V28.8604Z" fill="#263238"/>
<path fill-rule="evenodd" clip-rule="evenodd" d="M30.324 28.8604H19.3252V27.8604H30.324V28.8604Z" fill="#263238"/>
<path fill-rule="evenodd" clip-rule="evenodd" d="M17.7384 28.8604H11.1978V27.8604H17.7384V28.8604Z" fill="#263238"/>
<path fill-rule="evenodd" clip-rule="evenodd" d="M103.336 31.9302H52.9351V30.9302H103.336V31.9302Z" fill="#263238"/>
<path fill-rule="evenodd" clip-rule="evenodd" d="M51.3475 31.9302H13.8257V30.9302H51.3475V31.9302Z" fill="#263238"/>
<path fill-rule="evenodd" clip-rule="evenodd" d="M12.3603 31.9302H11.1978V30.9302H12.3603V31.9302Z" fill="#263238"/>
<path fill-rule="evenodd" clip-rule="evenodd" d="M103.336 35.0001H99.498V34.0001H103.336V35.0001Z" fill="#263238"/>
<path fill-rule="evenodd" clip-rule="evenodd" d="M97.6646 35.0001H78.8447V34.0001H97.6646V35.0001Z" fill="#263238"/>
<path fill-rule="evenodd" clip-rule="evenodd" d="M77.3788 35.0001H50.3672V34.0001H77.3788V35.0001Z" fill="#263238"/>
<path fill-rule="evenodd" clip-rule="evenodd" d="M48.7801 35.0001H46.2124V34.0001H48.7801V35.0001Z" fill="#263238"/>
<path fill-rule="evenodd" clip-rule="evenodd" d="M44.0121 35.0001H11.1978V34.0001H44.0121V35.0001Z" fill="#263238"/>
<path fill-rule="evenodd" clip-rule="evenodd" d="M103.336 38.0732H88.0103V37.0732H103.336V38.0732Z" fill="#263238"/>
<path fill-rule="evenodd" clip-rule="evenodd" d="M86.5446 38.0732H33.2593V37.0732H86.5446V38.0732Z" fill="#263238"/>
<path fill-rule="evenodd" clip-rule="evenodd" d="M31.3047 38.0732H28.3696V37.0732H31.3047V38.0732Z" fill="#263238"/>
<path fill-rule="evenodd" clip-rule="evenodd" d="M26.7827 38.0732H11.1978V37.0732H26.7827V38.0732Z" fill="#263238"/>
<path fill-rule="evenodd" clip-rule="evenodd" d="M103.336 41.143H93.7559V40.143H103.336V41.143Z" fill="#263238"/>
<path fill-rule="evenodd" clip-rule="evenodd" d="M91.8016 41.143H52.814V40.143H91.8016V41.143Z" fill="#263238"/>
<path fill-rule="evenodd" clip-rule="evenodd" d="M50.9804 41.143H37.168V40.143H50.9804V41.143Z" fill="#263238"/>
<path fill-rule="evenodd" clip-rule="evenodd" d="M35.3351 41.143H15.292V40.143H35.3351V41.143Z" fill="#263238"/>
<path fill-rule="evenodd" clip-rule="evenodd" d="M14.0721 41.143H11.1978V40.143H14.0721V41.143Z" fill="#263238"/>
<path d="M14.9209 54.1691L18.0817 62.3811L19.6115 58.6677L23.3283 60.1807L19.6958 52.4708L14.9209 54.1691Z" fill="#263238"/>
<path fill-rule="evenodd" clip-rule="evenodd" d="M19.5282 51.9997C19.7705 51.9136 20.0385 52.0251 20.1481 52.2577L23.7807 59.9676C23.8685 60.154 23.833 60.3751 23.6913 60.5246C23.5496 60.6742 23.3306 60.7215 23.1398 60.6438L19.8842 59.3185L18.544 62.5716C18.466 62.7609 18.2805 62.8835 18.0758 62.8811C17.8712 62.8787 17.6886 62.7518 17.6151 62.5607L14.4543 54.3487C14.4058 54.2229 14.4103 54.0828 14.4666 53.9603C14.5229 53.8378 14.6263 53.7432 14.7533 53.698L19.5282 51.9997ZM15.5718 54.4683L18.0975 61.0302L19.1492 58.4772C19.2541 58.2227 19.5451 58.1008 19.8001 58.2046L22.3298 59.2344L19.4365 53.0937L15.5718 54.4683Z" fill="#263238"/>
<path d="M13.7924 52.3831L9.96777 60.3053L13.7216 58.8867L15.1605 62.6304L18.3011 54.7082L13.7924 52.3831Z" fill="#263238"/>
<path fill-rule="evenodd" clip-rule="evenodd" d="M13.634 51.9089C13.7619 51.8661 13.9017 51.8769 14.0216 51.9387L18.5303 54.2638C18.7587 54.3817 18.8606 54.6535 18.7659 54.8925L15.6253 62.8147C15.5494 63.0062 15.3639 63.1315 15.1579 63.1304C14.9519 63.1293 14.7677 63.0021 14.6938 62.8098L13.4333 59.5302L10.1445 60.773C9.95318 60.8454 9.73706 60.7938 9.59895 60.6429C9.46083 60.492 9.42857 60.2722 9.51751 60.0879L13.3421 52.1657C13.4008 52.0443 13.506 51.9516 13.634 51.9089ZM14.0195 53.0628L10.9625 59.3949L13.5449 58.419C13.8022 58.3217 14.0897 58.4506 14.1884 58.7073L15.1677 61.2555L17.6694 54.945L14.0195 53.0628Z" fill="#263238"/>
<path d="M23.3188 50.3882C23.3188 50.0883 23.9692 49.7446 23.9287 49.4548C23.8883 49.165 23.1672 49.0134 23.0829 48.7337C22.9987 48.454 23.5244 47.9351 23.4031 47.6689C23.2818 47.4027 22.5472 47.4633 22.3922 47.214C22.2371 46.9646 22.591 46.3243 22.3922 46.1019C22.1933 45.8795 21.5127 46.1458 21.2903 45.9503C21.0679 45.7549 21.2363 45.0439 20.987 44.8821C20.7376 44.7204 20.158 45.1719 19.8851 45.0472C19.6121 44.9225 19.5784 44.1913 19.292 44.1071C19.0056 44.0228 18.581 44.6193 18.2811 44.5788C17.9812 44.5384 17.7453 43.8442 17.4454 43.8442C17.1455 43.8442 16.8995 44.5384 16.6097 44.5788C16.3199 44.6193 15.8819 44.0262 15.5988 44.1071C15.3157 44.1879 15.2618 44.9259 15.0024 45.0472C14.7429 45.1685 14.1532 44.7103 13.9038 44.8821C13.6545 45.054 13.823 45.7582 13.6006 45.9537C13.3782 46.1491 12.6907 45.8795 12.4987 46.1019C12.3066 46.3243 12.6638 46.9646 12.4987 47.214C12.3335 47.4633 11.6057 47.3993 11.4877 47.6689C11.3698 47.9384 11.8921 48.4473 11.8079 48.7337C11.7236 49.0201 11.0059 49.1617 10.9621 49.4548C10.9183 49.748 11.572 50.0883 11.572 50.3882C11.572 50.6881 10.9216 51.0285 10.9621 51.3183C11.0025 51.6081 11.7236 51.7597 11.8079 52.0428C11.8921 52.3258 11.3631 52.838 11.4877 53.1042C11.6124 53.3704 12.3437 53.3131 12.4987 53.5591C12.6537 53.8051 12.2965 54.4487 12.4987 54.6711C12.7008 54.8935 13.3748 54.6273 13.6006 54.8228C13.8263 55.0182 13.6545 55.7292 13.9038 55.891C14.1532 56.0527 14.7328 55.6012 15.0024 55.7259C15.2719 55.8505 15.3124 56.5818 15.5988 56.666C15.8852 56.7503 16.3098 56.1538 16.6097 56.1976C16.9096 56.2414 17.1455 56.9289 17.4454 56.9289C17.7453 56.9289 17.9913 56.2381 18.2811 56.1976C18.5709 56.1572 19.009 56.7469 19.292 56.666C19.5751 56.5851 19.629 55.8472 19.8885 55.7259C20.1479 55.6046 20.7376 56.0628 20.987 55.891C21.2363 55.7191 21.0679 55.0149 21.2903 54.8228C21.5127 54.6307 22.2001 54.8935 22.3922 54.6711C22.5842 54.4487 22.227 53.8085 22.3922 53.5591C22.5573 53.3098 23.2851 53.3738 23.4031 53.1042C23.521 52.8346 22.9987 52.3258 23.0829 52.0394C23.1672 51.753 23.8849 51.6148 23.9287 51.3183C23.9725 51.0217 23.3188 50.6881 23.3188 50.3882Z" fill="#F5DE19"/>
<path fill-rule="evenodd" clip-rule="evenodd" d="M16.8859 43.5894C16.9836 43.4973 17.1752 43.3442 17.445 43.3442C17.7161 43.3442 17.9074 43.4985 18.0048 43.5913C18.1074 43.689 18.1975 43.8092 18.2595 43.8919L18.2629 43.8964C18.3018 43.9482 18.3328 43.9895 18.3594 44.0231C18.3958 43.9975 18.4386 43.9657 18.4927 43.9254L18.4962 43.9228C18.5796 43.8607 18.7005 43.7707 18.827 43.706C18.9463 43.6448 19.1732 43.5511 19.4327 43.6274C19.6922 43.7037 19.8322 43.9054 19.8994 44.0214C19.9706 44.1442 20.0234 44.2852 20.0598 44.3823L20.0614 44.3864C20.0843 44.4476 20.1026 44.4962 20.1188 44.5364C20.1605 44.5223 20.2101 44.5042 20.2723 44.4813L20.2765 44.4798C20.3742 44.444 20.5156 44.3921 20.6551 44.3658C20.786 44.3412 21.0311 44.315 21.2587 44.4626C21.4844 44.609 21.5616 44.841 21.5934 44.9703C21.6274 45.1085 21.6388 45.2589 21.6467 45.3628L21.6471 45.3679C21.6519 45.4319 21.6558 45.4832 21.6601 45.5261C21.7028 45.5244 21.7539 45.5211 21.8176 45.5171L21.822 45.5168C21.9257 45.5101 22.0753 45.5005 22.216 45.5143C22.3481 45.5273 22.5869 45.57 22.7645 45.7687C22.9445 45.97 22.9576 46.2147 22.9536 46.3491C22.9494 46.4937 22.9191 46.6436 22.8983 46.7468L22.895 46.763C22.883 46.8225 22.8733 46.8705 22.8661 46.9115C22.9076 46.9219 22.9577 46.9333 23.02 46.9474L23.0251 46.9485C23.1263 46.9714 23.2722 47.0043 23.4024 47.0569C23.5233 47.1056 23.7452 47.2148 23.8577 47.4615C23.9699 47.7077 23.9072 47.9467 23.8651 48.0699C23.8195 48.2035 23.7487 48.3361 23.6994 48.4283L23.6976 48.4318C23.6672 48.4887 23.6427 48.5345 23.6232 48.5734C23.6604 48.5953 23.7052 48.6203 23.7609 48.6513L23.7673 48.6548C23.8589 48.7059 23.991 48.7794 24.1022 48.8679C24.2046 48.9493 24.3861 49.1172 24.4236 49.3857C24.4609 49.6536 24.333 49.8645 24.2575 49.9707C24.1764 50.0846 24.0716 50.1907 23.9987 50.2646L23.9945 50.2689C23.9478 50.3162 23.9105 50.3541 23.8804 50.3864C23.9103 50.4178 23.9471 50.4547 23.9934 50.501L23.9961 50.5037C24.0696 50.5772 24.1766 50.6842 24.2593 50.8006C24.3373 50.9106 24.4627 51.1226 24.423 51.3913C24.3836 51.6577 24.2052 51.8245 24.0997 51.9079C23.988 51.9963 23.8558 52.069 23.7647 52.119L23.7614 52.1208C23.7041 52.1523 23.6584 52.1774 23.621 52.1993C23.6405 52.2382 23.6651 52.2844 23.6961 52.3421L23.6988 52.3473C23.7476 52.4384 23.8177 52.5694 23.8633 52.7014C23.9059 52.8251 23.9677 53.0602 23.8608 53.3046C23.7515 53.5545 23.5306 53.6663 23.4077 53.7166C23.2762 53.7705 23.129 53.8036 23.0277 53.8264L23.0212 53.8279C22.9556 53.8426 22.9036 53.8543 22.8605 53.8652C22.868 53.9085 22.8785 53.9602 22.8918 54.0254L22.8931 54.0316C22.9137 54.1329 22.9435 54.2786 22.9492 54.4182C22.9545 54.5489 22.9462 54.7942 22.7702 54.998C22.5935 55.2026 22.3509 55.2458 22.2203 55.2591C22.0792 55.2734 21.9288 55.2641 21.8244 55.2576L21.8199 55.2573C21.7551 55.2533 21.7032 55.25 21.6596 55.2484C21.6554 55.2901 21.6516 55.3401 21.6469 55.4024L21.6467 55.4054C21.6388 55.509 21.6274 55.6588 21.5936 55.7971C21.5617 55.9279 21.4862 56.1539 21.2703 56.3027C21.0426 56.4596 20.7931 56.437 20.6581 56.4128C20.5134 56.3869 20.3677 56.3333 20.2679 56.2964C20.2602 56.2936 20.2527 56.2908 20.2454 56.2881C20.1976 56.2704 20.1577 56.2557 20.1232 56.2436C20.108 56.2805 20.0912 56.3239 20.0708 56.3765L20.0649 56.3918C20.0266 56.4907 19.9713 56.6332 19.8978 56.7572C19.8307 56.8703 19.6891 57.0725 19.429 57.1468C19.1715 57.2204 18.9459 57.1265 18.829 57.0673C18.7025 57.0031 18.5808 56.9143 18.4961 56.8524L18.4917 56.8493C18.4394 56.811 18.3973 56.7803 18.3614 56.7554C18.3356 56.7878 18.3057 56.8271 18.2687 56.8757L18.2635 56.8825C18.2002 56.9658 18.1081 57.0868 18.0033 57.1851C17.9053 57.277 17.714 57.4289 17.445 57.4289C17.1757 57.4289 16.9849 57.2769 16.8868 57.1843C16.7837 57.0869 16.6932 56.9671 16.631 56.8848L16.6282 56.881C16.5881 56.8279 16.5564 56.786 16.5291 56.7519C16.4931 56.7771 16.4505 56.8087 16.3967 56.8486L16.3924 56.8518C16.3092 56.9135 16.1887 57.0029 16.0628 57.0673C15.9437 57.1283 15.7168 57.222 15.4573 57.1457C15.199 57.0697 15.0587 56.8694 14.991 56.754C14.9187 56.6308 14.8648 56.4894 14.8276 56.3918L14.8255 56.3861C14.8025 56.3258 14.7841 56.2776 14.7678 56.2376C14.7269 56.2515 14.6783 56.2693 14.6176 56.2916L14.6139 56.293C14.5163 56.3289 14.3747 56.3809 14.235 56.4072C14.104 56.4319 13.8589 56.4581 13.6314 56.3105C13.405 56.1636 13.3282 55.9308 13.2968 55.8015C13.2633 55.664 13.2523 55.5143 13.2447 55.4109L13.2443 55.4063C13.2395 55.3416 13.2357 55.2899 13.2314 55.2469C13.1885 55.2486 13.1371 55.2519 13.0726 55.256L13.0682 55.2563C12.9648 55.263 12.8156 55.2726 12.675 55.2588C12.5417 55.2456 12.3058 55.2028 12.1283 55.0075C11.9454 54.8063 11.9312 54.5601 11.935 54.4244C11.939 54.2787 11.9695 54.128 11.9906 54.0243L11.995 54.0027C12.0064 53.9471 12.0156 53.9016 12.0227 53.8626C11.9814 53.8521 11.9318 53.8408 11.8702 53.8267L11.8665 53.8259C11.765 53.8027 11.6189 53.7694 11.4881 53.7163C11.367 53.6672 11.1481 53.5588 11.0346 53.3163C10.9188 53.0692 10.9809 52.8287 11.0235 52.704C11.0694 52.57 11.141 52.4374 11.1904 52.3459L11.1922 52.3424C11.2231 52.2852 11.2477 52.2395 11.2674 52.2009C11.229 52.1781 11.1824 52.1521 11.1241 52.1195L11.1209 52.1176C11.0296 52.0666 10.8983 51.9932 10.7876 51.9051C10.6854 51.8238 10.5039 51.6559 10.4665 51.3874C10.4291 51.1192 10.5572 50.9083 10.6332 50.8021C10.7144 50.6884 10.8193 50.5827 10.8922 50.5093L10.8965 50.5049C10.943 50.458 10.9801 50.4206 11.0101 50.3886C10.9798 50.3564 10.9423 50.3186 10.8953 50.2711L10.8921 50.2679C10.8187 50.1939 10.7125 50.0869 10.6305 49.9712C10.5537 49.8628 10.4269 49.6502 10.4672 49.3809C10.507 49.1146 10.6867 48.9483 10.7908 48.8662C10.9017 48.7787 11.033 48.7063 11.1238 48.6562L11.1279 48.6539C11.1857 48.622 11.2317 48.5966 11.2694 48.5745C11.2498 48.5354 11.2251 48.489 11.194 48.4309L11.1912 48.4258C11.1424 48.3347 11.0723 48.2037 11.0268 48.0717C10.9841 47.948 10.9224 47.7128 11.0293 47.4685C11.1386 47.2186 11.3594 47.1068 11.4823 47.0564C11.6138 47.0026 11.7611 46.9695 11.8624 46.9467L11.8689 46.9452C11.9345 46.9305 11.9865 46.9188 12.0295 46.9079C12.022 46.8646 12.0115 46.8128 11.9982 46.7477L11.997 46.7415C11.9763 46.6402 11.9466 46.4945 11.9409 46.3549C11.9355 46.2242 11.9439 45.9789 12.1199 45.7751C12.2977 45.5692 12.5421 45.5272 12.6727 45.5147C12.8131 45.5013 12.9629 45.5115 13.0668 45.5185L13.0717 45.5188C13.1357 45.5232 13.1871 45.5266 13.2302 45.5285C13.2344 45.4861 13.2383 45.4352 13.2431 45.3717L13.2434 45.3683C13.2512 45.2644 13.2626 45.1145 13.2964 44.9761C13.3283 44.8452 13.4038 44.6192 13.6197 44.4704C13.8474 44.3135 14.097 44.3361 14.2319 44.3603C14.3767 44.3862 14.5223 44.4398 14.6221 44.4767C14.6298 44.4795 14.6374 44.4823 14.6447 44.485C14.6925 44.5027 14.7324 44.5174 14.7669 44.5295C14.782 44.4926 14.7989 44.4492 14.8192 44.3966L14.8251 44.3813C14.8635 44.2823 14.9188 44.1398 14.9923 44.0159C15.0594 43.9028 15.201 43.7006 15.4611 43.6263C15.7195 43.5525 15.9457 43.6475 16.0624 43.707C16.1888 43.7716 16.3105 43.861 16.3951 43.9232L16.3993 43.9262C16.4512 43.9644 16.4929 43.9951 16.5286 44.02C16.5544 43.9875 16.584 43.9483 16.6207 43.8999L16.6258 43.8931C16.6892 43.8094 16.7811 43.688 16.8859 43.5894ZM17.1792 44.7948C17.0941 44.8827 16.9246 45.0397 16.6784 45.074C16.435 45.108 16.2296 45.0063 16.1233 44.9463C16.0147 44.8851 15.9061 44.805 15.8266 44.7464C15.8192 44.741 15.8121 44.7357 15.8053 44.7307C15.7936 44.7221 15.7824 44.7139 15.7718 44.7062C15.7672 44.7178 15.7625 44.7299 15.7576 44.7427C15.7541 44.7517 15.7504 44.7611 15.7466 44.771C15.7115 44.8621 15.6639 44.9856 15.6075 45.093C15.5523 45.1982 15.4359 45.3963 15.2137 45.5002C14.985 45.6071 14.7535 45.5624 14.638 45.5343C14.5209 45.5059 14.3971 45.4599 14.3065 45.4262C14.2958 45.4222 14.2855 45.4184 14.2757 45.4148C14.2646 45.4106 14.2539 45.4067 14.2437 45.403C14.2426 45.4168 14.2414 45.4315 14.2403 45.4469C14.2396 45.4552 14.239 45.4639 14.2383 45.473C14.2311 45.5704 14.2211 45.7045 14.1965 45.8267C14.1719 45.9485 14.1141 46.1677 13.9302 46.3293C13.7433 46.4935 13.514 46.5201 13.3899 46.5272C13.2636 46.5345 13.1272 46.5251 13.0285 46.5182C13.0201 46.5177 13.0119 46.5171 13.004 46.5166C12.9927 46.5158 12.9818 46.5151 12.9713 46.5144C12.9735 46.5251 12.9757 46.5363 12.9781 46.548C12.9796 46.5552 12.9811 46.5626 12.9827 46.5703C13.0026 46.6675 13.0302 46.8021 13.0396 46.9295C13.0488 47.0549 13.0517 47.2838 12.9152 47.49C12.7807 47.6931 12.5726 47.7814 12.4552 47.8233C12.3376 47.8652 12.2062 47.8945 12.1108 47.9158C12.1018 47.9178 12.0931 47.9198 12.0848 47.9217C12.0758 47.9237 12.0672 47.9256 12.0588 47.9275C12.0642 47.9376 12.0697 47.948 12.0756 47.959C12.0791 47.9656 12.0828 47.9724 12.0865 47.9794C12.1333 48.0665 12.198 48.187 12.2434 48.3057C12.2882 48.4228 12.3564 48.6395 12.2872 48.8748C12.2176 49.1112 12.0415 49.2564 11.9403 49.3302C11.8381 49.4046 11.7189 49.4702 11.6326 49.5176C11.6251 49.5217 11.6179 49.5257 11.611 49.5295C11.6014 49.5348 11.5922 49.5399 11.5834 49.5448C11.5903 49.5519 11.5976 49.5592 11.6052 49.5669C11.6109 49.5726 11.6168 49.5785 11.6229 49.5847C11.6926 49.6548 11.7889 49.7516 11.8662 49.8519C11.9429 49.9514 12.0716 50.141 12.0716 50.3882C12.0716 50.6347 11.9439 50.8239 11.8672 50.9238C11.7895 51.0251 11.6927 51.1225 11.6227 51.1928C11.6171 51.1985 11.6117 51.2039 11.6064 51.2092C11.5989 51.2168 11.5916 51.2241 11.5847 51.2312C11.5935 51.2362 11.6026 51.2413 11.6122 51.2466C11.6194 51.2507 11.6269 51.2548 11.6347 51.2592C11.721 51.3073 11.8393 51.3733 11.9406 51.4473C12.0401 51.52 12.2167 51.6649 12.2867 51.9001C12.3574 52.1378 12.2863 52.3567 12.2414 52.472C12.1959 52.5889 12.1313 52.7082 12.0845 52.7947C12.0803 52.8025 12.0762 52.81 12.0723 52.8173C12.0673 52.8264 12.0626 52.8353 12.058 52.8438C12.0691 52.8464 12.0806 52.849 12.0927 52.8518C12.1007 52.8536 12.1089 52.8555 12.1175 52.8574C12.2133 52.8792 12.3451 52.9091 12.4625 52.9515C12.5772 52.993 12.7892 53.083 12.9213 53.2926C13.0519 53.4999 13.0438 53.7285 13.0334 53.8486C13.023 53.9688 12.9964 54.0977 12.977 54.1923C12.9747 54.2032 12.9726 54.2137 12.9705 54.2237C12.9679 54.2367 12.9654 54.2491 12.9631 54.2609C12.9773 54.2601 12.9923 54.2591 13.0082 54.2581C13.0161 54.2576 13.0243 54.2571 13.0328 54.2565C13.1306 54.2501 13.266 54.2411 13.3917 54.2488C13.517 54.2565 13.742 54.2843 13.9274 54.4447C14.1142 54.6065 14.173 54.8275 14.1978 54.9504C14.2228 55.0741 14.2327 55.2098 14.2398 55.3079C14.2404 55.3164 14.241 55.3247 14.2416 55.3327C14.2424 55.3434 14.2432 55.3536 14.2439 55.3635C14.2532 55.3602 14.2627 55.3567 14.2727 55.353C14.2804 55.3502 14.2885 55.3472 14.2968 55.3441C14.389 55.3101 14.5163 55.2631 14.6388 55.2347C14.7602 55.2066 14.9868 55.1679 15.2119 55.272C15.4348 55.3751 15.5527 55.5702 15.6107 55.6799C15.669 55.7903 15.7168 55.9164 15.7516 56.008C15.7549 56.0167 15.7581 56.0251 15.7611 56.0331C15.7654 56.0444 15.7696 56.0552 15.7736 56.0656C15.7823 56.0592 15.7914 56.0525 15.8009 56.0454C15.8072 56.0408 15.8136 56.036 15.8203 56.031C15.8995 55.9721 16.0095 55.8903 16.1207 55.828C16.2317 55.7658 16.4374 55.6672 16.6816 55.7029C16.9246 55.7384 17.093 55.89 17.1819 55.981C17.2704 56.0716 17.3523 56.1803 17.4112 56.2585C17.4164 56.2653 17.4214 56.272 17.4262 56.2783C17.4332 56.2876 17.4399 56.2965 17.4464 56.3049C17.4535 56.2957 17.4609 56.2859 17.4687 56.2757C17.4741 56.2686 17.4797 56.2612 17.4856 56.2535C17.5444 56.1758 17.6254 56.069 17.7116 55.9804C17.7969 55.8926 17.9662 55.7367 18.2116 55.7024C18.4542 55.6686 18.659 55.7692 18.7656 55.829C18.8741 55.8898 18.9827 55.9693 19.0622 56.0275C19.0696 56.033 19.0767 56.0382 19.0836 56.0432C19.0956 56.0519 19.1069 56.0602 19.1178 56.0681C19.1225 56.0561 19.1274 56.0436 19.1325 56.0304C19.136 56.0214 19.1396 56.0119 19.1434 56.0021C19.1785 55.911 19.2262 55.7875 19.2826 55.6801C19.3378 55.5749 19.4542 55.3768 19.6763 55.2729C19.905 55.166 20.1365 55.2107 20.252 55.2388C20.3691 55.2672 20.4929 55.3132 20.5835 55.3469C20.5943 55.3509 20.6046 55.3547 20.6143 55.3583C20.6255 55.3624 20.6361 55.3664 20.6464 55.3701C20.6475 55.3564 20.6486 55.3419 20.6498 55.3265C20.6504 55.3182 20.6511 55.3096 20.6517 55.3006C20.659 55.2034 20.669 55.0693 20.6937 54.9474C20.7182 54.8262 20.7765 54.6055 20.9631 54.4444C21.1493 54.2835 21.3768 54.2575 21.4993 54.2502C21.6239 54.2428 21.7588 54.2514 21.857 54.2576C21.8661 54.2582 21.8748 54.2588 21.8832 54.2593C21.8958 54.2601 21.9078 54.2608 21.9193 54.2615C21.917 54.2499 21.9145 54.2378 21.912 54.2251C21.9105 54.2179 21.909 54.2105 21.9074 54.2028C21.8875 54.1056 21.8599 53.971 21.8505 53.8436C21.8412 53.7181 21.8384 53.4892 21.9749 53.2831C22.1093 53.08 22.3174 52.9917 22.4348 52.9498C22.5524 52.9079 22.6838 52.8786 22.7792 52.8573C22.7882 52.8552 22.7969 52.8533 22.8053 52.8514C22.8142 52.8494 22.8229 52.8475 22.8312 52.8456C22.8259 52.8355 22.8203 52.825 22.8145 52.8141C22.8109 52.8075 22.8073 52.8007 22.8035 52.7937C22.7567 52.7066 22.6921 52.5861 22.6466 52.4674C22.6018 52.3503 22.5337 52.1336 22.6029 51.8983C22.6726 51.6613 22.8492 51.5163 22.9506 51.4428C23.0523 51.369 23.1712 51.3039 23.2571 51.2569C23.265 51.2526 23.2726 51.2484 23.2798 51.2444C23.2894 51.2392 23.2985 51.2341 23.3074 51.2292C23.3006 51.2224 23.2936 51.2154 23.2863 51.2081C23.2804 51.2022 23.2743 51.1961 23.2679 51.1898C23.1984 51.1205 23.1022 51.0245 23.0249 50.9249C22.9478 50.8256 22.8184 50.6362 22.8184 50.3882C22.8184 50.1421 22.9459 49.9528 23.0222 49.8529C23.0998 49.7514 23.1964 49.6538 23.2664 49.583C23.272 49.5773 23.2774 49.5718 23.2827 49.5665C23.2908 49.5583 23.2986 49.5503 23.3061 49.5427C23.2973 49.5377 23.2881 49.5326 23.2786 49.5273C23.271 49.5231 23.2631 49.5187 23.2549 49.5141C23.169 49.4664 23.0514 49.4012 22.951 49.3284C22.8525 49.2569 22.6746 49.1129 22.6038 48.8779C22.5323 48.6405 22.6036 48.4209 22.6476 48.3068C22.6927 48.1898 22.7568 48.0702 22.8035 47.9831C22.8076 47.9754 22.8116 47.9679 22.8155 47.9607C22.8211 47.9501 22.8266 47.9399 22.8317 47.9301C22.8215 47.9277 22.8108 47.9253 22.7997 47.9228C22.7921 47.9211 22.7843 47.9193 22.7761 47.9175C22.6797 47.8959 22.5465 47.8659 22.4277 47.8229C22.3117 47.7809 22.0988 47.6898 21.9671 47.4779C21.8391 47.2719 21.8459 47.0459 21.8561 46.9245C21.8663 46.8032 21.8927 46.6736 21.9121 46.5786C21.9142 46.5682 21.9162 46.5583 21.9181 46.5489C21.9207 46.5361 21.9231 46.5239 21.9254 46.5123C21.9116 46.5131 21.8971 46.514 21.8817 46.515C21.8738 46.5155 21.8656 46.516 21.8571 46.5166C21.7588 46.523 21.6232 46.5319 21.4974 46.5243C21.3732 46.5167 21.1456 46.4892 20.9598 46.3259C20.7754 46.1638 20.7178 45.9434 20.6935 45.822C20.669 45.6997 20.659 45.5653 20.6517 45.4678C20.6511 45.4586 20.6504 45.4498 20.6498 45.4413C20.6489 45.4301 20.6481 45.4194 20.6473 45.409C20.6375 45.4126 20.6273 45.4163 20.6166 45.4202C20.6091 45.423 20.6012 45.4259 20.593 45.4289C20.5004 45.463 20.3725 45.5101 20.2493 45.5385C20.1268 45.5667 19.9014 45.6045 19.677 45.502C19.4521 45.3993 19.3334 45.2039 19.2747 45.0925C19.2159 44.9807 19.1682 44.8532 19.1339 44.7611C19.1308 44.753 19.1279 44.7451 19.1251 44.7375C19.1214 44.7278 19.1178 44.7184 19.1144 44.7093C19.1065 44.7152 19.0983 44.7213 19.0897 44.7277C19.0832 44.7325 19.0764 44.7376 19.0694 44.7428C18.9904 44.8017 18.8813 44.8832 18.7711 44.9455C18.661 45.0078 18.4569 45.1071 18.2139 45.0744C17.9672 45.0411 17.7967 44.8872 17.7077 44.796C17.6186 44.7045 17.5363 44.5945 17.4772 44.5156C17.4723 44.5089 17.4675 44.5025 17.4629 44.4964C17.4561 44.4873 17.4495 44.4786 17.4432 44.4703C17.4364 44.4792 17.4294 44.4885 17.422 44.4982C17.4167 44.5053 17.411 44.5127 17.4052 44.5204C17.3463 44.5985 17.2654 44.7058 17.1792 44.7948Z" fill="#263238"/>
<path d="M17.4521 54.4521C19.6965 54.4521 21.5159 52.6326 21.5159 50.3882C21.5159 48.1438 19.6965 46.3243 17.4521 46.3243C15.2076 46.3243 13.3882 48.1438 13.3882 50.3882C13.3882 52.6326 15.2076 54.4521 17.4521 54.4521Z" fill="#263238"/>
<path fill-rule="evenodd" clip-rule="evenodd" d="M17.4521 46.8243C15.4838 46.8243 13.8882 48.4199 13.8882 50.3882C13.8882 52.3565 15.4838 53.9521 17.4521 53.9521C19.4203 53.9521 21.0159 52.3565 21.0159 50.3882C21.0159 48.4199 19.4203 46.8243 17.4521 46.8243ZM12.8882 50.3882C12.8882 47.8677 14.9315 45.8243 17.4521 45.8243C19.9726 45.8243 22.0159 47.8677 22.0159 50.3882C22.0159 52.9088 19.9726 54.9521 17.4521 54.9521C14.9315 54.9521 12.8882 52.9088 12.8882 50.3882Z" fill="#073F27"/>
<path d="M17.4517 47.5947L18.0785 49.5256H20.1071L18.466 50.7151L19.0928 52.6459L17.4517 51.4531L15.8107 52.6459L16.4374 50.7151L14.7964 49.5256H16.825L17.4517 47.5947Z" fill="#F5DE19"/>
<path fill-rule="evenodd" clip-rule="evenodd" d="M43.6013 48.9406H28.1006V47.9406H43.6013V48.9406Z" fill="#263238"/>
<path fill-rule="evenodd" clip-rule="evenodd" d="M43.6013 52.6439H28.1006V51.6439H43.6013V52.6439Z" fill="#263238"/>
<path fill-rule="evenodd" clip-rule="evenodd" d="M94.6724 46.2077C91.7661 46.2077 89.4102 48.5637 89.4102 51.4699C89.4102 54.3762 91.7661 56.7321 94.6724 56.7321C97.5786 56.7321 99.9346 54.3762 99.9346 51.4699C99.9346 48.5637 97.5786 46.2077 94.6724 46.2077ZM88.4102 51.4699C88.4102 48.0114 91.2138 45.2077 94.6724 45.2077C98.1309 45.2077 100.935 48.0114 100.935 51.4699C100.935 54.9284 98.1309 57.7321 94.6724 57.7321C91.2138 57.7321 88.4102 54.9284 88.4102 51.4699Z" fill="#073F27"/>
<path d="M95.5066 55.2965C97.6155 54.8347 98.9507 52.7509 98.489 50.642C98.0273 48.5331 95.9434 47.1979 93.8345 47.6596C91.7257 48.1214 90.3904 50.2052 90.8522 52.3141C91.3139 54.4229 93.3978 55.7582 95.5066 55.2965Z" fill="#F5DE19"/>
</svg>
