<svg width="62" height="62" viewBox="0 0 62 62" fill="none" xmlns="http://www.w3.org/2000/svg">
<path d="M39.6111 30.1389C38.4055 30.1389 37.386 29.7221 36.5524 28.8885C35.7189 28.055 35.3032 27.0366 35.3055 25.8333C35.3078 24.6301 35.7246 23.6105 36.5559 22.7747C37.3871 21.9388 38.4055 21.5232 39.6111 21.5278C40.8166 21.5324 41.8362 21.9491 42.6697 22.7781C43.5033 23.6071 43.9189 24.6255 43.9166 25.8333C43.9143 27.0412 43.4976 28.0607 42.6663 28.892C41.835 29.7232 40.8166 30.1389 39.6111 30.1389ZM22.3889 30.1389C21.1833 30.1389 20.1638 29.7221 19.3302 28.8885C18.4967 28.055 18.081 27.0366 18.0833 25.8333C18.0856 24.6301 18.5024 23.6105 19.3337 22.7747C20.1649 21.9388 21.1833 21.5232 22.3889 21.5278C23.5944 21.5324 24.614 21.9491 25.4475 22.7781C26.2811 23.6071 26.6967 24.6255 26.6944 25.8333C26.6921 27.0412 26.2754 28.0607 25.4441 28.892C24.6128 29.7232 23.5944 30.1389 22.3889 30.1389ZM31 48.2222C27.5555 48.2222 24.4406 47.2749 21.6552 45.3805C18.8698 43.4861 16.8181 40.9888 15.5 37.8889H46.5C45.1796 40.9888 43.1279 43.4861 40.3447 45.3805C37.5616 47.2749 34.4467 48.2222 31 48.2222ZM31 61.9999C26.6944 61.9999 22.6621 61.1824 18.9031 59.5475C15.1441 57.9125 11.8718 55.7023 9.08644 52.9169C6.30104 50.1315 4.09085 46.8593 2.45589 43.1003C0.82093 39.3413 0.00230111 35.3078 4.8174e-06 31C-0.00229148 26.6921 0.816337 22.6598 2.45589 18.9031C4.09545 15.1464 6.30448 11.8741 9.083 9.08645C11.8615 6.29875 15.1337 4.08857 18.8997 2.4559C22.6656 0.823241 26.699 0.0046118 31 1.92158e-05C35.3009 -0.00457337 39.3344 0.814055 43.1003 2.4559C46.8662 4.09775 50.1385 6.30679 52.917 9.08301C55.6955 11.8592 57.9057 15.1314 59.5475 18.8997C61.1894 22.6679 62.0068 26.7013 62 31C61.9931 35.2986 61.1756 39.3321 59.5475 43.1003C57.9194 46.8685 55.7093 50.1407 52.917 52.9169C50.1247 55.6932 46.8524 57.9033 43.1003 59.5475C39.3482 61.1916 35.3147 62.0091 31 61.9999ZM31 55.111C37.6592 55.111 43.3426 52.7574 48.05 48.05C52.7574 43.3426 55.1111 37.6592 55.1111 31C55.1111 24.3407 52.7574 18.6574 48.05 13.95C43.3426 9.2426 37.6592 6.8889 31 6.8889H29.9666C29.6222 6.8889 29.2778 6.94631 28.9333 7.06112C28.5889 7.40556 28.3592 7.77871 28.2444 8.18056C28.1296 8.58241 28.0722 9.01297 28.0722 9.47223C28.0722 10.6778 28.4878 11.6973 29.3191 12.5309C30.1504 13.3644 31.1699 13.7801 32.3778 13.7778C32.8944 13.7778 33.3686 13.6917 33.8003 13.5194C34.232 13.3472 34.6763 13.2611 35.1333 13.2611C35.8222 13.2611 36.3963 13.5194 36.8555 14.0361C37.3148 14.5528 37.5444 15.1556 37.5444 15.8444C37.5444 17.1648 36.9267 18.0121 35.6913 18.3864C34.4559 18.7607 33.3514 18.9467 32.3778 18.9444C29.7944 18.9444 27.5705 18.0121 25.7059 16.1476C23.8413 14.283 22.9078 12.0579 22.9055 9.47223V8.95556C22.9055 8.78334 22.9342 8.55371 22.9917 8.26667C18.2268 9.98889 14.3518 12.888 11.3667 16.9639C8.38148 21.0398 6.88889 25.7185 6.88889 31C6.88889 37.6592 9.24259 43.3426 13.95 48.05C18.6574 52.7574 24.3407 55.111 31 55.111Z" fill="#073F27"/>
</svg>
