<svg width="25" height="25" viewBox="0 0 25 25" fill="none" xmlns="http://www.w3.org/2000/svg">
<circle cx="12.5" cy="12.5" r="12.5" fill="#073F27"/>
<path d="M13 9.5C12.5674 9.5 12.1444 9.62829 11.7847 9.86866C11.425 10.109 11.1446 10.4507 10.979 10.8504C10.8134 11.2501 10.7701 11.6899 10.8545 12.1143C10.9389 12.5386 11.1473 12.9284 11.4532 13.2343C11.7591 13.5402 12.1489 13.7486 12.5732 13.833C12.9976 13.9174 13.4374 13.8741 13.8371 13.7085C14.2368 13.5429 14.5785 13.2625 14.8188 12.9028C15.0592 12.5431 15.1875 12.1201 15.1875 11.6875C15.1875 11.1073 14.957 10.5509 14.5468 10.1407C14.1366 9.73047 13.5802 9.5 13 9.5ZM13 13C12.7404 13 12.4867 12.923 12.2708 12.7788C12.055 12.6346 11.8867 12.4296 11.7874 12.1898C11.6881 11.9499 11.6621 11.686 11.7127 11.4314C11.7634 11.1768 11.8884 10.943 12.0719 10.7594C12.2555 10.5759 12.4893 10.4509 12.7439 10.4002C12.9985 10.3496 13.2624 10.3756 13.5023 10.4749C13.7421 10.5742 13.9471 10.7425 14.0913 10.9583C14.2355 11.1742 14.3125 11.4279 14.3125 11.6875C14.3125 12.0356 14.1742 12.3694 13.9281 12.6156C13.6819 12.8617 13.3481 13 13 13ZM13 6.875C11.7241 6.87645 10.5009 7.38394 9.59865 8.28615C8.69644 9.18835 8.18895 10.4116 8.1875 11.6875C8.1875 13.4047 8.98102 15.2247 10.4844 16.9512C11.1599 17.7313 11.9202 18.4338 12.7512 19.0457C12.8247 19.0972 12.9124 19.1249 13.0022 19.1249C13.092 19.1249 13.1796 19.0972 13.2532 19.0457C14.0827 18.4336 14.8415 17.7311 15.5156 16.9512C17.0168 15.2247 17.8125 13.4047 17.8125 11.6875C17.8111 10.4116 17.3036 9.18835 16.4014 8.28615C15.4991 7.38394 14.2759 6.87645 13 6.875ZM13 18.1406C12.096 17.4297 9.0625 14.8184 9.0625 11.6875C9.0625 10.6432 9.47734 9.64169 10.2158 8.90327C10.9542 8.16484 11.9557 7.75 13 7.75C14.0443 7.75 15.0458 8.16484 15.7842 8.90327C16.5227 9.64169 16.9375 10.6432 16.9375 11.6875C16.9375 14.8173 13.904 17.4297 13 18.1406Z" fill="#F5DE19"/>
</svg>
