<svg width="42" height="60" viewBox="0 0 42 60" fill="none" xmlns="http://www.w3.org/2000/svg">
<path d="M28.8085 55.9898C37.2093 50.302 39.4087 38.8809 33.7209 30.48C28.0331 22.0791 16.612 19.8798 8.2111 25.5676C-0.189759 31.2554 -2.38912 42.6765 3.29869 51.0774C8.9865 59.4782 20.4076 61.6776 28.8085 55.9898Z" fill="#F5DE19"/>
<path opacity="0.3" d="M28.8085 55.9898C37.2093 50.302 39.4087 38.8809 33.7209 30.48C28.0331 22.0791 16.612 19.8798 8.2111 25.5676C-0.189759 31.2554 -2.38912 42.6765 3.29869 51.0774C8.9865 59.4782 20.4076 61.6776 28.8085 55.9898Z" fill="black"/>
<path d="M28.8085 53.9643C37.2093 48.2765 39.4087 36.8553 33.7209 28.4545C28.0331 20.0536 16.612 17.8543 8.2111 23.5421C-0.189759 29.2299 -2.38912 40.651 3.29869 49.0519C8.9865 57.4527 20.4076 59.6521 28.8085 53.9643Z" fill="#073F27"/>
<path d="M18.5109 51.0583C25.3067 51.0583 30.8158 45.5492 30.8158 38.7534C30.8158 31.9576 25.3067 26.4485 18.5109 26.4485C11.7151 26.4485 6.20605 31.9576 6.20605 38.7534C6.20605 45.5492 11.7151 51.0583 18.5109 51.0583Z" fill="white"/>
<path d="M33.2776 23.1967L32.7773 19.278L36.7707 15.0081L37.056 19.2385L33.2776 23.1967Z" fill="#455A64"/>
<path d="M41.8394 20.081L37.7933 19.7519L33.7385 23.6531L37.7933 24.0876L41.8394 20.081Z" fill="#455A64"/>
<path opacity="0.3" d="M19.314 38.6656L33.3566 27.9405C32.8293 27.1798 32.2424 26.4622 31.6013 25.7946L19.314 37.7089V38.6656Z" fill="black"/>
<path d="M37.4201 18.1897L30.9649 24.7195L20.7445 35.076L18.3923 37.4588C17.6463 38.2136 18.8312 39.3765 19.5552 38.6217L26.0017 32.0919L36.2309 21.7354L38.5831 19.3526C39.3247 18.5978 38.1442 17.4349 37.4158 18.1897H37.4201Z" fill="#F5DE19"/>
<path d="M18.5108 15.7014C18.445 15.7014 18.3967 12.1908 18.3967 7.85072C18.3967 3.51067 18.445 0 18.5108 0C18.5767 0 18.6249 3.51067 18.6249 7.85072C18.6249 12.1908 18.5723 15.7014 18.5108 15.7014Z" fill="#263238"/>
<path d="M30.3726 7.50841C30.4208 7.54791 29.1658 9.31202 27.5684 11.4579C25.9711 13.6038 24.6326 15.2977 24.58 15.2582C24.5273 15.2187 25.7868 13.459 27.3841 11.3087C28.9815 9.15842 30.3199 7.47331 30.3726 7.50841Z" fill="#263238"/>
<path d="M6.50444 7.14857C6.56148 7.11785 7.64979 8.98728 8.93996 11.3219C10.2301 13.6565 11.2263 15.5786 11.1736 15.6093C11.121 15.64 10.0283 13.7706 8.7381 11.4316C7.44793 9.0926 6.45178 7.17928 6.50444 7.14857Z" fill="#263238"/>
</svg>
