<svg width="64" height="64" viewBox="0 0 64 64" fill="none" xmlns="http://www.w3.org/2000/svg">
<circle cx="32" cy="32" r="32" fill="#073F27"/>
<path d="M32.5 14.8438C29.2057 14.8438 25.9854 15.8206 23.2463 17.6508C20.5072 19.481 18.3723 22.0824 17.1116 25.1259C15.851 28.1695 15.5211 31.5185 16.1638 34.7495C16.8065 37.9805 18.3928 40.9483 20.7223 43.2777C23.0517 45.6072 26.0195 47.1935 29.2505 47.8362C32.4815 48.4789 35.8305 48.149 38.8741 46.8884C41.9176 45.6277 44.519 43.4928 46.3492 40.7537C48.1794 38.0146 49.1563 34.7943 49.1563 31.5C49.1516 27.0839 47.3952 22.85 44.2726 19.7274C41.15 16.6048 36.9161 14.8484 32.5 14.8438ZM32.5 45.5938C29.7125 45.5938 26.9876 44.7672 24.6699 43.2185C22.3522 41.6699 20.5458 39.4687 19.4791 36.8934C18.4124 34.3181 18.1333 31.4844 18.6771 28.7504C19.2209 26.0165 20.5632 23.5053 22.5342 21.5342C24.5053 19.5632 27.0165 18.2209 29.7505 17.6771C32.4844 17.1332 35.3182 17.4124 37.8935 18.4791C40.4687 19.5458 42.6699 21.3522 44.2185 23.6699C45.7672 25.9876 46.5938 28.7125 46.5938 31.5C46.5895 35.2366 45.1033 38.8189 42.4611 41.4611C39.8189 44.1033 36.2366 45.5895 32.5 45.5938ZM42.75 31.5C42.75 31.8398 42.615 32.1657 42.3747 32.406C42.1345 32.6463 41.8086 32.7812 41.4688 32.7812H35.5926L39.8127 36.9998C39.9318 37.1188 40.0262 37.2601 40.0906 37.4157C40.1551 37.5712 40.1882 37.7379 40.1882 37.9062C40.1882 38.0746 40.1551 38.2413 40.0906 38.3968C40.0262 38.5524 39.9318 38.6937 39.8127 38.8127C39.6937 38.9318 39.5524 39.0262 39.3968 39.0906C39.2413 39.1551 39.0746 39.1882 38.9063 39.1882C38.7379 39.1882 38.5712 39.1551 38.4157 39.0906C38.2601 39.0262 38.1188 38.9318 37.9998 38.8127L31.5935 32.4065C31.4141 32.2273 31.2919 31.9989 31.2424 31.7502C31.1929 31.5016 31.2183 31.2438 31.3153 31.0096C31.4124 30.7753 31.5768 30.5751 31.7877 30.4344C31.9985 30.2936 32.2465 30.2186 32.5 30.2188H41.4688C41.8086 30.2188 42.1345 30.3537 42.3747 30.594C42.615 30.8343 42.75 31.1602 42.75 31.5Z" fill="#F5DE19"/>
</svg>
