<svg width="54" height="54" viewBox="0 0 54 54" fill="none" xmlns="http://www.w3.org/2000/svg">
<path d="M45.0668 15.2244C45.3832 15.5408 45.5625 15.968 45.5625 16.4162V48.9375C45.5625 49.8709 44.8084 50.625 43.875 50.625H10.125C9.1916 50.625 8.4375 49.8709 8.4375 48.9375V5.0625C8.4375 4.1291 9.1916 3.375 10.125 3.375H32.5213C32.9695 3.375 33.402 3.5543 33.7184 3.8707L45.0668 15.2244ZM41.6707 17.1914L31.7461 7.2668V17.1914H41.6707ZM33.3925 33.6055C32.592 33.5791 31.7408 33.6408 30.7742 33.7616C29.4928 32.9711 28.63 31.8853 28.0172 30.2901L28.0737 30.0591L28.1391 29.786C28.3658 28.8299 28.4876 28.1322 28.524 27.4287C28.5514 26.8977 28.5219 26.4078 28.4275 25.9538C28.2535 24.9734 27.56 24.4002 26.6862 24.3649C25.8715 24.3316 25.1227 24.7867 24.9312 25.4918C24.6196 26.6319 24.802 28.1322 25.4628 30.6909C24.6212 32.6974 23.509 35.0499 22.7628 36.3619C21.7666 36.8756 20.9909 37.3428 20.3391 37.8606C19.4796 38.5446 18.9427 39.2476 18.7951 39.9858C18.7233 40.3281 18.8314 40.7753 19.0777 41.1418C19.3572 41.5573 19.778 41.8273 20.2827 41.8663C21.5562 41.965 23.1214 40.6519 24.8495 37.6866C25.023 37.6286 25.2065 37.5674 25.4306 37.4915L26.0582 37.2795C26.4553 37.1456 26.7432 37.0496 27.028 36.9573C28.2619 36.5555 29.1953 36.3018 30.0444 36.1573C31.5199 36.9473 33.2253 37.4651 34.3738 37.4651C35.322 37.4651 35.9627 36.9737 36.1942 36.2C36.3973 35.5208 36.2364 34.733 35.7998 34.2974C35.3484 33.8539 34.5183 33.6419 33.3925 33.6055ZM20.3149 40.3777V40.3587L20.3217 40.3407C20.3989 40.1413 20.498 39.951 20.617 39.7733C20.8427 39.4263 21.1533 39.0614 21.5383 38.6728C21.745 38.4645 21.9602 38.2614 22.2128 38.0336C22.2692 37.983 22.6299 37.6618 22.6974 37.5986L23.2864 37.0501L22.8582 37.732C22.2086 38.7677 21.6211 39.5133 21.118 39.9995C20.9329 40.1788 20.77 40.3107 20.6381 40.3956C20.5946 40.4247 20.5485 40.4497 20.5005 40.4705C20.4789 40.4794 20.4599 40.4847 20.4409 40.4863C20.4209 40.4888 20.4005 40.4861 20.3818 40.4784C20.362 40.4701 20.345 40.4561 20.3331 40.4381C20.3212 40.4202 20.3149 40.3992 20.3149 40.3777ZM26.9562 28.8668L26.8371 29.0777L26.7632 28.8468C26.5997 28.3284 26.4795 27.5474 26.4463 26.8429C26.4083 26.0413 26.4721 25.5604 26.7253 25.5604C27.0807 25.5604 27.2436 26.1299 27.2563 26.9868C27.2679 27.7399 27.1492 28.5235 26.9557 28.8668H26.9562ZM26.6498 31.9496L26.7305 31.7361L26.8407 31.9365C27.4572 33.0565 28.2572 33.991 29.1368 34.6423L29.3266 34.7825L29.0951 34.83C28.234 35.0082 27.4319 35.2761 26.335 35.7186C26.4495 35.6722 25.1949 36.1858 24.8774 36.3076L24.6006 36.4136L24.7482 36.1563C25.3995 35.0225 26.0012 33.6609 26.6493 31.9496H26.6498ZM34.9618 35.9712C34.5473 36.1346 33.6551 35.9886 32.0841 35.3178L31.6854 35.148L32.1179 35.1163C33.3466 35.0251 34.2167 35.0926 34.724 35.2782C34.9402 35.3573 35.0842 35.457 35.148 35.5709C35.1816 35.6248 35.1929 35.6897 35.1795 35.7518C35.1661 35.8139 35.1291 35.8684 35.0763 35.9037C35.0427 35.9332 35.0039 35.9561 34.9618 35.9712Z" fill="#D10000"/>
</svg>
