<svg width="12" height="12" viewBox="0 0 12 12" fill="none" xmlns="http://www.w3.org/2000/svg">
<path d="M9.75 11C9.94891 11 10.1397 10.921 10.2803 10.7803C10.421 10.6397 10.5 10.4489 10.5 10.25V8.5C10.5 8.30109 10.421 8.11032 10.2803 7.96967C10.1397 7.82902 9.94891 7.75 9.75 7.75C9.165 7.75 8.59 7.66 8.04 7.475C7.9085 7.43349 7.76815 7.42879 7.63417 7.46141C7.5002 7.49402 7.37771 7.5627 7.28 7.66L6.56 8.38C5.31612 7.70121 4.29379 6.67888 3.615 5.435L4.33 4.72C4.535 4.525 4.61 4.235 4.52 3.955C4.34 3.41 4.25 2.835 4.25 2.25C4.25 2.05109 4.17098 1.86032 4.03033 1.71967C3.88968 1.57902 3.69891 1.5 3.5 1.5H1.75C1.55109 1.5 1.36032 1.57902 1.21967 1.71967C1.07902 1.86032 1 2.05109 1 2.25C1 7.075 4.925 11 9.75 11ZM1.75 2H3.5C3.5663 2 3.62989 2.02634 3.67678 2.07322C3.72366 2.12011 3.75 2.1837 3.75 2.25C3.75 2.89 3.85 3.515 4.045 4.11C4.07 4.18 4.065 4.28 3.985 4.36L3 5.34C3.825 6.955 5.035 8.165 6.655 9L7.63 8.015C7.7 7.945 7.795 7.925 7.885 7.95C8.485 8.15 9.11 8.25 9.75 8.25C9.8163 8.25 9.87989 8.27634 9.92678 8.32322C9.97366 8.37011 10 8.4337 10 8.5V10.25C10 10.3163 9.97366 10.3799 9.92678 10.4268C9.87989 10.4737 9.8163 10.5 9.75 10.5C5.2 10.5 1.5 6.8 1.5 2.25C1.5 2.1837 1.52634 2.12011 1.57322 2.07322C1.62011 2.02634 1.6837 2 1.75 2Z" fill="black"/>
</svg>
