<svg width="73" height="72" viewBox="0 0 73 72" fill="none" xmlns="http://www.w3.org/2000/svg">
<g clip-path="url(#clip0_15_602)">
<g clip-path="url(#clip1_15_602)">
<g clip-path="url(#clip2_15_602)">
<path d="M66.6715 37.7437C66.4547 36.6138 65.4665 35.7968 64.3159 35.7961H61.9987L61.8283 34.7749C61.6583 33.7492 60.8502 32.9479 59.8231 32.7865C59.5951 32.7505 59.3647 32.7265 59.1379 32.6953C59.5309 30.8608 59.2044 28.9453 58.2259 27.3445C58.7429 26.0035 58.6464 24.5033 57.9619 23.2395C57.2774 21.9758 56.0736 21.0754 54.6679 20.7757C53.7693 15.9661 49.5851 12.47 44.6923 12.4405C44.5723 12.4405 44.4655 12.4561 44.3515 12.4597C43.5697 11.2319 42.2808 10.4171 40.8364 10.2374C39.3919 10.0578 37.9427 10.5321 36.8839 11.5309C35.5502 10.6639 33.9939 10.2017 32.4031 10.2001C29.84 10.2106 27.4243 11.4003 25.8535 13.4257C24.1094 12.9171 22.2286 13.2294 20.7424 14.2744C19.2562 15.3193 18.3259 16.9836 18.2143 18.7969C16.3823 19.567 15.1903 21.3601 15.1891 23.3473C15.1929 23.6918 15.2331 24.0349 15.3091 24.3709C13.689 26.8133 13.2657 29.8593 14.1583 32.6509C13.8367 32.6953 13.5079 32.7349 13.1983 32.7805C12.1659 32.9363 11.3506 33.7381 11.1775 34.7677L11.0071 35.7925H8.68394C7.53536 35.7933 6.54835 36.6078 6.32954 37.7353L1.07474 64.7137C0.869524 65.7703 1.14781 66.8632 1.83332 67.693C2.51883 68.5228 3.53964 69.0023 4.61594 69.0001H29.6407C30.6343 70.6393 33.6535 71.4001 36.4999 71.4001C39.3163 71.4001 42.3067 70.6573 43.3291 69.0001H68.3839C69.46 69.0022 70.4806 68.5229 71.166 67.6934C71.8515 66.8639 72.13 65.7713 71.9251 64.7149L66.6715 37.7437ZM18.8179 25.5193C17.8436 24.9335 17.3786 23.7705 17.6804 22.6745C17.9823 21.5784 18.9771 20.8174 20.1139 20.8129C20.9096 20.8106 21.6584 21.1888 22.1287 21.8305C22.3843 22.1748 22.804 22.3566 23.2299 22.3074C23.6558 22.2583 24.0231 21.9856 24.1935 21.5922C24.3639 21.1988 24.3115 20.7444 24.0559 20.4001C23.2411 19.3111 22.0063 18.6144 20.6527 18.4801C21.0105 16.7996 22.4925 15.5965 24.2107 15.5917C24.3572 15.5992 24.503 15.6152 24.6475 15.6397C24.551 15.8857 24.4669 16.1365 24.3955 16.3909C24.2462 17.0261 24.6318 17.6643 25.2636 17.8275C25.8954 17.9906 26.5418 17.619 26.7187 16.9909C26.8552 16.4635 27.0648 15.9578 27.3415 15.4885C28.406 13.7053 30.3264 12.6094 32.4031 12.6001C33.5334 12.6051 34.6378 12.9387 35.5819 13.5601C35.4021 14.0655 35.3068 14.597 35.2999 15.1333C35.2999 15.7961 35.8372 16.3333 36.4999 16.3333C37.1627 16.3333 37.6999 15.7961 37.6999 15.1333C37.6999 13.7393 38.8301 12.6091 40.2241 12.6091C41.6182 12.6091 42.7483 13.7393 42.7483 15.1333C42.7483 15.7961 43.2856 16.3333 43.9483 16.3333C44.6111 16.3333 45.1483 15.7961 45.1483 15.1333C45.1483 15.0409 45.1255 14.9533 45.1207 14.8609C48.5568 15.0729 51.4461 17.5154 52.2271 20.8681C51.6674 21.0311 51.1414 21.2933 50.6743 21.6421C50.3314 21.8994 50.1517 22.32 50.203 22.7457C50.2542 23.1713 50.5287 23.5373 50.923 23.7057C51.3172 23.8741 51.7714 23.8194 52.1143 23.5621C53.0733 22.8522 54.3979 22.9088 55.2928 23.698C56.1876 24.4872 56.4093 25.7944 55.8247 26.8345C55.5635 27.2938 55.1666 27.661 54.6883 27.8857C54.1868 28.1285 53.9185 28.6846 54.0404 29.2283C54.1623 29.772 54.6424 30.1603 55.1995 30.1657C55.3755 30.166 55.5493 30.1271 55.7083 30.0517C56.0264 29.8976 56.3269 29.7097 56.6047 29.4913C57.2251 31.2548 56.836 33.2161 55.5895 34.6093L55.5607 34.6393C53.9974 36.3329 51.5036 36.7906 49.4407 35.7625C49.2387 35.6558 49.0446 35.5347 48.8599 35.4001C49.7438 34.161 49.8659 32.5333 49.1767 31.1761C48.9838 30.7931 48.6012 30.542 48.173 30.5176C47.7448 30.4931 47.3361 30.699 47.1008 31.0576C46.8655 31.4162 46.8394 31.8731 47.0323 32.2561C47.4269 33.0493 47.1808 34.0118 46.4539 34.5181C46.0271 34.8023 45.4998 34.8922 45.0029 34.7655C44.506 34.6387 44.0861 34.3072 43.8475 33.8533C43.6557 33.4698 43.2738 33.2178 42.8458 33.1922C42.4178 33.1666 42.0086 33.3713 41.7724 33.7292C41.5362 34.0871 41.5089 34.5438 41.7007 34.9273C42.4045 36.348 43.8545 37.2452 45.4399 37.2409C45.9561 37.2374 46.467 37.1369 46.9459 36.9445C47.3745 37.3198 47.8467 37.6421 48.3523 37.9045C50.0626 38.791 52.0514 38.9749 53.8951 38.4169C52.7093 40.0361 50.9345 41.1244 48.9535 41.4469C48.3373 41.5473 47.9009 42.1034 47.9501 42.7259C47.9993 43.3483 48.5176 43.829 49.1419 43.8313C49.2058 43.8313 49.2696 43.8265 49.3327 43.8169C50.0635 43.6904 50.7776 43.4819 51.4615 43.1953C51.8312 43.8489 52.1313 44.5395 52.3567 45.2557C52.398 45.3808 52.4191 45.5116 52.4191 45.6433C52.4188 46.162 52.1091 46.6304 51.6319 46.8337C51.08 47.0472 50.4533 46.8788 50.0827 46.4173C49.1534 45.326 47.9365 44.5173 46.5703 44.0833C43.9771 43.2145 42.9763 42.4381 42.5515 41.5933C43.1742 41.5156 43.7894 41.3872 44.3911 41.2093C44.801 41.0833 45.1125 40.7482 45.2082 40.3302C45.304 39.9122 45.1695 39.4749 44.8554 39.183C44.5414 38.8911 44.0954 38.7889 43.6855 38.9149C43.0122 39.1215 42.3171 39.2492 41.6143 39.2953C40.2603 39.4012 38.9001 39.1959 37.6375 38.6953C37.1635 38.5105 36.6244 38.6446 36.2923 39.0301C34.5452 41.0371 31.5549 41.3782 29.4006 39.8163C27.2464 38.2544 26.6409 35.3063 28.0051 33.0217C28.2261 32.6528 28.2336 32.194 28.0246 31.8182C27.8156 31.4423 27.422 31.2065 26.992 31.1996C26.562 31.1926 26.1609 31.4156 25.9399 31.7845C25.6536 32.2718 25.4234 32.7899 25.2535 33.3289C24.3086 33.2792 23.5634 32.5063 23.5483 31.5601V31.5301C23.5477 31.2135 23.4206 30.9102 23.1952 30.6878C22.9699 30.4654 22.665 30.3422 22.3483 30.3457C21.6827 30.3523 21.147 30.8945 21.1483 31.5601C21.1537 33.6883 22.7586 35.472 24.8743 35.7013C24.8786 36.1036 24.9152 36.5049 24.9835 36.9013C22.3042 37.4811 19.5252 36.518 17.7792 34.4046C16.0332 32.2911 15.6118 29.3803 16.6867 26.8585C16.9552 27.1301 17.2549 27.369 17.5795 27.5701C18.1464 27.9022 18.8749 27.7167 19.214 27.1539C19.553 26.5912 19.3765 25.8605 18.8179 25.5145V25.5193ZM13.5379 35.1589C14.0911 35.0773 14.6623 35.0053 15.2299 34.9309C17.4487 38.4765 21.6921 40.1981 25.7539 39.2005C26.8453 41.2719 28.8396 42.7165 31.148 43.1077C33.4565 43.499 35.8154 42.7922 37.5283 41.1961C38.3438 41.4394 39.1838 41.5915 40.0327 41.6497C40.6123 43.8481 42.2875 45.1801 45.8071 46.3597C46.756 46.6572 47.6024 47.2147 48.2503 47.9689C48.9707 48.8255 50.0303 49.3233 51.1495 49.3309C51.639 49.3308 52.1235 49.232 52.5739 49.0405C53.9342 48.4592 54.8166 47.1226 54.8167 45.6433C54.8178 45.2575 54.7562 44.8741 54.6343 44.5081C54.3645 43.6603 54.0091 42.842 53.5735 42.0661C55.6141 40.5992 57.0356 38.4253 57.5611 35.9677C57.8167 35.6641 58.0478 35.3407 58.2523 35.0005C58.6543 35.0521 59.0563 35.0977 59.4607 35.1649L63.7927 61.2217C55.325 58.3942 46.1677 58.3942 37.6999 61.2217V46.2001C37.6999 45.5374 37.1627 45.0001 36.4999 45.0001C35.8372 45.0001 35.2999 45.5374 35.2999 46.2001V61.2265C26.8331 58.3964 17.6761 58.393 9.20714 61.2169L13.5379 35.1589ZM3.68114 66.1585C3.45439 65.8846 3.36196 65.5237 3.42914 65.1745L8.68394 38.1961H10.6039L6.83834 60.8269C6.70589 61.6507 7.0092 62.4843 7.64002 63.0303C8.27084 63.5763 9.13932 63.7569 9.93554 63.5077C16.3327 61.4352 23.1481 61.0027 29.7559 62.2501L29.3983 66.6001H4.61594C4.25392 66.6004 3.91086 66.4383 3.68114 66.1585ZM36.4999 69.0001C33.6091 69.0001 31.9507 68.1457 31.7071 67.7653L32.1199 62.7853C33.4394 63.1139 34.7307 63.5468 35.9815 64.0801C36.1433 64.1581 36.3204 64.1991 36.4999 64.2001C36.68 64.1999 36.8576 64.1588 37.0195 64.0801C38.2696 63.5437 39.5605 63.1079 40.8799 62.7769L41.2927 67.7641C41.0491 68.1457 39.3907 69.0001 36.4999 69.0001ZM69.3187 66.1585C69.089 66.4383 68.746 66.6004 68.3839 66.6001H43.6051L43.2451 62.2417C49.8566 60.9969 56.6749 61.433 63.0739 63.5101C63.87 63.756 64.7366 63.5728 65.365 63.0258C65.9934 62.4787 66.2942 61.6457 66.1603 60.8233L62.3983 38.1973H64.3183L69.5743 65.1733C69.6409 65.5234 69.5471 65.8849 69.3187 66.1585Z" fill="#073F27"/>
<path d="M32.5231 27.8221C32.0318 28.2666 31.9937 29.025 32.4379 29.5165C33.4558 30.6404 34.8012 31.4161 36.2839 31.7341C35.6124 32.6804 34.5234 33.2419 33.3631 33.2401C32.7003 33.2401 32.1631 33.7773 32.1631 34.4401C32.1631 35.1028 32.7003 35.6401 33.3631 35.6401C35.8473 35.65 38.0762 34.1157 38.9539 31.7917C41.9377 31.2972 44.3 29.0004 44.8783 26.0317C44.9676 25.6071 44.8208 25.1673 44.4942 24.8815C44.1676 24.5958 43.7122 24.5086 43.3032 24.6535C42.8942 24.7984 42.5953 25.1529 42.5215 25.5805C42.2862 26.8182 41.5721 27.913 40.5343 28.6273C38.5378 29.9719 35.8602 29.6667 34.2175 27.9073C33.773 27.4161 33.0146 27.3779 32.5231 27.8221Z" fill="#073F27"/>
<path d="M28.3399 26.5202C29.0026 26.5202 29.5399 25.9829 29.5399 25.3202C29.5399 24.4927 29.8686 23.6991 30.4537 23.114C31.0388 22.5289 31.8324 22.2002 32.6599 22.2002C33.3226 22.2002 33.8599 21.6629 33.8599 21.0002C33.8599 20.3374 33.3226 19.8002 32.6599 19.8002C29.6127 19.8035 27.1432 22.2729 27.1399 25.3202C27.1399 25.6384 27.2663 25.9437 27.4914 26.1687C27.7164 26.3937 28.0216 26.5202 28.3399 26.5202Z" fill="#073F27"/>
<path d="M37.6999 3.0001V1.8001C37.6999 1.13736 37.1627 0.600098 36.4999 0.600098C35.8372 0.600098 35.2999 1.13736 35.2999 1.8001V3.0001C35.2999 3.66284 35.8372 4.2001 36.4999 4.2001C37.1627 4.2001 37.6999 3.66284 37.6999 3.0001Z" fill="#073F27"/>
<path d="M56.192 9.21122L54.992 10.4112C54.68 10.7125 54.5549 11.1587 54.6647 11.5782C54.7746 11.9978 55.1022 12.3254 55.5218 12.4353C55.9413 12.5451 56.3875 12.42 56.6888 12.108L57.8888 10.908C58.2007 10.6067 58.3259 10.1606 58.216 9.74102C58.1062 9.32146 57.7786 8.99381 57.359 8.88399C56.9394 8.77417 56.4933 8.89928 56.192 9.21122Z" fill="#073F27"/>
<path d="M17.1595 12.4596C17.6448 12.4595 18.0822 12.1672 18.2679 11.7188C18.4536 11.2705 18.351 10.7544 18.0079 10.4112L16.8079 9.21122C16.5066 8.89928 16.0605 8.77417 15.6409 8.88399C15.2214 8.99381 14.8937 9.32146 14.7839 9.74102C14.6741 10.1606 14.7992 10.6067 15.1111 10.908L16.3111 12.108C16.5361 12.3331 16.8413 12.4596 17.1595 12.4596Z" fill="#073F27"/>
<path d="M26.3973 7.41008C26.5549 7.40974 26.711 7.37877 26.8569 7.31888C27.151 7.19704 27.3846 6.96333 27.5064 6.66917C27.6282 6.37502 27.628 6.04454 27.5061 5.75048L26.1273 2.42408C25.9693 2.01893 25.6046 1.73092 25.1738 1.67128C24.7431 1.61163 24.3138 1.78967 24.0517 2.13666C23.7896 2.48364 23.7357 2.94526 23.9109 3.34328L25.2885 6.66968C25.4743 7.11799 25.9119 7.4102 26.3973 7.41008Z" fill="#073F27"/>
<path d="M48.44 1.7748C47.8279 1.52161 47.1265 1.81217 46.8728 2.424L45.494 5.7504C45.3716 6.04461 45.3713 6.37539 45.4931 6.66983C45.6149 6.96426 45.8487 7.19818 46.1432 7.32C46.289 7.37989 46.4451 7.41087 46.6028 7.4112C47.0881 7.41133 47.5257 7.11911 47.7116 6.6708L49.0892 3.3444C49.2115 3.0502 49.2118 2.71942 49.0901 2.42498C48.9683 2.13054 48.7344 1.89663 48.44 1.7748Z" fill="#073F27"/>
<path d="M60.8899 21.6985C61.0477 21.6982 61.2039 21.6668 61.3495 21.6061L64.6747 20.2285C65.0709 20.0645 65.3494 19.7017 65.4055 19.2766C65.4615 18.8516 65.2866 18.4289 64.9465 18.1678C64.6064 17.9068 64.1529 17.847 63.7567 18.0109L60.4303 19.3885C59.8995 19.6066 59.5974 20.1699 59.7093 20.7327C59.8213 21.2955 60.3161 21.7003 60.8899 21.6985Z" fill="#073F27"/>
<path d="M11.6503 21.6061C12.2627 21.8599 12.9649 21.5692 13.2187 20.9569C13.4725 20.3445 13.1819 19.6423 12.5695 19.3885L9.2431 18.0109C8.63073 17.7574 7.9288 18.0483 7.6753 18.6607C7.4218 19.273 7.71273 19.975 8.3251 20.2285L11.6503 21.6061Z" fill="#073F27"/>
</g>
</g>
</g>
<defs>
<clipPath id="clip0_15_602">
<rect width="72" height="72" fill="white" transform="translate(0.5)"/>
</clipPath>
<clipPath id="clip1_15_602">
<rect width="70.9823" height="70.8" fill="white" transform="translate(1.00867 0.600098)"/>
</clipPath>
<clipPath id="clip2_15_602">
<rect width="70.9823" height="70.8" fill="white" transform="translate(1.00867 0.600098)"/>
</clipPath>
</defs>
</svg>
