<svg width="35" height="28" viewBox="0 0 35 28" fill="none" xmlns="http://www.w3.org/2000/svg">
<path d="M19.7433 27.1361L24.9144 8.33197L26.6382 15.3835C24.3921 15.3835 22.5639 14.7306 21.1536 13.4248C19.7433 12.1189 19.0382 10.3168 19.0382 8.01856C19.0382 5.77251 19.7694 3.94434 21.232 2.53403C22.6423 1.17595 24.4182 0.496912 26.5598 0.496912C28.7536 0.496912 30.5818 1.17595 32.0443 2.53403C33.4547 3.94434 34.1598 5.77251 34.1598 8.01856C34.1598 8.6976 34.1076 9.35052 34.0031 9.97732C33.8986 10.6564 33.6897 11.4399 33.3763 12.3278C33.0629 13.2158 32.6189 14.3911 32.0443 15.8536L27.5 27.1361L19.7433 27.1361ZM1.25259 27.1361L6.42373 8.33197L8.14744 15.3835C5.90139 15.3835 4.07321 14.7306 2.6629 13.4248C1.25259 12.1189 0.547435 10.3168 0.547435 8.01856C0.547435 5.77251 1.27871 3.94434 2.74125 2.53403C4.15156 1.17595 5.92751 0.496912 8.06909 0.496912C10.2629 0.496912 12.0911 1.17595 13.5536 2.53403C14.9639 3.94434 15.6691 5.77251 15.6691 8.01856C15.6691 8.6976 15.6169 9.35052 15.5124 9.97732C15.4079 10.6564 15.199 11.4399 14.8856 12.3278C14.5722 13.2158 14.1282 14.3911 13.5536 15.8536L9.00929 27.1361L1.25259 27.1361Z" fill="#F5DE19"/>
</svg>
