<svg width="35" height="28" viewBox="0 0 35 28" fill="none" xmlns="http://www.w3.org/2000/svg">
<path d="M15.3476 0.738663L10.1765 19.5428L8.45278 12.4912C10.6988 12.4912 12.527 13.1442 13.9373 14.45C15.3476 15.7558 16.0528 17.5579 16.0528 19.8562C16.0528 22.1022 15.3215 23.9304 13.859 25.3407C12.4487 26.6988 10.6727 27.3778 8.53113 27.3778C6.33732 27.3778 4.50914 26.6988 3.04659 25.3407C1.63628 23.9304 0.93113 22.1022 0.93113 19.8562C0.93113 19.1772 0.983364 18.5242 1.08783 17.8974C1.1923 17.2184 1.40123 16.4349 1.71464 15.5469C2.02804 14.6589 2.47202 13.4837 3.04659 12.0211L7.59092 0.738663L15.3476 0.738663ZM33.8384 0.738663L28.6672 19.5428L26.9435 12.4912C29.1896 12.4912 31.0177 13.1442 32.428 14.45C33.8384 15.7558 34.5435 17.5579 34.5435 19.8562C34.5435 22.1022 33.8122 23.9304 32.3497 25.3407C30.9394 26.6988 29.1634 27.3778 27.0219 27.3778C24.828 27.3778 22.9999 26.6988 21.5373 25.3407C20.127 23.9304 19.4219 22.1022 19.4219 19.8562C19.4219 19.1772 19.4741 18.5242 19.5786 17.8974C19.683 17.2184 19.892 16.4349 20.2054 15.5469C20.5188 14.6589 20.9627 13.4837 21.5373 12.0211L26.0816 0.738663L33.8384 0.738663Z" fill="#F5DE19"/>
</svg>
