<svg width="141" height="206" viewBox="0 0 141 206" fill="none" xmlns="http://www.w3.org/2000/svg">
<mask id="path-1-inside-1_184_1362" fill="white">
<path d="M0 19.25C0 8.89466 8.39466 0.5 18.75 0.5H122.25C132.605 0.5 141 8.89466 141 19.25V187.25C141 197.605 132.605 206 122.25 206H18.75C8.39466 206 0 197.605 0 187.25V19.25Z"/>
</mask>
<path d="M0 19.25C0 8.89466 8.39466 0.5 18.75 0.5H122.25C132.605 0.5 141 8.89466 141 19.25V187.25C141 197.605 132.605 206 122.25 206H18.75C8.39466 206 0 197.605 0 187.25V19.25Z" fill="white"/>
<path d="M-0.75 19.25C-0.75 8.48045 7.98045 -0.25 18.75 -0.25H122.25C133.02 -0.25 141.75 8.48045 141.75 19.25H140.25C140.25 9.30887 132.191 1.25 122.25 1.25H18.75C8.80887 1.25 0.75 9.30887 0.75 19.25H-0.75ZM141.75 192.5C141.75 203.27 133.02 212 122.25 212H18.75C7.98045 212 -0.75 203.27 -0.75 192.5L0.75 187.25C0.75 194.292 8.80887 200 18.75 200H122.25C132.191 200 140.25 194.292 140.25 187.25L141.75 192.5ZM18.75 212C7.98045 212 -0.75 203.27 -0.75 192.5V19.25C-0.75 8.48045 7.98045 -0.25 18.75 -0.25V1.25C8.80887 1.25 0.75 9.30887 0.75 19.25V187.25C0.75 194.292 8.80887 200 18.75 200V212ZM122.25 -0.25C133.02 -0.25 141.75 8.48045 141.75 19.25V192.5C141.75 203.27 133.02 212 122.25 212V200C132.191 200 140.25 194.292 140.25 187.25V19.25C140.25 9.30887 132.191 1.25 122.25 1.25V-0.25Z" fill="#F5DE19" mask="url(#path-1-inside-1_184_1362)"/>
<path d="M101.661 188.096C101.458 188.096 101.277 188.021 101.117 187.872C100.968 187.723 100.893 187.552 100.893 187.36V180.864C100.893 180.651 100.973 180.469 101.133 180.32C101.293 180.171 101.48 180.096 101.693 180.096C101.896 180.096 102.066 180.171 102.205 180.32C102.354 180.469 102.429 180.651 102.429 180.864V182.08C102.728 181.44 103.106 180.955 103.565 180.624C104.024 180.283 104.525 180.112 105.069 180.112C105.666 180.112 106.141 180.251 106.493 180.528C106.845 180.805 107.101 181.264 107.261 181.904C107.421 182.533 107.501 183.408 107.501 184.528L107.485 187.328C107.485 187.531 107.416 187.712 107.277 187.872C107.138 188.021 106.962 188.096 106.749 188.096C106.546 188.096 106.365 188.021 106.205 187.872C106.056 187.712 105.981 187.536 105.981 187.344V184.688C105.981 183.856 105.944 183.216 105.869 182.768C105.794 182.32 105.682 182.016 105.533 181.856C105.384 181.685 105.181 181.6 104.925 181.6C104.605 181.6 104.285 181.739 103.965 182.016C103.645 182.283 103.346 182.667 103.069 183.168C102.824 183.605 102.653 184.032 102.557 184.448C102.461 184.864 102.413 185.365 102.413 185.952V187.296C102.413 187.531 102.344 187.723 102.205 187.872C102.077 188.021 101.896 188.096 101.661 188.096Z" fill="#073F27"/>
<path d="M95.4117 188.096C94.8037 188.096 94.2437 187.931 93.7317 187.6C93.2304 187.269 92.8357 186.821 92.5477 186.256C92.2597 185.68 92.1157 185.056 92.1157 184.384C92.1157 183.627 92.2864 182.923 92.6277 182.272C92.9691 181.611 93.4277 181.088 94.0037 180.704C94.5797 180.309 95.1984 180.112 95.8597 180.112C96.4677 180.112 97.0224 180.283 97.5237 180.624C98.0357 180.965 98.4357 181.419 98.7237 181.984C99.0224 182.549 99.1717 183.157 99.1717 183.808C99.1717 184.576 99.0011 185.291 98.6597 185.952C98.3184 186.603 97.8544 187.125 97.2677 187.52C96.6917 187.904 96.0731 188.096 95.4117 188.096ZM95.4117 186.656C95.7851 186.656 96.1424 186.528 96.4837 186.272C96.8251 186.016 97.0971 185.675 97.2997 185.248C97.5024 184.821 97.6037 184.368 97.6037 183.888C97.6037 183.483 97.5237 183.104 97.3637 182.752C97.2037 182.389 96.9851 182.101 96.7077 181.888C96.4304 181.664 96.1264 181.552 95.7957 181.552C95.4224 181.552 95.0704 181.685 94.7397 181.952C94.4197 182.208 94.1637 182.555 93.9717 182.992C93.7797 183.419 93.6837 183.877 93.6837 184.368C93.6837 184.848 93.7637 185.259 93.9237 185.6C94.0944 185.941 94.3077 186.203 94.5637 186.384C94.8304 186.565 95.1131 186.656 95.4117 186.656Z" fill="#073F27"/>
<path d="M89.6008 179.44C89.3981 179.44 89.2168 179.36 89.0568 179.2C88.9075 179.04 88.8381 178.859 88.8488 178.656L88.8648 178.064C88.8755 177.861 88.9555 177.685 89.1048 177.536C89.2541 177.387 89.4301 177.312 89.6328 177.312C89.8355 177.312 90.0115 177.392 90.1608 177.552C90.3208 177.712 90.3955 177.888 90.3848 178.08L90.3688 178.688C90.3581 178.901 90.2781 179.083 90.1288 179.232C89.9901 179.371 89.8141 179.44 89.6008 179.44ZM89.5208 188.096C89.3075 188.096 89.1208 188.021 88.9608 187.872C88.8115 187.712 88.7368 187.525 88.7368 187.312L88.8168 180.944C88.8168 180.731 88.8915 180.549 89.0408 180.4C89.2008 180.24 89.3875 180.16 89.6008 180.16C89.8248 180.16 90.0115 180.24 90.1608 180.4C90.3101 180.549 90.3848 180.731 90.3848 180.944L90.3048 187.312C90.3048 187.525 90.2248 187.712 90.0648 187.872C89.9155 188.021 89.7341 188.096 89.5208 188.096Z" fill="#073F27"/>
<path d="M84.8791 188.112C84.6764 188.112 84.4951 188.037 84.3351 187.888C84.1858 187.739 84.1111 187.563 84.1111 187.36V181.648H82.8471C82.6338 181.648 82.4524 181.573 82.3031 181.424C82.1538 181.264 82.0791 181.083 82.0791 180.88C82.0791 180.645 82.1591 180.459 82.3191 180.32C82.4791 180.171 82.6658 180.096 82.8791 180.096H84.1111V178.384C84.1111 178.181 84.1858 178 84.3351 177.84C84.4844 177.68 84.6658 177.6 84.8791 177.6C85.1031 177.6 85.2844 177.68 85.4231 177.84C85.5724 177.989 85.6471 178.171 85.6471 178.384V180.096H87.0071C87.2204 180.096 87.4018 180.171 87.5511 180.32C87.7004 180.469 87.7751 180.656 87.7751 180.88C87.7751 181.083 87.7004 181.264 87.5511 181.424C87.4018 181.573 87.2204 181.648 87.0071 181.648H85.6471V187.36C85.6471 187.563 85.5724 187.739 85.4231 187.888C85.2738 188.037 85.0924 188.112 84.8791 188.112Z" fill="#073F27"/>
<path d="M80.4821 188.256C80.2688 188.256 80.0928 188.197 79.9541 188.08C79.8261 187.963 79.7621 187.808 79.7621 187.616V187.392C79.3248 187.861 78.7168 188.096 77.9381 188.096C77.3514 188.096 76.8234 187.952 76.3541 187.664C75.8848 187.376 75.5168 186.971 75.2501 186.448C74.9834 185.915 74.8501 185.312 74.8501 184.64C74.8501 183.893 75.0101 183.173 75.3301 182.48C75.6501 181.776 76.0981 181.205 76.6741 180.768C77.2608 180.331 77.9328 180.112 78.6901 180.112C79.1808 180.112 79.6234 180.181 80.0181 180.32C80.4128 180.448 80.8234 180.608 81.2501 180.8V187.456C81.2501 187.669 81.1754 187.856 81.0261 188.016C80.8768 188.176 80.6954 188.256 80.4821 188.256ZM78.0501 186.608C78.3594 186.608 78.6581 186.544 78.9461 186.416C79.2448 186.288 79.4901 186.133 79.6821 185.952L79.7301 181.776C79.4208 181.648 79.0848 181.584 78.7221 181.584C78.2634 181.584 77.8581 181.728 77.5061 182.016C77.1541 182.293 76.8821 182.667 76.6901 183.136C76.4981 183.595 76.4021 184.085 76.4021 184.608C76.4021 185.259 76.5461 185.755 76.8341 186.096C77.1221 186.437 77.5274 186.608 78.0501 186.608Z" fill="#073F27"/>
<path d="M70.8225 188.096C70.1825 188.096 69.5958 187.941 69.0625 187.632C68.5291 187.323 68.1078 186.901 67.7985 186.368C67.4891 185.824 67.3345 185.232 67.3345 184.592C67.3345 183.867 67.5051 183.157 67.8465 182.464C68.1878 181.771 68.6358 181.205 69.1905 180.768C69.7451 180.331 70.3318 180.112 70.9505 180.112C71.5158 180.112 71.9691 180.203 72.3105 180.384C72.6625 180.555 73.0038 180.832 73.3345 181.216C73.4945 181.387 73.5745 181.573 73.5745 181.776C73.5745 181.979 73.4998 182.155 73.3505 182.304C73.2011 182.443 73.0198 182.512 72.8065 182.512C72.6678 182.512 72.5558 182.491 72.4705 182.448C72.3958 182.405 72.3051 182.32 72.1985 182.192C72.0171 181.989 71.8358 181.835 71.6545 181.728C71.4838 181.621 71.2545 181.568 70.9665 181.568C70.6358 181.568 70.2998 181.712 69.9585 182C69.6278 182.288 69.3558 182.667 69.1425 183.136C68.9398 183.595 68.8385 184.069 68.8385 184.56C68.8385 184.987 68.9291 185.36 69.1105 185.68C69.3025 185.989 69.5478 186.229 69.8465 186.4C70.1451 186.56 70.4598 186.64 70.7905 186.64C71.2171 186.64 71.5638 186.56 71.8305 186.4C72.1078 186.24 72.3531 186.021 72.5665 185.744C72.7691 185.477 72.9985 185.344 73.2545 185.344C73.4571 185.344 73.6331 185.419 73.7825 185.568C73.9318 185.707 74.0065 185.867 74.0065 186.048C74.0065 186.261 73.9478 186.443 73.8305 186.592C73.5211 187.008 73.0998 187.365 72.5665 187.664C72.0331 187.952 71.4518 188.096 70.8225 188.096Z" fill="#073F27"/>
<path d="M64.8196 179.44C64.6169 179.44 64.4356 179.36 64.2756 179.2C64.1262 179.04 64.0569 178.859 64.0676 178.656L64.0836 178.064C64.0942 177.861 64.1742 177.685 64.3236 177.536C64.4729 177.387 64.6489 177.312 64.8516 177.312C65.0542 177.312 65.2302 177.392 65.3796 177.552C65.5396 177.712 65.6142 177.888 65.6036 178.08L65.5876 178.688C65.5769 178.901 65.4969 179.083 65.3476 179.232C65.2089 179.371 65.0329 179.44 64.8196 179.44ZM64.7396 188.096C64.5262 188.096 64.3396 188.021 64.1796 187.872C64.0302 187.712 63.9556 187.525 63.9556 187.312L64.0356 180.944C64.0356 180.731 64.1102 180.549 64.2596 180.4C64.4196 180.24 64.6062 180.16 64.8196 180.16C65.0436 180.16 65.2302 180.24 65.3796 180.4C65.5289 180.549 65.6036 180.731 65.6036 180.944L65.5236 187.312C65.5236 187.525 65.4436 187.712 65.2836 187.872C65.1342 188.021 64.9529 188.096 64.7396 188.096Z" fill="#073F27"/>
<path d="M60.9423 188.096C60.7397 188.096 60.5583 188.027 60.3983 187.888C60.249 187.739 60.1743 187.568 60.1743 187.376V178.096C60.1743 177.883 60.2436 177.707 60.3823 177.568C60.5316 177.419 60.7183 177.344 60.9423 177.344C61.145 177.344 61.321 177.419 61.4703 177.568C61.6303 177.717 61.7103 177.893 61.7103 178.096V187.376C61.7103 187.568 61.6303 187.739 61.4703 187.888C61.3103 188.027 61.1343 188.096 60.9423 188.096Z" fill="#073F27"/>
<path d="M52.5986 190.928C52.3959 190.928 52.2146 190.848 52.0546 190.688C51.9052 190.539 51.8306 190.363 51.8306 190.16V180.88C51.8306 180.656 51.9052 180.469 52.0546 180.32C52.2039 180.171 52.3906 180.096 52.6146 180.096C52.7959 180.096 52.9612 180.165 53.1106 180.304C53.2706 180.443 53.3506 180.624 53.3506 180.848V181.024C53.8946 180.405 54.6946 180.096 55.7506 180.096C56.1879 180.096 56.6092 180.235 57.0146 180.512C57.4306 180.789 57.7719 181.205 58.0386 181.76C58.3052 182.304 58.4386 182.96 58.4386 183.728C58.4386 184.421 58.3319 185.088 58.1186 185.728C57.9052 186.368 57.5319 186.907 56.9986 187.344C56.4759 187.771 55.7719 187.984 54.8866 187.984C54.3746 187.984 53.8679 187.84 53.3666 187.552V190.16C53.3666 190.363 53.2866 190.539 53.1266 190.688C52.9772 190.848 52.8012 190.928 52.5986 190.928ZM54.9826 186.512C55.6012 186.512 56.0866 186.283 56.4386 185.824C56.8012 185.355 56.9826 184.656 56.9826 183.728C56.9826 183.045 56.8492 182.512 56.5826 182.128C56.3266 181.733 56.0066 181.536 55.6226 181.536C55.0786 181.536 54.6146 181.643 54.2306 181.856C53.8572 182.069 53.5692 182.309 53.3666 182.576V186.128C54.0172 186.384 54.5559 186.512 54.9826 186.512Z" fill="#073F27"/>
<path d="M44.2548 190.928C44.0521 190.928 43.8708 190.848 43.7108 190.688C43.5615 190.539 43.4868 190.363 43.4868 190.16V180.88C43.4868 180.656 43.5615 180.469 43.7108 180.32C43.8601 180.171 44.0468 180.096 44.2708 180.096C44.4521 180.096 44.6175 180.165 44.7668 180.304C44.9268 180.443 45.0068 180.624 45.0068 180.848V181.024C45.5508 180.405 46.3508 180.096 47.4068 180.096C47.8441 180.096 48.2655 180.235 48.6708 180.512C49.0868 180.789 49.4281 181.205 49.6948 181.76C49.9615 182.304 50.0948 182.96 50.0948 183.728C50.0948 184.421 49.9881 185.088 49.7748 185.728C49.5615 186.368 49.1881 186.907 48.6548 187.344C48.1321 187.771 47.4281 187.984 46.5428 187.984C46.0308 187.984 45.5241 187.84 45.0228 187.552V190.16C45.0228 190.363 44.9428 190.539 44.7828 190.688C44.6335 190.848 44.4575 190.928 44.2548 190.928ZM46.6388 186.512C47.2575 186.512 47.7428 186.283 48.0948 185.824C48.4575 185.355 48.6388 184.656 48.6388 183.728C48.6388 183.045 48.5055 182.512 48.2388 182.128C47.9828 181.733 47.6628 181.536 47.2788 181.536C46.7348 181.536 46.2708 181.643 45.8868 181.856C45.5135 182.069 45.2255 182.309 45.0228 182.576V186.128C45.6735 186.384 46.2121 186.512 46.6388 186.512Z" fill="#073F27"/>
<path d="M41.4427 188.112C41.0587 188.112 40.8081 187.931 40.6907 187.568L39.5387 184.24L36.2747 184.96L35.2347 187.584C35.1707 187.733 35.0747 187.856 34.9467 187.952C34.8294 188.048 34.6801 188.096 34.4987 188.096C34.2854 188.096 34.0987 188.021 33.9387 187.872C33.7787 187.723 33.6987 187.547 33.6987 187.344C33.6987 187.205 33.7361 187.045 33.8107 186.864L34.4507 185.264C34.3867 185.243 34.3387 185.221 34.3067 185.2C34.0294 185.061 33.8907 184.827 33.8907 184.496C33.8907 184.304 33.9441 184.139 34.0507 184C34.1681 183.861 34.3174 183.771 34.4987 183.728L35.0907 183.6L37.4587 177.584C37.5227 177.424 37.6241 177.301 37.7627 177.216C37.9014 177.131 38.0507 177.088 38.2107 177.088C38.3814 177.088 38.5307 177.131 38.6587 177.216C38.7867 177.301 38.8827 177.435 38.9467 177.616L42.1307 186.848C42.1414 186.869 42.1627 186.933 42.1947 187.04C42.2267 187.136 42.2427 187.237 42.2427 187.344C42.2427 187.547 42.1681 187.728 42.0187 187.888C41.8694 188.037 41.6774 188.112 41.4427 188.112ZM39.0107 182.752L38.1467 180.176L36.9467 183.2L39.0107 182.752Z" fill="#073F27"/>
<path d="M108.63 170.096C108.428 170.096 108.246 170.021 108.086 169.872C107.926 169.723 107.846 169.552 107.846 169.36V162.88C107.846 162.667 107.921 162.485 108.07 162.336C108.23 162.187 108.417 162.112 108.63 162.112C108.844 162.112 109.025 162.187 109.174 162.336C109.334 162.485 109.414 162.667 109.414 162.88V163.36C109.937 162.507 110.652 162.08 111.558 162.08C112.102 162.08 112.492 162.229 112.726 162.528C112.972 162.827 113.094 163.184 113.094 163.6V164.08C113.094 164.293 113.02 164.475 112.87 164.624C112.732 164.763 112.556 164.832 112.342 164.832C112.086 164.832 111.894 164.757 111.766 164.608C111.649 164.459 111.59 164.277 111.59 164.064V163.856C111.59 163.685 111.473 163.6 111.238 163.6C111.046 163.6 110.822 163.696 110.566 163.888C110.321 164.08 110.118 164.283 109.958 164.496C109.734 164.773 109.585 165.051 109.51 165.328C109.446 165.605 109.414 165.936 109.414 166.32L109.398 169.36C109.398 169.552 109.318 169.723 109.158 169.872C108.998 170.021 108.822 170.096 108.63 170.096Z" fill="#073F27"/>
<path d="M101.757 170.144C101.181 170.144 100.722 170.021 100.381 169.776C100.04 169.52 99.7836 169.061 99.6129 168.4C99.4423 167.739 99.3569 166.789 99.3569 165.552C99.3569 165.136 99.3729 164.677 99.4049 164.176C99.4369 163.675 99.4796 163.253 99.5329 162.912C99.5756 162.645 99.6556 162.443 99.7729 162.304C99.8903 162.165 100.061 162.096 100.285 162.096C100.498 162.096 100.68 162.16 100.829 162.288C100.978 162.416 101.053 162.603 101.053 162.848L101.021 163.296C100.914 164.203 100.861 165.072 100.861 165.904C100.861 166.992 100.952 167.733 101.133 168.128C101.325 168.512 101.586 168.704 101.917 168.704C102.301 168.704 102.696 168.603 103.101 168.4C103.506 168.187 103.794 167.984 103.965 167.792C104.029 167.728 104.061 167.595 104.061 167.392L104.093 162.832C104.093 162.619 104.168 162.443 104.317 162.304C104.477 162.165 104.653 162.096 104.845 162.096C105.048 162.096 105.224 162.165 105.373 162.304C105.533 162.443 105.613 162.619 105.613 162.832V169.328C105.613 169.531 105.533 169.712 105.373 169.872C105.224 170.021 105.048 170.096 104.845 170.096C104.632 170.096 104.44 170.032 104.269 169.904C104.109 169.765 104.029 169.595 104.029 169.392V169.216C103.624 169.504 103.245 169.733 102.893 169.904C102.552 170.064 102.173 170.144 101.757 170.144Z" fill="#073F27"/>
<path d="M94.0836 170.096C93.4756 170.096 92.9156 169.931 92.4036 169.6C91.9023 169.269 91.5076 168.821 91.2196 168.256C90.9316 167.68 90.7876 167.056 90.7876 166.384C90.7876 165.627 90.9583 164.923 91.2996 164.272C91.6409 163.611 92.0996 163.088 92.6756 162.704C93.2516 162.309 93.8703 162.112 94.5316 162.112C95.1396 162.112 95.6943 162.283 96.1956 162.624C96.7076 162.965 97.1076 163.419 97.3956 163.984C97.6943 164.549 97.8436 165.157 97.8436 165.808C97.8436 166.576 97.6729 167.291 97.3316 167.952C96.9903 168.603 96.5263 169.125 95.9396 169.52C95.3636 169.904 94.7449 170.096 94.0836 170.096ZM94.0836 168.656C94.4569 168.656 94.8143 168.528 95.1556 168.272C95.4969 168.016 95.7689 167.675 95.9716 167.248C96.1743 166.821 96.2756 166.368 96.2756 165.888C96.2756 165.483 96.1956 165.104 96.0356 164.752C95.8756 164.389 95.6569 164.101 95.3796 163.888C95.1023 163.664 94.7983 163.552 94.4676 163.552C94.0943 163.552 93.7423 163.685 93.4116 163.952C93.0916 164.208 92.8356 164.555 92.6436 164.992C92.4516 165.419 92.3556 165.877 92.3556 166.368C92.3556 166.848 92.4356 167.259 92.5956 167.6C92.7663 167.941 92.9796 168.203 93.2356 168.384C93.5023 168.565 93.7849 168.656 94.0836 168.656Z" fill="#073F27"/>
<path d="M84.8283 170.096C84.6149 170.096 84.4283 170.016 84.2683 169.856C84.1189 169.696 84.0443 169.515 84.0443 169.312C84.0443 169.227 84.0496 169.157 84.0603 169.104C84.0816 169.04 84.1189 168.96 84.1723 168.864L85.5643 166.528L82.0123 160.448C81.9269 160.288 81.8843 160.133 81.8843 159.984C81.8843 159.771 81.9589 159.589 82.1083 159.44C82.2683 159.28 82.4603 159.2 82.6843 159.2C82.8123 159.2 82.9349 159.237 83.0523 159.312C83.1803 159.376 83.2816 159.472 83.3563 159.6L86.4923 164.96L89.6763 159.584C89.7509 159.456 89.8469 159.36 89.9643 159.296C90.0923 159.232 90.2256 159.2 90.3643 159.2C90.5669 159.2 90.7483 159.28 90.9083 159.44C91.0683 159.589 91.1483 159.771 91.1483 159.984C91.1483 160.08 91.1376 160.16 91.1163 160.224C91.0949 160.288 91.0523 160.379 90.9883 160.496L85.5163 169.696C85.4416 169.824 85.3403 169.925 85.2123 170C85.0949 170.064 84.9669 170.096 84.8283 170.096Z" fill="#073F27"/>
<path d="M73.3791 170.112C73.1764 170.112 72.9951 170.037 72.8351 169.888C72.6858 169.739 72.6111 169.563 72.6111 169.36V163.648H71.3471C71.1338 163.648 70.9524 163.573 70.8031 163.424C70.6538 163.264 70.5791 163.083 70.5791 162.88C70.5791 162.645 70.6591 162.459 70.8191 162.32C70.9791 162.171 71.1658 162.096 71.3791 162.096H72.6111V160.384C72.6111 160.181 72.6858 160 72.8351 159.84C72.9844 159.68 73.1658 159.6 73.3791 159.6C73.6031 159.6 73.7844 159.68 73.9231 159.84C74.0724 159.989 74.1471 160.171 74.1471 160.384V162.096H75.5071C75.7204 162.096 75.9018 162.171 76.0511 162.32C76.2004 162.469 76.2751 162.656 76.2751 162.88C76.2751 163.083 76.2004 163.264 76.0511 163.424C75.9018 163.573 75.7204 163.648 75.5071 163.648H74.1471V169.36C74.1471 169.563 74.0724 169.739 73.9231 169.888C73.7738 170.037 73.5924 170.112 73.3791 170.112Z" fill="#073F27"/>
<path d="M68.9602 161.44C68.7575 161.44 68.5762 161.36 68.4162 161.2C68.2669 161.04 68.1975 160.859 68.2082 160.656L68.2242 160.064C68.2349 159.861 68.3149 159.685 68.4642 159.536C68.6135 159.387 68.7895 159.312 68.9922 159.312C69.1949 159.312 69.3709 159.392 69.5202 159.552C69.6802 159.712 69.7549 159.888 69.7442 160.08L69.7282 160.688C69.7175 160.901 69.6375 161.083 69.4882 161.232C69.3495 161.371 69.1735 161.44 68.9602 161.44ZM68.8802 170.096C68.6669 170.096 68.4802 170.021 68.3202 169.872C68.1709 169.712 68.0962 169.525 68.0962 169.312L68.1762 162.944C68.1762 162.731 68.2509 162.549 68.4002 162.4C68.5602 162.24 68.7469 162.16 68.9602 162.16C69.1842 162.16 69.3709 162.24 69.5202 162.4C69.6695 162.549 69.7442 162.731 69.7442 162.944L69.6642 169.312C69.6642 169.525 69.5842 169.712 69.4242 169.872C69.2749 170.021 69.0935 170.096 68.8802 170.096Z" fill="#073F27"/>
<path d="M56.1298 170.096C55.9271 170.096 55.7458 170.021 55.5858 169.872C55.4365 169.723 55.3618 169.547 55.3618 169.344V162.88C55.3618 162.677 55.4365 162.501 55.5858 162.352C55.7458 162.192 55.9271 162.112 56.1298 162.112C56.3431 162.112 56.5245 162.192 56.6738 162.352C56.8231 162.501 56.8978 162.677 56.8978 162.88V164C57.5591 162.741 58.4392 162.112 59.5378 162.112C59.9752 162.112 60.3538 162.24 60.6738 162.496C61.0045 162.752 61.2392 163.136 61.3778 163.648C62.0605 162.624 62.8925 162.112 63.8738 162.112C64.5351 162.112 65.0578 162.368 65.4418 162.88C65.8258 163.381 66.0178 164.139 66.0178 165.152V169.344C66.0178 169.547 65.9378 169.723 65.7778 169.872C65.6285 170.021 65.4525 170.096 65.2498 170.096C65.0365 170.096 64.8551 170.021 64.7058 169.872C64.5565 169.723 64.4818 169.547 64.4818 169.344V165.056C64.4818 164.565 64.4125 164.197 64.2738 163.952C64.1351 163.707 63.9165 163.584 63.6178 163.584C63.3085 163.584 62.9991 163.707 62.6898 163.952C62.3805 164.197 62.1245 164.533 61.9218 164.96C61.7298 165.387 61.6338 165.856 61.6338 166.368V169.344C61.6338 169.557 61.5591 169.739 61.4098 169.888C61.2605 170.027 61.0791 170.096 60.8658 170.096C60.6631 170.096 60.4818 170.021 60.3218 169.872C60.1725 169.723 60.0978 169.547 60.0978 169.344V165.056C60.0978 164.544 60.0338 164.171 59.9058 163.936C59.7885 163.701 59.5911 163.584 59.3138 163.584C58.9725 163.584 58.6365 163.723 58.3058 164C57.9751 164.267 57.6871 164.592 57.4418 164.976C57.2498 165.296 57.1058 165.616 57.0098 165.936C56.9245 166.256 56.8818 166.608 56.8818 166.992L56.8978 169.344C56.8978 169.547 56.8231 169.723 56.6738 169.872C56.5245 170.021 56.3431 170.096 56.1298 170.096Z" fill="#073F27"/>
<path d="M47.6916 170.08C47.4782 170.08 47.3022 170.011 47.1636 169.872C47.0249 169.733 46.9556 169.563 46.9556 169.36V160.064C46.9556 159.851 47.0302 159.68 47.1796 159.552C47.3289 159.413 47.5102 159.344 47.7236 159.344C47.9262 159.344 48.1022 159.413 48.2516 159.552C48.4009 159.68 48.4756 159.851 48.4756 160.064V163.2C48.7849 162.859 49.1262 162.613 49.4996 162.464C49.8729 162.315 50.2836 162.24 50.7316 162.24C51.2649 162.24 51.7502 162.379 52.1876 162.656C52.6249 162.923 52.9716 163.323 53.2276 163.856C53.4942 164.389 53.6276 165.035 53.6276 165.792C53.6276 167.157 53.3129 168.203 52.6836 168.928C52.0542 169.643 51.1956 170 50.1076 170C49.8089 170 49.4889 169.952 49.1476 169.856C48.8169 169.749 48.5609 169.632 48.3796 169.504V169.6C48.3796 169.707 48.3102 169.813 48.1716 169.92C48.0436 170.027 47.8836 170.08 47.6916 170.08ZM49.9956 168.496C50.7422 168.496 51.2809 168.261 51.6116 167.792C51.9529 167.323 52.1236 166.656 52.1236 165.792C52.1236 165.131 51.9956 164.629 51.7396 164.288C51.4836 163.947 51.1369 163.776 50.6996 163.776C50.2942 163.776 49.9209 163.851 49.5796 164C49.2382 164.149 48.9662 164.352 48.7636 164.608C48.5716 164.864 48.4756 165.147 48.4756 165.456V168.224C49.0196 168.405 49.5262 168.496 49.9956 168.496Z" fill="#073F27"/>
<path d="M40.8663 170.144C40.2903 170.144 39.8316 170.021 39.4903 169.776C39.149 169.52 38.893 169.061 38.7223 168.4C38.5516 167.739 38.4663 166.789 38.4663 165.552C38.4663 165.136 38.4823 164.677 38.5143 164.176C38.5463 163.675 38.589 163.253 38.6423 162.912C38.685 162.645 38.765 162.443 38.8823 162.304C38.9996 162.165 39.1703 162.096 39.3943 162.096C39.6076 162.096 39.789 162.16 39.9383 162.288C40.0876 162.416 40.1623 162.603 40.1623 162.848L40.1303 163.296C40.0236 164.203 39.9703 165.072 39.9703 165.904C39.9703 166.992 40.061 167.733 40.2423 168.128C40.4343 168.512 40.6956 168.704 41.0263 168.704C41.4103 168.704 41.805 168.603 42.2103 168.4C42.6156 168.187 42.9036 167.984 43.0743 167.792C43.1383 167.728 43.1703 167.595 43.1703 167.392L43.2023 162.832C43.2023 162.619 43.277 162.443 43.4263 162.304C43.5863 162.165 43.7623 162.096 43.9543 162.096C44.157 162.096 44.333 162.165 44.4823 162.304C44.6423 162.443 44.7223 162.619 44.7223 162.832V169.328C44.7223 169.531 44.6423 169.712 44.4823 169.872C44.333 170.021 44.157 170.096 43.9543 170.096C43.741 170.096 43.549 170.032 43.3783 169.904C43.2183 169.765 43.1383 169.595 43.1383 169.392V169.216C42.733 169.504 42.3543 169.733 42.0023 169.904C41.661 170.064 41.2823 170.144 40.8663 170.144Z" fill="#073F27"/>
<path d="M33.1401 170.096C32.2228 170.096 31.4228 169.893 30.7401 169.488C30.0681 169.083 29.5935 168.587 29.3161 168C29.1988 167.744 29.1401 167.536 29.1401 167.376C29.1401 167.152 29.2201 166.965 29.3801 166.816C29.5401 166.656 29.7321 166.576 29.9561 166.576C30.1481 166.576 30.3135 166.629 30.4521 166.736C30.5908 166.843 30.6921 166.987 30.7561 167.168C30.9268 167.627 31.2415 167.979 31.7001 168.224C32.1588 168.469 32.6495 168.592 33.1721 168.592C33.8335 168.592 34.3775 168.437 34.8041 168.128C35.2415 167.808 35.4601 167.419 35.4601 166.96C35.4601 166.608 35.2841 166.288 34.9321 166C34.5908 165.712 34.0041 165.451 33.1721 165.216C32.0948 164.917 31.2468 164.533 30.6281 164.064C30.0095 163.584 29.7001 162.928 29.7001 162.096C29.7001 161.531 29.8495 161.029 30.1481 160.592C30.4575 160.144 30.8948 159.797 31.4601 159.552C32.0255 159.307 32.6868 159.184 33.4441 159.184C34.5321 159.184 35.3855 159.397 36.0041 159.824C36.6335 160.251 36.9481 160.821 36.9481 161.536C36.9481 161.771 36.8735 161.968 36.7241 162.128C36.5748 162.288 36.3881 162.368 36.1641 162.368C35.9721 162.368 35.8068 162.304 35.6681 162.176C35.5295 162.048 35.4495 161.888 35.4281 161.696C35.3855 161.397 35.1881 161.152 34.8361 160.96C34.4841 160.757 34.0201 160.656 33.4441 160.656C32.7295 160.656 32.1855 160.779 31.8121 161.024C31.4388 161.259 31.2521 161.579 31.2521 161.984C31.2521 162.357 31.4441 162.672 31.8281 162.928C32.2121 163.184 32.8415 163.44 33.7161 163.696C34.7935 164.005 35.6095 164.421 36.1641 164.944C36.7188 165.467 36.9961 166.112 36.9961 166.88C36.9961 167.477 36.8201 168.021 36.4681 168.512C36.1161 169.003 35.6415 169.392 35.0441 169.68C34.4575 169.957 33.8228 170.096 33.1401 170.096Z" fill="#073F27"/>
<rect x="9.375" y="20.375" width="123" height="123" rx="61.5" stroke="#F5DE19" stroke-opacity="0.5" stroke-width="0.75"/>
<path d="M94.7664 36.7661L92.963 35.7187L47.0029 63.0259V129.192C47.0029 129.802 47.2174 130.234 47.5528 130.435L48.6991 131.1C49.0483 131.301 49.5239 131.27 50.06 130.965L92.842 106.261C93.4021 105.896 93.8682 105.404 94.2025 104.826C94.5369 104.247 94.7301 103.597 94.7664 102.93V36.7661Z" fill="#E6E6E6"/>
<path opacity="0.15" d="M47.5636 130.435L48.71 131.1C48.8631 131.184 49.0356 131.227 49.2103 131.224L48.1464 129.849V63.7076L47 63.0396V129.192C47.0027 129.802 47.2062 130.237 47.5636 130.435Z" fill="black"/>
<path d="M49.2131 131.009C49.4752 130.998 49.7305 130.922 49.9553 130.786L92.7346 106.08C93.2614 105.735 93.6998 105.271 94.0145 104.726C94.3291 104.181 94.5113 103.569 94.5463 102.941V37.1483L48.3608 63.8149V129.857C48.3718 130.578 48.6852 131.009 49.2131 131.009Z" fill="#FAFAFA"/>
<path d="M94.3316 37.5331V102.93C94.2947 103.519 94.1219 104.092 93.8267 104.603C93.5314 105.114 93.1218 105.55 92.6299 105.877L49.8506 130.583C49.6587 130.704 49.4392 130.774 49.2128 130.787C48.663 130.787 48.5943 130.135 48.5943 129.857V63.9496L94.3316 37.5331ZM94.766 36.7661L48.1489 63.7076V129.857C48.1489 130.726 48.5833 131.232 49.2128 131.232C49.5176 131.222 49.8143 131.132 50.0733 130.971L92.8416 106.261C93.4017 105.896 93.8678 105.404 94.2022 104.826C94.5365 104.247 94.7297 103.597 94.766 102.93V36.7661Z" fill="#E0E0E0"/>
<path d="M93.0839 33.14C92.7348 32.9256 92.2454 32.9503 91.7093 33.2637L48.9273 57.9702C48.3671 58.3351 47.9009 58.827 47.5665 59.4059C47.2321 59.9849 47.039 60.6345 47.0029 61.3021V63.0259L48.1493 63.6939L94.7664 36.7661V35.0397C94.7664 34.4294 94.5519 34.0005 94.2166 33.7998C93.8812 33.5991 93.3918 33.3325 93.0839 33.14Z" fill="#073F27"/>
<path d="M48.1489 61.9674C48.185 61.2998 48.3781 60.6502 48.7125 60.0712C49.0469 59.4923 49.5131 59.0004 50.0733 58.6355L92.8416 33.929C93.9028 33.316 94.766 33.8136 94.766 35.0287V36.7661L48.1489 63.7076V61.9674Z" fill="#073F27"/>
<path opacity="0.3" d="M48.1489 61.9674C48.185 61.2998 48.3781 60.6502 48.7125 60.0712C49.0469 59.4923 49.5131 59.0004 50.0733 58.6355L92.8416 33.929C93.9028 33.316 94.766 33.8136 94.766 35.0287V36.7661L48.1489 63.7076V61.9674Z" fill="white"/>
<path d="M94.2383 33.8108C93.8864 33.5936 93.3998 33.6129 92.8637 33.929L50.0734 58.6355C49.5047 58.9889 49.0369 59.4832 48.7154 60.0705L47.5635 59.408C47.8916 58.8194 48.3648 58.3245 48.938 57.9702L91.7146 33.261C92.2644 32.9503 92.7455 32.9283 93.0891 33.1428C93.4328 33.3572 93.9139 33.6101 94.2273 33.7971C94.2163 33.8026 94.2328 33.8053 94.2383 33.8108Z" fill="#073F27"/>
<path opacity="0.45" d="M94.2383 33.8108C93.8864 33.5936 93.3998 33.6129 92.8637 33.929L50.0734 58.6355C49.5047 58.9889 49.0369 59.4832 48.7154 60.0705L47.5635 59.408C47.8916 58.8194 48.3648 58.3245 48.938 57.9702L91.7146 33.261C92.2644 32.9503 92.7455 32.9283 93.0891 33.1428C93.4328 33.3572 93.9139 33.6101 94.2273 33.7971C94.2163 33.8026 94.2328 33.8053 94.2383 33.8108Z" fill="white"/>
<path d="M88.0585 38.028C87.863 38.1553 87.7004 38.327 87.5838 38.5291C87.4673 38.7312 87.4001 38.9579 87.3877 39.1909C87.3877 39.6197 87.6874 39.7929 88.0585 39.5785C88.2544 39.4514 88.4176 39.2799 88.5347 39.0778C88.6517 38.8757 88.7193 38.6488 88.732 38.4156C88.732 37.9867 88.4434 37.8135 88.0585 38.028Z" fill="white"/>
<path d="M90.4091 36.6754C90.2135 36.8026 90.0507 36.9742 89.9341 37.1764C89.8176 37.3785 89.7504 37.6053 89.7383 37.8383C89.7383 38.2672 90.0379 38.4403 90.4091 38.2259C90.6049 38.0987 90.7679 37.9271 90.885 37.7251C91.002 37.523 91.0697 37.2962 91.0826 37.063C91.0826 36.6342 90.7802 36.461 90.4091 36.6754Z" fill="white"/>
<path d="M92.7592 35.3201C92.5626 35.4482 92.3993 35.6212 92.2827 35.8248C92.1661 36.0285 92.0995 36.2568 92.0884 36.4912C92.0884 36.9201 92.388 37.0933 92.7592 36.8788C92.9551 36.7518 93.1183 36.5802 93.2353 36.3781C93.3524 36.1761 93.42 35.9492 93.4327 35.716C93.4327 35.2788 93.1303 35.1166 92.7592 35.3201Z" fill="white"/>
<path d="M73.2793 53.2994V68.6286C73.2793 68.887 73.4607 68.9915 73.6862 68.8623L90.6428 59.0753C90.7613 58.9984 90.8599 58.8945 90.9307 58.7722C91.0014 58.6499 91.0422 58.5126 91.0497 58.3716V43.0424C91.0497 42.784 90.8683 42.6795 90.6428 42.8087L73.6917 52.5956C73.5722 52.672 73.4725 52.7755 73.4008 52.8979C73.3291 53.0202 73.2875 53.1578 73.2793 53.2994Z" fill="#073F27"/>
<path opacity="0.5" d="M73.2793 53.2994V68.6286C73.2793 68.887 73.4607 68.9915 73.6862 68.8623L90.6428 59.0753C90.7613 58.9984 90.8599 58.8945 90.9307 58.7722C91.0014 58.6499 91.0422 58.5126 91.0497 58.3716V43.0424C91.0497 42.784 90.8683 42.6795 90.6428 42.8087L73.6917 52.5956C73.5722 52.672 73.4725 52.7755 73.4008 52.8979C73.3291 53.0202 73.2875 53.1578 73.2793 53.2994Z" fill="white"/>
<path opacity="0.5" d="M74.2168 53.3709L90.1068 44.197V58.3001L74.2168 67.4739V53.3709Z" fill="white"/>
<path d="M74.2168 67.4739V63.5344L78.5082 53.7915L85.5047 58.652L83.1845 56.296L86.137 52.5984L90.1068 54.3991V58.3001L74.2168 67.4739Z" fill="white"/>
<path d="M85.6 51.1515C86.0957 50.2929 86.0957 49.3648 85.6 49.0786C85.1043 48.7924 84.3005 49.2565 83.8048 50.1151C83.3091 50.9737 83.3091 51.9018 83.8048 52.188C84.3005 52.4742 85.1042 52.0101 85.6 51.1515Z" fill="white"/>
<path d="M73.2791 72.8595C73.224 72.8588 73.1706 72.8402 73.1271 72.8064C73.0836 72.7726 73.0523 72.7255 73.038 72.6723C73.0237 72.6191 73.0271 72.5627 73.0478 72.5116C73.0685 72.4605 73.1053 72.4176 73.1526 72.3894L90.9175 62.1324C90.9752 62.1033 91.0418 62.0974 91.1037 62.1158C91.1655 62.1342 91.218 62.1756 91.2504 62.2315C91.2827 62.2874 91.2925 62.3536 91.2776 62.4164C91.2627 62.4792 91.2244 62.534 91.1705 62.5695L73.4055 72.8265C73.3667 72.8475 73.3233 72.8588 73.2791 72.8595Z" fill="#E0E0E0"/>
<path d="M73.2791 75.2183C73.224 75.2176 73.1706 75.1989 73.1271 75.1651C73.0836 75.1313 73.0523 75.0843 73.038 75.0311C73.0237 74.9779 73.0271 74.9214 73.0478 74.8704C73.0685 74.8193 73.1053 74.7764 73.1526 74.7482L90.9175 64.4911C90.9756 64.4583 91.0442 64.4496 91.1086 64.4671C91.173 64.4847 91.2278 64.5269 91.2612 64.5846C91.2783 64.613 91.2896 64.6445 91.2943 64.6773C91.299 64.7102 91.2971 64.7436 91.2886 64.7756C91.2801 64.8077 91.2653 64.8377 91.245 64.8639C91.2247 64.8902 91.1994 64.912 91.1705 64.9283L73.4055 75.1853C73.3667 75.2063 73.3233 75.2176 73.2791 75.2183Z" fill="#E0E0E0"/>
<path d="M73.2794 77.5798C73.2234 77.5801 73.1689 77.5619 73.1244 77.5279C73.0799 77.494 73.048 77.4463 73.0335 77.3922C73.019 77.3381 73.0229 77.2808 73.0445 77.2292C73.0661 77.1775 73.1043 77.1346 73.1529 77.1069L90.9178 66.8499C90.9759 66.817 91.0445 66.8084 91.1089 66.8259C91.1733 66.8434 91.2281 66.8856 91.2615 66.9434C91.2786 66.9717 91.2899 67.0033 91.2946 67.0361C91.2993 67.0689 91.2974 67.1023 91.2889 67.1344C91.2804 67.1665 91.2656 67.1965 91.2453 67.2227C91.225 67.2489 91.1997 67.2708 91.1708 67.287L73.4059 77.544C73.3679 77.5675 73.3241 77.5799 73.2794 77.5798Z" fill="#E0E0E0"/>
<path d="M73.2792 79.9275C73.2347 79.9274 73.191 79.9157 73.1524 79.8935C73.1138 79.8713 73.0817 79.8395 73.0592 79.8011C73.0264 79.743 73.0177 79.6744 73.0352 79.61C73.0527 79.5456 73.095 79.4908 73.1527 79.4574L90.9176 69.2059C90.9753 69.1768 91.0419 69.1709 91.1037 69.1893C91.1656 69.2078 91.2181 69.2492 91.2505 69.305C91.2828 69.3609 91.2925 69.4271 91.2777 69.4899C91.2628 69.5528 91.2245 69.6075 91.1705 69.643L73.4056 79.9055C73.3658 79.9227 73.3225 79.9303 73.2792 79.9275Z" fill="#E0E0E0"/>
<path d="M73.2791 82.4457C73.2228 82.4474 73.1676 82.4301 73.1224 82.3965C73.0772 82.3629 73.0447 82.315 73.0301 82.2607C73.0154 82.2063 73.0196 82.1486 73.0418 82.0969C73.0641 82.0451 73.1031 82.0024 73.1526 81.9756L90.9175 71.7186C90.9756 71.6857 91.0442 71.6771 91.1086 71.6946C91.173 71.7121 91.2278 71.7543 91.2612 71.8121C91.2783 71.8405 91.2896 71.872 91.2943 71.9048C91.299 71.9376 91.297 71.9711 91.2886 72.0031C91.2801 72.0352 91.2653 72.0652 91.245 72.0914C91.2247 72.1176 91.1994 72.1395 91.1705 72.1557L73.4055 82.4018C73.3685 82.4283 73.3246 82.4436 73.2791 82.4457Z" fill="#E0E0E0"/>
<path d="M73.2794 85.2581C73.2234 85.2585 73.1689 85.2402 73.1244 85.2063C73.0799 85.1723 73.048 85.1246 73.0335 85.0705C73.019 85.0165 73.0229 84.9591 73.0445 84.9075C73.0661 84.8559 73.1043 84.8129 73.1529 84.7853L90.9178 74.5282C90.9759 74.4954 91.0445 74.4867 91.1089 74.5042C91.1733 74.5217 91.2281 74.564 91.2615 74.6217C91.2786 74.6501 91.2899 74.6816 91.2946 74.7144C91.2993 74.7473 91.2974 74.7807 91.2889 74.8127C91.2804 74.8448 91.2656 74.8748 91.2453 74.901C91.225 74.9272 91.1997 74.9491 91.1708 74.9653L73.4059 85.2224C73.3679 85.2458 73.3241 85.2582 73.2794 85.2581Z" fill="#E0E0E0"/>
<path d="M73.2792 87.6251C73.2347 87.625 73.191 87.6133 73.1524 87.5911C73.1138 87.5689 73.0817 87.537 73.0592 87.4986C73.0264 87.4406 73.0177 87.3719 73.0352 87.3076C73.0527 87.2432 73.095 87.1884 73.1527 87.155L90.9176 76.887C90.9756 76.8541 91.0443 76.8455 91.1087 76.863C91.173 76.8805 91.2279 76.9227 91.2612 76.9805C91.2784 77.0088 91.2896 77.0404 91.2943 77.0732C91.2991 77.106 91.2971 77.1394 91.2887 77.1715C91.2802 77.2035 91.2654 77.2336 91.2451 77.2598C91.2248 77.286 91.1994 77.3079 91.1705 77.3241L73.4056 87.5811C73.3685 87.6075 73.3246 87.6228 73.2792 87.6251Z" fill="#E0E0E0"/>
<path d="M73.2791 89.9756C73.224 89.9749 73.1706 89.9563 73.1271 89.9225C73.0836 89.8887 73.0523 89.8416 73.038 89.7884C73.0237 89.7352 73.0271 89.6788 73.0478 89.6277C73.0685 89.5766 73.1053 89.5337 73.1526 89.5055L90.9175 79.2485C90.9752 79.2194 91.0418 79.2135 91.1037 79.2319C91.1655 79.2503 91.218 79.2917 91.2504 79.3476C91.2827 79.4035 91.2925 79.4697 91.2776 79.5325C91.2627 79.5953 91.2244 79.6501 91.1705 79.6856L73.4055 89.9426C73.3667 89.9636 73.3233 89.9749 73.2791 89.9756Z" fill="#E0E0E0"/>
<path d="M73.2791 92.3344C73.224 92.3337 73.1706 92.315 73.1271 92.2812C73.0836 92.2475 73.0523 92.2004 73.038 92.1472C73.0237 92.094 73.0271 92.0375 73.0478 91.9865C73.0685 91.9354 73.1053 91.8925 73.1526 91.8643L90.9175 81.6072C90.9756 81.5744 91.0442 81.5657 91.1086 81.5832C91.173 81.6008 91.2278 81.643 91.2612 81.7007C91.2779 81.7292 91.2889 81.7607 91.2934 81.7935C91.2979 81.8262 91.2959 81.8595 91.2874 81.8915C91.279 81.9234 91.2643 81.9534 91.2443 81.9796C91.2242 82.0059 91.1991 82.0279 91.1705 82.0444L73.4055 92.2986C73.3669 92.3206 73.3235 92.3329 73.2791 92.3344Z" fill="#E0E0E0"/>
<path d="M52.1221 108.887V124.216C52.1221 124.474 52.3035 124.579 52.5262 124.45L69.4746 114.663C69.5928 114.586 69.6912 114.482 69.7618 114.359C69.8325 114.237 69.8735 114.1 69.8815 113.959V98.6216C69.8815 98.3632 69.7 98.256 69.4746 98.388L52.5207 108.175C52.4026 108.254 52.3049 108.359 52.2356 108.483C52.1663 108.607 52.1274 108.745 52.1221 108.887Z" fill="#073F27"/>
<path opacity="0.5" d="M52.1221 108.887V124.216C52.1221 124.474 52.3035 124.579 52.5262 124.45L69.4746 114.663C69.5928 114.586 69.6912 114.482 69.7618 114.359C69.8325 114.237 69.8735 114.1 69.8815 113.959V98.6216C69.8815 98.3632 69.7 98.256 69.4746 98.388L52.5207 108.175C52.4026 108.254 52.3049 108.359 52.2356 108.483C52.1663 108.607 52.1274 108.745 52.1221 108.887Z" fill="white"/>
<path opacity="0.5" d="M53.0596 108.958L68.9496 99.7845V113.885L53.0596 123.061V108.958Z" fill="white"/>
<path d="M53.0596 123.061V119.122L57.351 109.379L64.3475 114.237L62.0272 111.883L64.9771 108.183L68.9496 109.984V113.885L53.0596 123.061Z" fill="white"/>
<path d="M63.542 104.755C64.2513 104.351 64.8011 104.67 64.8011 105.494C64.777 105.935 64.6494 106.364 64.4288 106.746C64.2081 107.128 63.9006 107.453 63.531 107.694C62.83 108.098 62.2637 107.768 62.2637 106.96C62.2872 106.517 62.4154 106.087 62.6376 105.704C62.8598 105.32 63.1698 104.995 63.542 104.755Z" fill="white"/>
<path d="M52.3746 82.8966C52.3186 82.8969 52.2641 82.8787 52.2197 82.8448C52.1752 82.8108 52.1432 82.7631 52.1287 82.709C52.1142 82.655 52.1181 82.5976 52.1397 82.546C52.1614 82.4944 52.1995 82.4514 52.2481 82.4237L70.0241 72.1667C70.0817 72.1376 70.1483 72.1317 70.2102 72.1501C70.2721 72.1686 70.3246 72.21 70.3569 72.2659C70.3892 72.3218 70.399 72.3879 70.3841 72.4507C70.3693 72.5136 70.3309 72.5684 70.277 72.6038L52.5121 82.8609C52.4708 82.8861 52.423 82.8985 52.3746 82.8966Z" fill="#E0E0E0"/>
<path d="M52.3749 85.2553C52.3304 85.2552 52.2867 85.2435 52.2481 85.2213C52.2095 85.1991 52.1774 85.1673 52.1549 85.1289C52.1221 85.0709 52.1134 85.0022 52.1309 84.9378C52.1484 84.8735 52.1907 84.8186 52.2484 84.7852L70.0243 74.5282C70.0527 74.5111 70.0842 74.4998 70.117 74.4951C70.1499 74.4904 70.1833 74.4924 70.2153 74.5008C70.2474 74.5093 70.2774 74.5241 70.3036 74.5444C70.3298 74.5647 70.3517 74.59 70.3679 74.6189C70.4012 74.6771 70.4103 74.7459 70.3934 74.8107C70.3764 74.8754 70.3347 74.931 70.2772 74.9653L52.5123 85.2196C52.471 85.2449 52.4232 85.2573 52.3749 85.2553Z" fill="#E0E0E0"/>
<path d="M52.3748 87.6251C52.3197 87.6244 52.2663 87.6058 52.2228 87.572C52.1793 87.5382 52.148 87.4911 52.1337 87.4379C52.1194 87.3847 52.1228 87.3283 52.1435 87.2772C52.1642 87.2261 52.201 87.1832 52.2483 87.155L70.0242 76.887C70.0527 76.8702 70.0842 76.8593 70.117 76.8548C70.1497 76.8503 70.183 76.8523 70.215 76.8607C70.2469 76.8691 70.2769 76.8838 70.3031 76.9039C70.3294 76.924 70.3514 76.9491 70.3679 76.9777C70.4011 77.0358 70.4102 77.1047 70.3933 77.1694C70.3763 77.2342 70.3346 77.2897 70.2772 77.3241L52.5122 87.5811C52.4712 87.6078 52.4237 87.6229 52.3748 87.6251Z" fill="#E0E0E0"/>
<path d="M52.3748 89.9536C52.3185 89.9553 52.2633 89.9379 52.2181 89.9043C52.1729 89.8708 52.1404 89.8229 52.1258 89.7685C52.1111 89.7142 52.1153 89.6565 52.1375 89.6047C52.1598 89.553 52.1988 89.5103 52.2483 89.4835L70.0242 79.2265C70.0819 79.1974 70.1485 79.1915 70.2104 79.2099C70.2722 79.2283 70.3247 79.2698 70.3571 79.3256C70.3894 79.3815 70.3992 79.4477 70.3843 79.5105C70.3694 79.5734 70.3311 79.6281 70.2772 79.6636L52.5122 89.9206C52.4701 89.9434 52.4227 89.9548 52.3748 89.9536Z" fill="#E0E0E0"/>
<path d="M60.2976 66.4128C60.2426 66.4121 60.1892 66.3935 60.1457 66.3597C60.1021 66.3259 60.0708 66.2788 60.0565 66.2256C60.0422 66.1724 60.0457 66.116 60.0664 66.0649C60.0871 66.0138 60.1239 65.9709 60.1712 65.9427L70.0241 60.263C70.0525 60.2458 70.084 60.2346 70.1168 60.2299C70.1496 60.2252 70.1831 60.2271 70.2151 60.2356C70.2472 60.244 70.2772 60.2588 70.3034 60.2791C70.3296 60.2994 70.3515 60.3248 70.3677 60.3537C70.401 60.4118 70.4101 60.4807 70.3931 60.5454C70.3762 60.6102 70.3345 60.6657 70.277 60.7001L60.4351 66.3798C60.3933 66.4035 60.3457 66.4149 60.2976 66.4128Z" fill="#E0E0E0"/>
<path d="M60.2976 68.7715C60.2535 68.7715 60.2101 68.7598 60.172 68.7376C60.1338 68.7154 60.1023 68.6835 60.0804 68.6451C60.0473 68.5874 60.0383 68.519 60.0553 68.4546C60.0722 68.3903 60.1139 68.3353 60.1712 68.3014L70.024 62.6217C70.0817 62.5926 70.1483 62.5867 70.2102 62.6051C70.2721 62.6236 70.3246 62.665 70.3569 62.7209C70.3892 62.7768 70.399 62.8429 70.3841 62.9057C70.3692 62.9686 70.3309 63.0234 70.277 63.0588L60.4351 68.7386C60.3933 68.7623 60.3456 68.7737 60.2976 68.7715Z" fill="#E0E0E0"/>
<path d="M60.2976 64.01C60.2535 64.01 60.2101 63.9983 60.172 63.9761C60.1338 63.9539 60.1023 63.9219 60.0804 63.8836C60.0473 63.8259 60.0383 63.7575 60.0553 63.6931C60.0722 63.6288 60.1139 63.5738 60.1712 63.5399L70.024 57.8602C70.0817 57.8311 70.1483 57.8252 70.2102 57.8436C70.2721 57.8621 70.3246 57.9035 70.3569 57.9594C70.3892 58.0153 70.399 58.0814 70.3841 58.1442C70.3692 58.2071 70.3309 58.2619 70.277 58.2973L60.4241 63.9826C60.385 64.0024 60.3414 64.0119 60.2976 64.01Z" fill="#E0E0E0"/>
<path d="M60.2978 61.6073C60.254 61.6073 60.211 61.5958 60.1729 61.5741C60.1348 61.5525 60.103 61.5213 60.0806 61.4836C60.0481 61.4253 60.0394 61.3567 60.0563 61.2921C60.0732 61.2276 60.1144 61.172 60.1714 61.1372L70.0243 55.4602C70.0819 55.4312 70.1485 55.4252 70.2104 55.4436C70.2723 55.4621 70.3248 55.5035 70.3571 55.5594C70.3894 55.6153 70.3992 55.6814 70.3843 55.7442C70.3695 55.8071 70.3311 55.8619 70.2772 55.8973L60.4353 61.5771C60.3938 61.6014 60.3457 61.612 60.2978 61.6073Z" fill="#E0E0E0"/>
<path d="M52.3748 75.7076C52.3185 75.7093 52.2633 75.6919 52.2181 75.6583C52.1729 75.6248 52.1404 75.5769 52.1258 75.5225C52.1111 75.4682 52.1153 75.4105 52.1375 75.3587C52.1598 75.307 52.1988 75.2643 52.2483 75.2375L70.0242 64.9805C70.0819 64.9514 70.1485 64.9455 70.2104 64.9639C70.2722 64.9823 70.3247 65.0237 70.3571 65.0796C70.3894 65.1355 70.3992 65.2017 70.3843 65.2645C70.3694 65.3273 70.3311 65.3821 70.2772 65.4176L52.5122 75.6746C52.4701 75.6974 52.4227 75.7088 52.3748 75.7076Z" fill="#E0E0E0"/>
<path d="M52.3746 78.0691C52.3186 78.0695 52.2641 78.0512 52.2197 78.0173C52.1752 77.9834 52.1432 77.9356 52.1287 77.8815C52.1142 77.8275 52.1181 77.7701 52.1397 77.7185C52.1614 77.6669 52.1995 77.6239 52.2481 77.5963L70.0241 67.3392C70.0817 67.3102 70.1483 67.3042 70.2102 67.3227C70.2721 67.3411 70.3246 67.3825 70.3569 67.4384C70.3892 67.4943 70.399 67.5604 70.3841 67.6233C70.3693 67.6861 70.3309 67.7409 70.277 67.7764L52.5121 78.0334C52.4708 78.0586 52.423 78.0711 52.3746 78.0691Z" fill="#E0E0E0"/>
<path d="M52.3748 80.4086C52.3197 80.4079 52.2663 80.3893 52.2228 80.3555C52.1793 80.3217 52.148 80.2746 52.1337 80.2214C52.1194 80.1682 52.1228 80.1118 52.1435 80.0607C52.1642 80.0097 52.201 79.9668 52.2483 79.9385L70.0242 69.6815C70.0527 69.6647 70.0842 69.6538 70.117 69.6493C70.1497 69.6448 70.183 69.6468 70.215 69.6552C70.2469 69.6637 70.2769 69.6784 70.3031 69.6984C70.3294 69.7185 70.3514 69.7436 70.3679 69.7722C70.4011 69.8303 70.4102 69.8992 70.3933 69.964C70.3763 70.0287 70.3346 70.0843 70.2772 70.1186L52.5122 80.3756C52.4701 80.3984 52.4227 80.4098 52.3748 80.4086Z" fill="#E0E0E0"/>
<path d="M73.271 96.6478V99.7213C73.271 99.9797 73.4524 100.084 73.6751 99.955L90.6428 90.1653C90.7612 90.089 90.8598 89.9856 90.9306 89.8637C91.0013 89.7419 91.0421 89.605 91.0496 89.4643V86.3907C91.0496 86.1323 90.8682 86.0279 90.6428 86.1571L73.6889 95.944C73.5686 96.02 73.4681 96.1234 73.3955 96.2457C73.3229 96.368 73.2802 96.5058 73.271 96.6478Z" fill="#073F27"/>
<path opacity="0.5" d="M73.271 96.6478V99.7213C73.271 99.9797 73.4524 100.084 73.6751 99.955L90.6428 90.1653C90.7612 90.089 90.8598 89.9856 90.9306 89.8637C91.0013 89.7419 91.0421 89.605 91.0496 89.4643V86.3907C91.0496 86.1323 90.8682 86.0279 90.6428 86.1571L73.6889 95.944C73.5686 96.02 73.4681 96.1234 73.3955 96.2457C73.3229 96.368 73.2802 96.5058 73.271 96.6478Z" fill="white"/>
<path d="M73.2708 112.89C73.2157 112.889 73.1623 112.87 73.1188 112.837C73.0753 112.803 73.044 112.756 73.0297 112.702C73.0154 112.649 73.0188 112.593 73.0395 112.542C73.0602 112.491 73.097 112.448 73.1443 112.42L90.9175 102.163C90.9755 102.13 91.0442 102.121 91.1085 102.139C91.1729 102.156 91.2277 102.198 91.2611 102.256C91.2783 102.284 91.2895 102.316 91.2942 102.349C91.2989 102.382 91.297 102.415 91.2885 102.447C91.2801 102.479 91.2653 102.509 91.245 102.535C91.2247 102.562 91.1993 102.583 91.1704 102.6L73.4055 112.857C73.3642 112.879 73.3178 112.89 73.2708 112.89Z" fill="#E0E0E0"/>
<path d="M73.2709 103.345C73.2264 103.345 73.1827 103.333 73.1441 103.311C73.1055 103.288 73.0734 103.257 73.0509 103.218C73.0181 103.16 73.0094 103.091 73.0269 103.027C73.0444 102.963 73.0867 102.908 73.1444 102.875L90.9176 92.6175C90.9459 92.6004 90.9775 92.5891 91.0103 92.5844C91.0431 92.5797 91.0765 92.5817 91.1086 92.5901C91.1406 92.5986 91.1707 92.6134 91.1969 92.6337C91.2231 92.654 91.245 92.6793 91.2612 92.7082C91.278 92.7369 91.289 92.7687 91.2936 92.8016C91.2981 92.8346 91.2961 92.8681 91.2877 92.9003C91.2793 92.9324 91.2646 92.9626 91.2445 92.9891C91.2243 93.0156 91.1992 93.0379 91.1705 93.0546L73.4056 103.312C73.3642 103.334 73.3178 103.345 73.2709 103.345Z" fill="#E0E0E0"/>
<path d="M73.2708 105.703C73.2157 105.703 73.1623 105.684 73.1188 105.65C73.0753 105.616 73.044 105.569 73.0297 105.516C73.0154 105.463 73.0188 105.407 73.0395 105.356C73.0602 105.304 73.097 105.262 73.1443 105.233L90.9175 94.9763C90.9755 94.9434 91.0442 94.9348 91.1085 94.9523C91.1729 94.9698 91.2277 95.012 91.2611 95.0698C91.2783 95.0981 91.2895 95.1297 91.2942 95.1625C91.2989 95.1953 91.297 95.2287 91.2885 95.2608C91.2801 95.2928 91.2653 95.3229 91.245 95.3491C91.2247 95.3753 91.1993 95.3972 91.1704 95.4134L73.4055 105.67C73.3642 105.693 73.3178 105.704 73.2708 105.703Z" fill="#E0E0E0"/>
<path d="M73.2711 108.065C73.2151 108.065 73.1606 108.047 73.1161 108.013C73.0716 107.979 73.0396 107.931 73.0252 107.877C73.0107 107.823 73.0146 107.766 73.0362 107.714C73.0578 107.663 73.096 107.62 73.1446 107.592L90.9178 97.335C90.9758 97.3022 91.0445 97.2935 91.1088 97.311C91.1732 97.3285 91.228 97.3708 91.2614 97.4285C91.2786 97.4569 91.2898 97.4884 91.2945 97.5212C91.2992 97.5541 91.2973 97.5875 91.2888 97.6195C91.2804 97.6516 91.2656 97.6816 91.2453 97.7078C91.225 97.7341 91.1996 97.7559 91.1707 97.7722L73.4058 108.029C73.3653 108.054 73.3185 108.066 73.2711 108.065Z" fill="#E0E0E0"/>
<path d="M73.2709 110.404C73.2264 110.404 73.1827 110.393 73.1441 110.37C73.1055 110.348 73.0734 110.316 73.0509 110.278C73.0181 110.22 73.0094 110.151 73.0269 110.087C73.0444 110.023 73.0867 109.968 73.1444 109.934L90.9176 99.6773C90.9459 99.6602 90.9775 99.6489 91.0103 99.6442C91.0431 99.6395 91.0765 99.6414 91.1086 99.6499C91.1406 99.6584 91.1707 99.6732 91.1969 99.6935C91.2231 99.7138 91.245 99.7391 91.2612 99.768C91.278 99.7967 91.289 99.8284 91.2936 99.8614C91.2981 99.8943 91.2961 99.9279 91.2877 99.96C91.2793 99.9922 91.2646 100.022 91.2445 100.049C91.2243 100.075 91.1992 100.098 91.1705 100.114L73.4056 110.371C73.3642 110.394 73.3178 110.405 73.2709 110.404Z" fill="#E0E0E0"/>
<path d="M52.3746 92.3151C52.3186 92.3155 52.2641 92.2972 52.2197 92.2633C52.1752 92.2294 52.1432 92.1816 52.1287 92.1276C52.1142 92.0735 52.1181 92.0161 52.1397 91.9645C52.1614 91.9129 52.1995 91.8699 52.2481 91.8423L70.0241 81.577C70.0817 81.5479 70.1483 81.542 70.2102 81.5604C70.2721 81.5789 70.3246 81.6203 70.3569 81.6761C70.3892 81.732 70.399 81.7982 70.3841 81.861C70.3693 81.9239 70.3309 81.9786 70.277 82.0141L52.5121 92.2711C52.4717 92.2993 52.4238 92.3146 52.3746 92.3151Z" fill="#E0E0E0"/>
<path d="M52.3748 94.6739C52.3197 94.6732 52.2663 94.6545 52.2228 94.6208C52.1793 94.587 52.148 94.5399 52.1337 94.4867C52.1194 94.4335 52.1228 94.377 52.1435 94.326C52.1642 94.2749 52.201 94.232 52.2483 94.2038L70.0242 83.9468C70.0527 83.93 70.0842 83.919 70.117 83.9145C70.1497 83.91 70.183 83.9121 70.215 83.9205C70.2469 83.9289 70.2769 83.9436 70.3031 83.9637C70.3294 83.9838 70.3514 84.0088 70.3679 84.0375C70.4011 84.0956 70.4102 84.1644 70.3933 84.2292C70.3763 84.294 70.3346 84.3495 70.2772 84.3839L52.5122 94.6409C52.4701 94.6637 52.4227 94.6751 52.3748 94.6739Z" fill="#E0E0E0"/>
<path d="M52.3748 97.0849C52.3197 97.0842 52.2663 97.0655 52.2228 97.0318C52.1793 96.998 52.148 96.9509 52.1337 96.8977C52.1194 96.8445 52.1228 96.788 52.1435 96.737C52.1642 96.6859 52.201 96.643 52.2483 96.6148L70.0242 86.3578C70.0819 86.3287 70.1485 86.3227 70.2104 86.3412C70.2722 86.3596 70.3247 86.401 70.3571 86.4569C70.3894 86.5128 70.3992 86.5789 70.3843 86.6418C70.3694 86.7046 70.3311 86.7594 70.2772 86.7949L52.5122 97.0519C52.4701 97.0747 52.4227 97.0861 52.3748 97.0849Z" fill="#E0E0E0"/>
<path d="M52.3748 99.4464C52.3185 99.448 52.2633 99.4307 52.2181 99.3971C52.1729 99.3635 52.1404 99.3157 52.1258 99.2613C52.1111 99.2069 52.1153 99.1492 52.1375 99.0975C52.1598 99.0458 52.1988 99.0031 52.2483 98.9763L70.0242 88.7248C70.0819 88.6957 70.1485 88.6897 70.2104 88.7082C70.2722 88.7266 70.3247 88.768 70.3571 88.8239C70.3894 88.8798 70.3992 88.9459 70.3843 89.0088C70.3694 89.0716 70.3311 89.1264 70.2772 89.1619L52.5122 99.4189C52.4701 99.4414 52.4223 99.451 52.3748 99.4464Z" fill="#E0E0E0"/>
<path d="M52.3749 101.805C52.3304 101.805 52.2867 101.793 52.2481 101.771C52.2095 101.749 52.1774 101.717 52.1549 101.679C52.1221 101.621 52.1134 101.552 52.1309 101.488C52.1484 101.423 52.1907 101.368 52.2484 101.335L70.0243 91.078C70.0527 91.0609 70.0842 91.0496 70.117 91.0449C70.1499 91.0402 70.1833 91.0421 70.2153 91.0506C70.2474 91.0591 70.2774 91.0739 70.3036 91.0942C70.3298 91.1145 70.3517 91.1398 70.3679 91.1687C70.4012 91.2269 70.4103 91.2957 70.3934 91.3605C70.3764 91.4252 70.3347 91.4808 70.2772 91.5151L52.5123 101.769C52.471 101.795 52.4232 101.807 52.3749 101.805Z" fill="#E0E0E0"/>
<path d="M52.3748 104.274C52.3185 104.276 52.2633 104.258 52.2181 104.225C52.1729 104.191 52.1404 104.143 52.1258 104.089C52.1111 104.034 52.1153 103.977 52.1375 103.925C52.1598 103.873 52.1988 103.831 52.2483 103.804L70.0242 93.5467C70.0819 93.5176 70.1485 93.5117 70.2104 93.5301C70.2722 93.5486 70.3247 93.59 70.3571 93.6459C70.3894 93.7018 70.3992 93.7679 70.3843 93.8307C70.3694 93.8936 70.3311 93.9484 70.2772 93.9838L52.5122 104.241C52.4707 104.265 52.4229 104.277 52.3748 104.274Z" fill="#E0E0E0"/>
<path d="M52.4874 65.9069L53.0372 64.8485L52.7623 67.5564L52.1245 67.9248L52.1795 65.3406L57.3479 62.3551L57.3973 64.8815L56.7623 65.2472L56.4874 62.8472L57.0207 63.287L52.4874 65.9069ZM54.9039 71.0616L56.229 70.5117V71.1715L53.2956 72.865V72.2052L54.6097 71.2375L54.9039 71.0616ZM54.1699 67.397C54.1699 65.9509 54.1699 65.6265 54.1424 64.197L55.3795 63.485C55.352 64.9173 55.352 65.2417 55.352 66.7152V67.3172C55.352 68.7688 55.352 70.2286 55.3795 71.6581L54.1424 72.3702C54.1699 70.9379 54.1699 69.4781 54.1699 68.0045V67.397Z" fill="#455A64"/>
</svg>
