<svg width="45" height="51" viewBox="0 0 45 51" fill="none" xmlns="http://www.w3.org/2000/svg">
<path d="M35.9354 22.0135C35.9353 19.8399 35.4116 17.6983 34.4088 15.7699C33.4059 13.8415 31.9533 12.183 30.1739 10.9348C28.3945 9.68652 26.3407 8.8852 24.1861 8.59862C22.0315 8.31204 19.8395 8.54862 17.7957 9.28836C15.7519 10.0281 13.9163 11.2492 12.4442 12.8484C10.9722 14.4476 9.90693 16.3779 9.33865 18.4759C8.77038 20.5738 8.71577 22.7778 9.17946 24.9014C9.64315 27.0249 10.6115 29.0055 12.0026 30.6757C13.9955 33.0647 15.0864 36.0776 15.085 39.1888V41.0524H29.7183V39.1888C29.7143 36.0807 30.8027 33.0701 32.7933 30.6831C34.8272 28.2524 35.9397 25.1829 35.9354 22.0135Z" fill="#F5DE19"/>
<path d="M29.9048 41.2316H14.8988V39.189C14.8974 36.1216 13.8212 33.1516 11.8573 30.7952C10.1881 28.7918 9.12439 26.3542 8.79075 23.768C8.45711 21.1818 8.8674 18.5541 9.97353 16.1927C11.0797 13.8312 12.8358 11.834 15.0363 10.4348C17.2368 9.0356 19.7904 8.29248 22.3981 8.29248C25.0057 8.29248 27.5594 9.0356 29.7599 10.4348C31.9603 11.834 33.7165 13.8312 34.8226 16.1927C35.9288 18.5541 36.3391 21.1818 36.0054 23.768C35.6718 26.3542 34.608 28.7918 32.9388 30.7952C30.9773 33.1495 29.9037 36.1172 29.9048 39.1816V41.2316ZM15.2715 40.8588H29.5321V39.189C29.5308 36.0376 30.6348 32.9855 32.6518 30.5641C34.2771 28.6155 35.3132 26.2441 35.6388 23.7277C35.9644 21.2113 35.566 18.6542 34.4903 16.3561C33.4145 14.0581 31.706 12.1142 29.565 10.7525C27.424 9.39073 24.9392 8.66746 22.4018 8.66746C19.8644 8.66746 17.3796 9.39073 15.2386 10.7525C13.0976 12.1142 11.3891 14.0581 10.3133 16.3561C9.2376 18.6542 8.83918 21.2113 9.1648 23.7277C9.49041 26.2441 10.5266 28.6155 12.1518 30.5641C14.171 32.9877 15.2774 36.042 15.279 39.1965L15.2715 40.8588Z" fill="#263238"/>
<path d="M21.4259 40.9778C21.3899 40.9778 21.3554 40.9638 21.3296 40.9387C21.3039 40.9137 21.2889 40.8795 21.288 40.8436C21.0979 36.7436 20.8146 32.4871 20.5015 29.2481C20.223 28.962 19.9825 28.6413 19.7859 28.2939C18.977 26.8924 18.5819 24.7865 19.3199 23.6907C19.4429 23.5118 19.5734 23.5155 19.6405 23.5341C20.0878 23.6609 20.4717 26.0799 20.7587 29.1251C20.955 29.3313 21.1925 29.494 21.4558 29.6025C21.7191 29.711 22.0022 29.7629 22.2869 29.755C22.7143 29.6999 23.1095 29.4984 23.405 29.1847C23.748 26.2811 24.3033 23.9404 24.9929 23.6348C25.0738 23.5875 25.1674 23.5665 25.2609 23.5745C25.3543 23.5825 25.4429 23.6192 25.5147 23.6795C25.9359 24.0522 25.6563 25.4313 25.291 26.4787C24.9523 27.5112 24.4084 28.4645 23.692 29.2816C23.2299 33.2549 23.1218 38.3426 23.692 40.6312C23.6965 40.6488 23.6974 40.6671 23.6948 40.6851C23.6921 40.7031 23.686 40.7204 23.6766 40.7359C23.6672 40.7515 23.6549 40.7651 23.6403 40.7759C23.6257 40.7867 23.6091 40.7945 23.5914 40.7989C23.5553 40.808 23.5171 40.8025 23.4851 40.7837C23.453 40.7649 23.4296 40.7342 23.42 40.6982C22.872 38.5066 22.9168 33.5866 23.3566 29.5872C23.0663 29.8378 22.7057 29.9927 22.3241 30.0308C21.7805 30.055 21.2479 29.8725 20.8332 29.5201C21.2246 33.5866 21.4818 38.6035 21.5787 40.8212C21.5797 40.8399 21.577 40.8585 21.5708 40.876C21.5646 40.8936 21.555 40.9098 21.5425 40.9236C21.5301 40.9375 21.515 40.9487 21.4982 40.9568C21.4813 40.9648 21.4631 40.9694 21.4445 40.9703L21.4259 40.9778ZM25.2277 23.8621C25.181 23.8633 25.1352 23.8748 25.0935 23.8957C24.553 24.138 24.0648 26.1842 23.733 28.812C24.2865 28.0824 24.7182 27.268 25.0115 26.4004C25.4737 25.0884 25.5259 24.1007 25.3097 23.8994C25.288 23.8771 25.2587 23.8638 25.2277 23.8621ZM19.5771 23.8137L19.551 23.8472C18.9547 24.7306 19.1783 26.6651 20.0281 28.156C20.1541 28.3737 20.2961 28.5818 20.453 28.7784C20.1698 25.9606 19.8604 24.0187 19.5771 23.8137Z" fill="#263238"/>
<path d="M29.719 41.0482H15.0857V44.6674H29.719V41.0482Z" fill="white"/>
<path d="M29.719 44.8089H15.0857C15.0482 44.8089 15.0121 44.794 14.9856 44.7675C14.959 44.7409 14.9441 44.7049 14.9441 44.6673V41.0481C14.9441 41.0297 14.9478 41.0114 14.9549 40.9945C14.9621 40.9775 14.9726 40.9621 14.9858 40.9493C14.999 40.9364 15.0146 40.9263 15.0318 40.9196C15.049 40.9129 15.0673 40.9097 15.0857 40.9102H29.719C29.7371 40.9102 29.7551 40.9138 29.7718 40.9207C29.7885 40.9276 29.8037 40.9378 29.8165 40.9506C29.8293 40.9634 29.8395 40.9786 29.8464 40.9953C29.8534 41.0121 29.8569 41.03 29.8569 41.0481V44.6636C29.8574 44.6822 29.8543 44.7007 29.8476 44.7181C29.8409 44.7354 29.8309 44.7513 29.8181 44.7648C29.8053 44.7783 29.7899 44.7892 29.7729 44.7967C29.7559 44.8043 29.7376 44.8085 29.719 44.8089ZM15.2236 44.5294H29.5774V41.1748H15.2236V44.5294Z" fill="#263238"/>
<path d="M15.0857 44.6643H29.719V47.3479C29.719 47.5961 29.6204 47.834 29.445 48.0095C29.2695 48.1849 29.0316 48.2835 28.7834 48.2835H16.0212C15.7731 48.2835 15.5352 48.1849 15.3597 48.0095C15.1843 47.834 15.0857 47.5961 15.0857 47.3479V44.6643Z" fill="white"/>
<path d="M28.7835 48.4356H16.0213C15.7362 48.4356 15.4628 48.3226 15.2609 48.1214C15.059 47.9202 14.9451 47.6472 14.9441 47.3622V44.6636C14.9441 44.626 14.959 44.59 14.9856 44.5635C15.0121 44.5369 15.0482 44.522 15.0857 44.522H29.719C29.7559 44.5229 29.791 44.5383 29.8168 44.5648C29.8425 44.5912 29.8569 44.6267 29.8569 44.6636V47.3472C29.8589 47.4895 29.8326 47.6307 29.7795 47.7626C29.7265 47.8946 29.6477 48.0147 29.5478 48.116C29.448 48.2172 29.329 48.2976 29.1977 48.3525C29.0665 48.4074 28.9257 48.4356 28.7835 48.4356ZM15.2236 44.8164V47.3622C15.2246 47.5731 15.3091 47.775 15.4586 47.9238C15.6081 48.0725 15.8104 48.1561 16.0213 48.1561H28.7835C28.9937 48.1551 29.1951 48.0711 29.3438 47.9225C29.4924 47.7738 29.5764 47.5724 29.5774 47.3622V44.8164H15.2236Z" fill="#263238"/>
<path d="M16.9285 48.2903H27.868V49.8818C27.868 50.13 27.7695 50.3679 27.594 50.5434C27.4186 50.7188 27.1806 50.8174 26.9325 50.8174H17.864C17.6159 50.8174 17.3779 50.7188 17.2025 50.5434C17.027 50.3679 16.9285 50.13 16.9285 49.8818V48.2866V48.2903Z" fill="#263238"/>
<path d="M26.9352 51H17.8667C17.5702 51 17.2857 50.8822 17.076 50.6725C16.8663 50.4628 16.7485 50.1784 16.7485 49.8818V48.1002H28.0608V49.8818C28.0608 50.0293 28.0317 50.1753 27.975 50.3114C27.9183 50.4476 27.8353 50.5712 27.7307 50.6751C27.6261 50.779 27.5019 50.8613 27.3654 50.917C27.2289 50.9728 27.0827 51.001 26.9352 51ZM17.1175 48.4692V49.8818C17.1175 50.0795 17.1961 50.2691 17.3359 50.4089C17.4757 50.5487 17.6653 50.6273 17.863 50.6273H26.9315C27.1292 50.6273 27.3188 50.5487 27.4586 50.4089C27.5984 50.2691 27.6769 50.0795 27.6769 49.8818V48.4729L17.1175 48.4692Z" fill="#263238"/>
<path d="M44.0564 22.2258H37.8579C37.8376 22.2291 37.8169 22.228 37.7971 22.2225C37.7773 22.217 37.7589 22.2073 37.7433 22.194C37.7276 22.1807 37.7151 22.1641 37.7065 22.1455C37.6978 22.1269 37.6934 22.1066 37.6934 22.086C37.6934 22.0655 37.6978 22.0452 37.7065 22.0266C37.7151 22.0079 37.7276 21.9914 37.7433 21.9781C37.7589 21.9648 37.7773 21.9551 37.7971 21.9496C37.8169 21.9441 37.8376 21.9429 37.8579 21.9463H44.0564C44.0895 21.9517 44.1196 21.9687 44.1414 21.9943C44.1631 22.0199 44.1751 22.0524 44.1751 22.086C44.1751 22.1196 44.1631 22.1521 44.1414 22.1777C44.1196 22.2033 44.0895 22.2204 44.0564 22.2258Z" fill="#263238"/>
<path d="M6.44127 22.2258H0.164536C0.144269 22.2291 0.123526 22.228 0.103738 22.2225C0.0839493 22.217 0.0655873 22.2073 0.0499351 22.194C0.034283 22.1807 0.0217153 22.1641 0.0130923 22.1455C0.00446936 22.1269 0 22.1066 0 22.086C0 22.0655 0.00446936 22.0452 0.0130923 22.0266C0.0217153 22.0079 0.034283 21.9914 0.0499351 21.9781C0.0655873 21.9648 0.0839493 21.9551 0.103738 21.9496C0.123526 21.9441 0.144269 21.9429 0.164536 21.9463H6.44127C6.46153 21.9429 6.48229 21.9441 6.50208 21.9496C6.52187 21.9551 6.54022 21.9648 6.55587 21.9781C6.57152 21.9914 6.5841 22.0079 6.59272 22.0266C6.60135 22.0452 6.6058 22.0655 6.6058 22.086C6.6058 22.1066 6.60135 22.1269 6.59272 22.1455C6.5841 22.1641 6.57152 22.1807 6.55587 22.194C6.54022 22.2073 6.52187 22.217 6.50208 22.2225C6.48229 22.228 6.46153 22.2291 6.44127 22.2258Z" fill="#263238"/>
<path d="M22.1214 6.49664C22.0838 6.49664 22.0478 6.48172 22.0212 6.45516C21.9947 6.4286 21.9797 6.39257 21.9797 6.35501V0.13791C21.9807 0.100995 21.9961 0.065919 22.0225 0.0401578C22.049 0.0143967 22.0844 -1.27801e-05 22.1214 8.50533e-09C22.158 8.50533e-09 22.193 0.0145294 22.2189 0.0403924C22.2448 0.0662554 22.2593 0.101334 22.2593 0.13791V6.35501C22.2598 6.37343 22.2566 6.39176 22.2499 6.40893C22.2432 6.42609 22.2331 6.44174 22.2202 6.45494C22.2074 6.46814 22.192 6.47864 22.175 6.4858C22.158 6.49296 22.1398 6.49665 22.1214 6.49664Z" fill="#263238"/>
<path d="M33.35 10.9878C33.3136 10.9871 33.2789 10.9724 33.2531 10.9468C33.2399 10.934 33.2294 10.9186 33.2223 10.9016C33.2151 10.8847 33.2114 10.8665 33.2114 10.848C33.2114 10.8296 33.2151 10.8114 33.2223 10.7944C33.2294 10.7775 33.2399 10.7621 33.2531 10.7493L37.532 6.46663C37.545 6.45366 37.5604 6.44337 37.5773 6.43635C37.5943 6.42933 37.6124 6.42572 37.6308 6.42572C37.6491 6.42572 37.6673 6.42933 37.6842 6.43635C37.7012 6.44337 37.7166 6.45366 37.7295 6.46663C37.7425 6.4796 37.7528 6.495 37.7598 6.51195C37.7668 6.5289 37.7705 6.54706 37.7705 6.56541C37.7705 6.58375 37.7668 6.60191 37.7598 6.61886C37.7528 6.63581 37.7425 6.65121 37.7295 6.66418L33.4506 10.9468C33.4234 10.9727 33.3875 10.9873 33.35 10.9878Z" fill="#263238"/>
<path d="M6.59105 37.7461C6.56322 37.7456 6.53617 37.7369 6.51326 37.721C6.49036 37.7052 6.47262 37.683 6.46228 37.6571C6.45194 37.6313 6.44945 37.6029 6.45511 37.5757C6.46078 37.5484 6.47436 37.5234 6.49415 37.5039L10.8364 33.1616C10.8626 33.1354 10.8981 33.1207 10.9352 33.1207C10.9722 33.1207 11.0078 33.1354 11.034 33.1616C11.0602 33.1878 11.0749 33.2233 11.0749 33.2604C11.0749 33.2974 11.0602 33.3329 11.034 33.3591L6.6917 37.7051C6.6645 37.731 6.62856 37.7456 6.59105 37.7461Z" fill="#263238"/>
<path d="M10.7466 10.8615C10.7107 10.8621 10.6759 10.8488 10.6497 10.8242L6.49381 6.66454C6.48063 6.65169 6.47014 6.63633 6.46299 6.61937C6.45583 6.60241 6.45215 6.58418 6.45215 6.56577C6.45215 6.54736 6.45583 6.52913 6.46299 6.51217C6.47014 6.4952 6.48063 6.47985 6.49381 6.467C6.52069 6.44211 6.55596 6.42828 6.59258 6.42828C6.62921 6.42828 6.66449 6.44211 6.69136 6.467L10.8473 10.6229C10.8724 10.6504 10.8864 10.6863 10.8864 10.7235C10.8864 10.7608 10.8724 10.7967 10.8473 10.8242C10.8199 10.8493 10.7838 10.8627 10.7466 10.8615Z" fill="#263238"/>
<path d="M37.6258 37.7457C37.5894 37.745 37.5547 37.7303 37.5288 37.7047L33.3878 33.5637C33.363 33.5369 33.3491 33.5016 33.3491 33.465C33.3491 33.4283 33.363 33.3931 33.3878 33.3662C33.401 33.3529 33.4167 33.3423 33.434 33.3351C33.4512 33.3279 33.4698 33.3242 33.4885 33.3242C33.5072 33.3242 33.5257 33.3279 33.543 33.3351C33.5603 33.3423 33.5759 33.3529 33.5891 33.3662L37.7264 37.5035C37.7515 37.531 37.7655 37.5669 37.7655 37.6041C37.7655 37.6414 37.7515 37.6773 37.7264 37.7047C37.6994 37.7309 37.6633 37.7456 37.6258 37.7457Z" fill="#263238"/>
</svg>
